<?xml version="1.0" encoding="UTF-8"?>
<svg width="172.72mm" height="144.93mm" version="1.1" viewBox="0 0 612 513.53909" xmlns="http://www.w3.org/2000/svg">
 <g transform="translate(162 -538.82)">
  <g transform="matrix(.8 0 0 .8 16 210.47)">
   <path d="m408.82 1052.4h32.353v-152.94l-9.4118-1.1765h-13.529l-9.4118 1.1765z" fill="#dcdcdc"/>
   <path d="m411.18 875.89h27.647v-70.588l-7.0588-1.1765h-13.529l-7.0588 1.1765z" fill="#dcdcdc"/>
   <path d="m400 875.89 15.294-1.1765h19.412l15.294 1.1765v5.8824l-15.294-1.1765h-19.412l-15.294 1.1765z" fill="#1a337d" fill-rule="evenodd"/>
   <path d="m400 881.77 15.294-1.1765h19.412l15.294 1.1765-8.8235 17.647-9.4118-1.1765h-13.529l-9.4118 1.1765z" fill="#dcdcdc" fill-rule="evenodd"/>
   <path d="m432.94 788.83 14.118 2.353-8.2353 14.118-7.0588-1.1765h-13.529l-7.0588 1.1765-8.2353-14.118 14.118-2.353z" fill="#dcdcdc"/>
   <path d="m414.71 783.54h20.588v-69.412l-5.8824-1.1765h-8.8235l-5.8824 1.1765z" fill="#dcdcdc"/>
   <path d="m402.94 784.72 14.118-2.3529h15.882l14.118 2.3529v6.4706l-14.118-2.353h-15.882l-14.118 2.353z" fill="#1a337d"/>
   <path d="m434.12 697.66 10 1.7647-8.8235 14.706-5.8824-1.1765h-8.8235l-5.8824 1.1765-8.8235-14.706 10-1.7647z" fill="#dcdcdc"/>
   <path d="m437.65 634.67-2.3529-3.1284-10.294-92.715l-10.294 92.715-2.3529 3.1284s11.86 7.11 25.294 0z" fill="#1a337d" fill-rule="evenodd"/>
   <path d="m414.71 693.54h20.588v-58.471l-5.8824-1.1765h-8.8235l-5.8824 1.1765z" fill="#1a337d"/>
   <path d="m434.12 692.36 10 1.7647v5.2941l-10-1.7647h-18.235l-10 1.7647v-5.2941l10-1.7647z" fill="#1a337d"/>
   <path transform="translate(-30 580.82)" d="m446.59 55.539-1.8828 6v6l1.8828-6 4.8242 12 1.8887-6 1.8867-6 4.8242 12 1.8887-6 1.8887-6 1.5059 3.748v-6l-1.5059-3.748-1.8887 6-1.8887 6-4.8242-12-1.8867 6-1.8887 6z" fill="#fff"/>
   <path d="m416.59 648.36-1.8828 6v6l1.8828-6 4.8242 12 1.8887-6 1.8867-6 4.8242 12 1.8887-6 1.8887-6 1.5059 3.748v-6l-1.5059-3.748-1.8887 6-1.8887 6-4.8242-12-1.8867 6-1.8887 6z" fill="#fff"/>
   <path d="m416.59 660.36-1.8828 6v6l1.8828-6 4.8242 12 1.8887-6 1.8867-6 4.8242 12 1.8887-6 1.8887-6 1.5059 3.748v-6l-1.5059-3.748-1.8887 6-1.8887 6-4.8242-12-1.8867 6-1.8887 6z" fill="#fff"/>
   <path d="m416.59 670.36-1.8828 6v6l1.8828-6 4.8242 12 1.8887-6 1.8867-6 4.8242 12 1.8887-6 1.8887-6 1.5059 3.748v-6l-1.5059-3.748-1.8887 6-1.8887 6-4.8242-12-1.8867 6-1.8887 6z" fill="#fff"/>
  </g>
  <path d="m144 972.36 33-35c30.708-5.3232 66.5-5 66.5-5s35.792-0.3232 66.5 5l33 35z" fill="#dcdcdc" fill-rule="evenodd"/>
  <path d="m310 931.36c-30.708-5.3232-66.5-5-66.5-5s-35.792-0.3232-66.5 5v6c30.708-5.3232 66.5-5 66.5-5s35.792-0.3232 66.5 5z" fill="#808080" fill-rule="evenodd"/>
  <path d="m243.5 903.36s-56.383-1.9221-72 8v21l5.5-1c30.708-5.3232 66.5-5 66.5-5s35.792-0.3232 66.5 5l5.5002 1-1.3e-4 -21c-15.617-9.9221-72-8-72-8z" fill="#f5f5f5" fill-rule="evenodd"/>
  <path d="m243.5 799.36s-63.655 15.918-72 78v34c15.617-9.9221 72-8 72-8s56.383-1.9221 72 8l-7e-5 -34c-8.3454-62.082-72-78-72-78z" fill="none"/>
  <path d="m216 972.36h-8l1-45h8z" fill="#a9a9a9" fill-rule="evenodd"/>
  <path d="m271 972.36h8l-1-45h-8z" fill="#a9a9a9" fill-rule="evenodd"/>
  <path d="m217 927.36-1 45h4v-45.5z" fill="#696969" fill-rule="evenodd"/>
  <path d="m270 927.36 1 45h-4v-45.5z" fill="#696969" fill-rule="evenodd"/>
  <rect x="242.5" y="784.36" width="2" height="15" fill="#ff0"/>
  <path d="m243.5 799.36s-63.655 15.918-72 78v34c15.617-9.9221 72-8 72-8s56.383-1.9221 72 8l-7e-5 -34c-8.3454-62.082-72-78-72-78z" fill="#1a337d" fill-rule="evenodd"/>
  <path d="m138 972.36v-4l30-37h9v6l-33 35z" fill="#a9a9a9" fill-rule="evenodd"/>
  <path d="m347 1052.4h-207v-80h207z" fill="#dcdcdc" fill-rule="evenodd"/>
  <path d="m349 972.36v-4l-30-37h-9v6l33 35z" fill="#a9a9a9" fill-rule="evenodd"/>
  <path d="m246.8 777.62a4 4 0 0 1 0.69727 2.2461 4 4 0 0 1 -4 4 4 4 0 0 1 -4 -4 4 4 0 0 1 0.68555 -2.2344 5 5 0 0 0 -1.6856 3.7344 5 5 0 0 0 5 5 5 5 0 0 0 5 -5 5 5 0 0 0 -1.6973 -3.7461z" fill="#ff0"/>
  <path d="m349 978.36h-211v-6h211z" fill="#dcdcdc" fill-rule="evenodd"/>
  <path d="m345 977.36h-203v-5h203z" fill="#a9a9a9" fill-rule="evenodd"/>
  <path d="m144 977.36h40v75h-40z" fill="#ccc"/>
  <path d="m303 977.36h40v75h-40z" fill="#ccc"/>
  <path d="m150 996.36v56h28v-56c-1.0988-11.233-14-17-14-17s-12.901 5.7666-14 17z" fill="#005"/>
  <path d="m309 996.36v56h28v-56c-1.0988-11.233-14-17-14-17s-12.901 5.7666-14 17z" fill="#005"/>
  <path d="m154 996.36v56h20v-56c-0.81046-8.2853-10-13-10-13s-9.1895 4.7147-10 13z" fill="#1c2224"/>
  <path d="m313 996.36v56h20v-56c-0.81046-8.2853-10-13-10-13s-9.1895 4.7147-10 13z" fill="#1c2224"/>
  <path d="m200 987.36h87v65h-87z" fill="#030357"/>
  <path d="m190 977.36h107v5h-107z" fill="#030357"/>
  <path d="m200 987.36h87v3h-87z" fill="#fff"/>
  <path d="m242 1052.4v-62h3v62z" fill="#fff"/>
  <path d="m200 1052.4v-62h3v62z" fill="#fff"/>
  <path d="m284 1052.4v-62h3v62z" fill="#fff"/>
  <path d="m222 1052.4v-62h3v62z" fill="#fff"/>
  <path d="m262 1052.4v-62h3v62z" fill="#fff"/>
  <path transform="translate(-30 580.82)" d="m-2 430.54s9.1895 4.7147 10 13v28h2v-28c0.81046-8.2853 10-13 10-13zm22 0s9.1895 4.7147 10 13v28h2v-28c0.81046-8.2853 10-13 10-13zm22 0s9.1895 4.7147 10 13v28h2v-28c0.81046-8.2853 10-13 10-13zm22 0s9.1895 4.7147 10 13v28h2v-28c0.81046-8.2853 10-13 10-13zm22 0s9.1895 4.7147 10 13v28h2v-28c0.81046-8.2853 10-13 10-13zm22 0s9.1895 4.7147 10 13v28h2v-28c0.81046-8.2853 10-13 10-13zm22 0s9.1895 4.7147 10 13v28h2v-28c0.81046-8.2853 10-13 10-13zm22 0s9.1895 4.7147 10 13v28h2v-28c0.81046-8.2853 10-13 10-13zm22 0s9.1895 4.7147 10 13v28h2v-28c0.81046-8.2853 10-13 10-13zm22 0s9.1895 4.7147 10 13v28h2v-28c0.81046-8.2853 10-13 10-13zm22 0s9.1895 4.7147 10 13v28h2v-28c0.81046-8.2853 10-13 10-13zm22 0s9.1895 4.7147 10 13v28h2v-28c0.81046-8.2853 10-13 10-13zm22 0s9.1895 4.7147 10 13v28h2v-28c0.81046-8.2853 10-13 10-13zm22 0s9.1895 4.7147 10 13v28h2v-28c0.81046-8.2853 10-13 10-13zm22 0s9.1895 4.7147 10 13v28h2v-28c0.81046-8.2853 10-13 10-13zm22 0s9.1895 4.7147 10 13v28h2v-28c0.81046-8.2853 10-13 10-13zm22 0s9.1895 4.7147 10 13v28h2v-28c0.81046-8.2853 10-13 10-13zm22 0s9.1895 4.7147 10 13v28h2v-28c0.81046-8.2853 10-13 10-13zm22 0s9.1895 4.7147 10 13v28h2v-28c0.81046-8.2853 10-13 10-13z" fill="#ececec"/>
  <path d="m87 1009.4-9-17-9 17z" fill="#1a337d" fill-rule="evenodd"/>
  <path transform="translate(-30 580.82)" d="m20 400.54s9.1895 4.7147 10 13v58h2v-58c0.81046-8.2853 10-13 10-13zm22 0s9.1895 4.7147 10 13v58h2v-58c0.81046-8.2853 10-13 10-13zm22 0s9.1895 4.7147 10 13v58h2v-58c0.81046-8.2853 10-13 10-13zm22 0s9.1895 4.7147 10 13v58h2v-58c0.81046-8.2853 10-13 10-13zm22 0s9.1895 4.7147 10 13v58h2v-58c0.81046-8.2853 10-13 10-13z" fill="#ececec"/>
  <path d="m-1 1009.4-9-17-9 17z" fill="#1a337d" fill-rule="evenodd"/>
  <path d="m43 1009.4-9-17-9 17z" fill="#1a337d" fill-rule="evenodd"/>
  <path d="m131 1009.4-9-17-9 17z" fill="#1a337d" fill-rule="evenodd"/>
  <path d="m176 1009.4-9-17-9 17z" fill="#1a337d" fill-rule="evenodd"/>
  <path d="m220 1009.4-9-17-9 17z" fill="#1a337d" fill-rule="evenodd"/>
  <path d="m242 1009.4-9-17-9 17z" fill="#1a337d" fill-rule="evenodd"/>
  <path d="m264 1009.4-9-17-9 17z" fill="#1a337d" fill-rule="evenodd"/>
  <path d="m286 1009.4-9-17-9 17z" fill="#1a337d" fill-rule="evenodd"/>
  <path d="m330 1009.4-9-17-9 17z" fill="#1a337d" fill-rule="evenodd"/>
  <path d="m374 1009.4-9-17-9 17z" fill="#1a337d" fill-rule="evenodd"/>
  <path d="m-30 1004.4h414l2 5h-418z" fill="#ececec"/>
  <path d="m-32 1009.4h418v2h-418z" fill="#1a337d"/>
  <path d="m355 1024.4v16h18v-16c-0.81046-8.2853-9-12-9-12s-8.1895 3.7147-9 12z" fill="#b3b3b3"/>
  <path d="m333 1024.4v16h18v-16c-0.81046-8.2853-9-12-9-12s-8.1895 3.7147-9 12z" fill="#b3b3b3"/>
  <path d="m311 1024.4v16h18v-16c-0.81046-8.2853-9-12-9-12s-8.1895 3.7147-9 12z" fill="#b3b3b3"/>
  <path d="m289 1024.4v16h18v-16c-0.81046-8.2853-9-12-9-12s-8.1895 3.7147-9 12z" fill="#b3b3b3"/>
  <path d="m179 1024.4v16h18v-16c-0.81046-8.2853-9-12-9-12s-8.1895 3.7147-9 12z" fill="#b3b3b3"/>
  <path d="m157 1024.4v16h18v-16c-0.81046-8.2853-9-12-9-12s-8.1895 3.7147-9 12z" fill="#b3b3b3"/>
  <path d="m135 1024.4v16h18v-16c-0.81046-8.2853-9-12-9-12s-8.1895 3.7147-9 12z" fill="#b3b3b3"/>
  <path d="m113 1024.4v16h18v-16c-0.81046-8.2853-9-12-9-12s-8.1895 3.7147-9 12z" fill="#b3b3b3"/>
  <path d="m91 1024.4v16h18v-16c-0.81046-8.2853-9-12-9-12s-8.1895 3.7147-9 12z" fill="#b3b3b3"/>
  <path d="m69 1024.4v16h18v-16c-0.81046-8.2853-9-12-9-12s-8.1895 3.7147-9 12z" fill="#b3b3b3"/>
  <path d="m47 1024.4v16h18v-16c-0.81046-8.2853-9-12-9-12s-8.1895 3.7147-9 12z" fill="#b3b3b3"/>
  <path d="m25 1024.4v16h18v-16c-0.81046-8.2853-9-12-9-12s-8.1895 3.7147-9 12z" fill="#b3b3b3"/>
  <path d="m3 1024.4v16h18v-16c-0.81046-8.2853-9-12-9-12s-8.1895 3.7147-9 12z" fill="#b3b3b3"/>
  <path d="m-19 1024.4v16h18v-16c-0.81046-8.2853-9-12-9-12s-8.1895 3.7147-9 12z" fill="#b3b3b3"/>
  <path d="m100 981.36v-2h-110v2z" fill="#1a337d"/>
  <path d="m21 979.36-9-17-9 17z" fill="#1a337d" fill-rule="evenodd"/>
  <path d="m43 979.36-9-17-9 17z" fill="#1a337d" fill-rule="evenodd"/>
  <path d="m65 979.36-9-17-9 17z" fill="#1a337d" fill-rule="evenodd"/>
  <path d="m87 979.36-9-17-9 17z" fill="#1a337d" fill-rule="evenodd"/>
  <path transform="translate(-30 580.82)" d="m253.16 227.25c-0.35593 0.0162-0.68077 0.0147-0.99805 0.0137-0.61298 0.32562-1.2295 0.65306-1.8555 1-2.1573 2.6485-7.9152 10.707-7.6777 21.314 0 0 0.33689 14.96 7.8887 30.922 0 0 9.0497 17.631 22.076 41.967 1.2477 0.0224 1.4552 0.0324 1.9609 0.0469 0.69802-0.0202 2.0006-0.0398 4.0293-0.0703-15.058-24.678-24.066-41.943-24.066-41.943-9.5878-15.519-9.8887-30.922-9.8887-30.922-0.29119-13.008 8.5312-22.328 8.5312-22.328z" fill="#fff" fill-rule="evenodd"/>
  <path d="m226.25 808.04s-6.732 7.3444-3.624 22.355c0 0 3.8345 12.644 13.89 30.922 0 0 9.0498 17.63 22.076 41.966 1.987 0.0357 3.1221 0.0744 3.1221 0.0744s1.0426-0.0355 2.8834-0.072c-15.068-24.692-24.082-41.969-24.082-41.969-9.5878-15.519-15.29-30.922-15.29-30.922-4.1095-16.075 2.1242-22.355 2.1242-22.355-0.97375 0.0443-1.1001 0-1.1001 0z" fill="#fff" fill-rule="evenodd"/>
  <path d="m264.57 808.04s7.2328 7.8451 4.1248 22.856c0 0-5.2116 13.52-15.392 30.797 0 0-10.427 17.255-23.453 41.591-1.987 0.0357-3.1221 0.0744-3.1221 0.0744s-1.0426-0.0355-2.8834-0.072c15.068-24.692 25.208-41.343 25.208-41.343 9.5878-15.519 17.043-31.047 17.043-31.047 4.1095-16.075-2.625-22.856-2.625-22.856 0.97375 0.0443 1.1001 0 1.1001 0z" fill="#fff" fill-rule="evenodd"/>
  <path transform="translate(-30 580.82)" d="m233.19 239.93c-1.0866 0.90323-2.1649 1.8419-3.2383 2.8145-3.9325 6.2256-7.7431 17.7-4.8144 37.756 0 0 2.4286 17.631 15.455 41.967 1.987 0.0357 3.123 0.0742 3.123 0.0742s1.042-0.0358 2.8828-0.0723c-15.068-24.692-18.082-41.969-18.082-41.969-3.4177-23.094 1.248-35.138 4.6738-40.57z" fill="#fff" fill-rule="evenodd"/>
  <path transform="translate(-30 580.82)" d="m242.96 232.7c-0.77575 0.50855-1.5523 1.0155-2.334 1.5566-2.3e-4 3.1e-4 -2e-3 -3.1e-4 -2e-3 0-2.5398 3.5158-5.4385 8.8011-7.3594 16.32 0 0-3.5514 12.268 3.75 29.545 0 0 6.5413 17.991 19.557 42.311 2.1479-0.0281 4.1399-0.0399 5.9785-0.0391-15.036-24.653-21.66-42.021-21.66-42.021-6.7084-16.396-4.6484-30.047-4.6484-30.047 1.3623-8.7908 4.2678-14.328 6.7188-17.625z" fill="#fff" fill-rule="evenodd"/>
  <path transform="translate(-30 580.82)" d="m315.68 241.51c3.4066 5.0442 7.8577 16.291 4.498 38.992 0 0-3.014 17.276-18.082 41.969 1.8409 0.0365 2.8828 0.0723 2.8828 0.0723s1.136-0.0385 3.123-0.0742c13.026-24.336 15.455-41.967 15.455-41.967 2.7172-18.608-0.36659-29.35-3.9668-35.393-1.2882-1.2537-2.5945-2.4509-3.9102-3.5996z" fill="#fff" fill-rule="evenodd"/>
  <path transform="translate(-30 580.82)" d="m222.62 250.12c-1.6732 1.888-3.2987 3.8732-4.8574 5.9707-2.1908 6.4981-3.523 15.104-2.7754 26.41 0 0 0.57744 17.386 13.332 41.449 1.8738-0.19659 3.755-0.37214 5.6582-0.52344-14.46-24.126-15.609-40.926-15.609-40.926-0.95641-15.091 1.321-25.447 4.252-32.381z" fill="#fff" fill-rule="evenodd"/>
  <path transform="translate(-30 580.82)" d="m325.31 251.19c2.6906 7.0289 4.6644 17.13 3.7656 31.311 0 0-1.151 16.815-15.631 40.959 1.9044 0.15468 3.7843 0.33468 5.6562 0.53516 12.778-24.087 13.355-41.494 13.355-41.494 0.70018-10.589-0.43915-18.852-2.3965-25.266-1.5221-2.1188-3.1089-4.1339-4.75-6.0449z" fill="#fff" fill-rule="evenodd"/>
  <path transform="translate(-30 580.82)" d="m297.36 228.63c2.3067 2.9939 7.4514 10.812 7.2246 20.941 0 0-0.30086 15.402-9.8887 30.922 0 0-9.014 17.276-24.082 41.969 0.12473 2e-3 0.078 3e-3 0.19531 6e-3 1.6786 0.0345 2.6875 0.0664 2.6875 0.0664s1.1729-0.034 2.9961-0.0703c0.078-1e-3 0.0462-2e-3 0.12696-4e-3 13.026-24.336 22.076-41.967 22.076-41.967 7.5518-15.962 7.8887-30.922 7.8887-30.922 0.1865-8.3312-3.2753-15.107-5.7988-18.93-1.1564-0.7035-2.3008-1.3787-3.4258-2.0117z" fill="#fff" fill-rule="evenodd"/>
  <path d="m259.81 808.03c1.9329 2.5177 2.2781 6.7255 2.2781 6.7255s0.98004 7.887-3.7772 16.776c0 0-4.632 9.7648-19.504 30.797 0 0-11.929 16.629-24.956 40.965-1.987 0.0357-3.1221 0.0744-3.1221 0.0744s-1.0426-0.0355-2.8834-0.072c16.07-24.567 26.961-40.967 26.961-40.967 13.99-18.653 19.498-28.794 19.498-28.794 10.015-16.024 3.1816-25.545 3.1816-25.545 0.81373-0.12519 2.3236 0.0411 2.3236 0.0411z" fill="#fff" fill-rule="evenodd"/>
  <path d="m229.33 808.01s-0.81624 15.893 0.91412 22.387c1.7304 6.4938 8.2161 12.644 18.272 30.922 0 0 9.0498 17.63 22.076 41.966 1.987 0.0357 3.1221 0.0744 3.1221 0.0744s1.0426-0.0355 2.8834-0.072c-15.068-24.692-24.082-41.969-24.082-41.969-9.5878-15.519-17.996-24.669-19.672-30.922s-2.4139-22.387-2.4139-22.387c-0.97375 0.0443-1.1001 0-1.1001 0z" fill="#fff" fill-rule="evenodd"/>
  <path d="m253.68 808.05s-4.2565 8.5756-20.531 24.85c0 0-11.768 9.7649-25.664 29.044 0 0-12.018 14.898-23.202 44.919 1.076-0.22896 2.1855-0.44401 3.3228-0.64594 17.751-45.9 38.407-62.676 38.407-62.676 29.169-31.298 29.295-35.492 29.295-35.492z" fill="#fff" fill-rule="evenodd"/>
  <path d="m249.29 808.05s-2.7442 4.5888-19.896 18.716c0 0-9.0137 7.6366-27.917 27.292 0 0-18.528 21.408-26.223 55.424 0.58735-0.23675 1.202-0.46477 1.8418-0.68437 8.6076-34.584 26.259-53.238 26.259-53.238 15.649-18.153 27.542-27.667 27.542-27.667 19.342-17.652 19.968-19.843 19.968-19.843z" fill="#fff" fill-rule="evenodd"/>
  <path transform="translate(-30 580.82)" d="m295.48 227.61c-0.97764 1.7683-5.9683 10.113-20.33 24.475 0 0-11.768 9.7636-25.664 29.043 0 0-11.483 14.277-22.445 42.959 1.1042-0.12319 2.2078-0.24708 3.3281-0.35351 19.588-43.054 37.645-61.008 37.645-61.008 21.996-23.601 27.469-31.777 28.834-34.377-0.46215-0.25704-0.91188-0.49287-1.3672-0.73828z" fill="#fff" fill-rule="evenodd"/>
  <path d="m232.7 808.05s4.2565 8.5756 20.531 24.85c0 0 11.768 9.7649 25.664 29.044 0 0 12.018 14.898 23.202 44.919-1.076-0.22896-2.1855-0.44401-3.3228-0.64594-17.751-45.9-38.407-62.676-38.407-62.676-29.169-31.298-29.295-35.492-29.295-35.492z" fill="#fff" fill-rule="evenodd"/>
  <path d="m237.09 808.05s2.7442 4.5888 19.896 18.716c0 0 9.0137 7.6366 27.917 27.292 0 0 18.528 21.408 26.223 55.424-0.58735-0.23675-1.202-0.46477-1.8418-0.68437-8.6076-34.584-26.259-53.238-26.259-53.238-15.649-18.153-27.542-27.667-27.542-27.667-19.342-17.652-19.968-19.843-19.968-19.843z" fill="#fff" fill-rule="evenodd"/>
  <path transform="translate(-30 580.82)" d="m251.05 227.86c-0.45565 0.24825-0.90695 0.49016-1.3691 0.75 1.5773 2.8592 7.3576 11.227 28.686 34.111 0 0 18.039 17.935 37.615 60.939 1.1239 0.10341 2.2228 0.23352 3.332 0.35351-10.955-28.635-22.42-42.891-22.42-42.891-13.896-19.279-25.664-29.043-25.664-29.043-13.848-13.848-18.953-22.061-20.18-24.221z" fill="#fff" fill-rule="evenodd"/>
  <path transform="translate(-30 580.82)" d="m307.16 234.83c2.0673 3.3957 4.1839 8.3814 5.2871 15.5 0 0 2.06 13.651-4.6484 30.047 0 0-6.6232 17.369-21.66 42.023 1.8688 6e-3 3.8374 0.0201 5.9688 0.0566 13.022-24.33 19.566-42.33 19.566-42.33 7.3014-17.277 3.75-29.545 3.75-29.545-1.5273-5.9786-3.6765-10.558-5.7695-13.951-0.83293-0.62387-1.6634-1.2148-2.4941-1.8008z" fill="#fff" fill-rule="evenodd"/>
  <path d="m408.82 1052.4h32.353v-152.94l-9.4118-1.1765h-13.529l-9.4118 1.1765z" fill="#dcdcdc"/>
  <path d="m411.18 875.89h27.647v-70.588l-7.0588-1.1765h-13.529l-7.0588 1.1765z" fill="#dcdcdc"/>
  <path d="m400 875.89 15.294-1.1765h19.412l15.294 1.1765v5.8824l-15.294-1.1765h-19.412l-15.294 1.1765z" fill="#1a337d" fill-rule="evenodd"/>
  <path d="m400 881.77 15.294-1.1765h19.412l15.294 1.1765-8.8235 17.647-9.4118-1.1765h-13.529l-9.4118 1.1765z" fill="#dcdcdc" fill-rule="evenodd"/>
  <path d="m432.94 788.83 14.118 2.353-8.2353 14.118-7.0588-1.1765h-13.529l-7.0588 1.1765-8.2353-14.118 14.118-2.353z" fill="#dcdcdc"/>
  <path d="m414.71 783.54h20.588v-69.412l-5.8824-1.1765h-8.8235l-5.8824 1.1765z" fill="#dcdcdc"/>
  <path d="m402.94 784.72 14.118-2.3529h15.882l14.118 2.3529v6.4706l-14.118-2.353h-15.882l-14.118 2.353z" fill="#1a337d"/>
  <path d="m434.12 697.66 10 1.7647-8.8235 14.706-5.8824-1.1765h-8.8235l-5.8824 1.1765-8.8235-14.706 10-1.7647z" fill="#dcdcdc"/>
  <path d="m437.65 634.67-2.3529-3.1284-10.294-92.715l-10.294 92.715-2.3529 3.1284s11.86 7.11 25.294 0z" fill="#1a337d" fill-rule="evenodd"/>
  <path d="m414.71 693.54h20.588v-58.471l-5.8824-1.1765h-8.8235l-5.8824 1.1765z" fill="#1a337d"/>
  <path d="m434.12 692.36 10 1.7647v5.2941l-10-1.7647h-18.235l-10 1.7647v-5.2941l10-1.7647z" fill="#1a337d"/>
  <path transform="translate(-30 580.82)" d="m446.59 55.539-1.8828 6v6l1.8828-6 4.8242 12 1.8887-6 1.8867-6 4.8242 12 1.8887-6 1.8887-6 1.5059 3.748v-6l-1.5059-3.748-1.8887 6-1.8887 6-4.8242-12-1.8867 6-1.8887 6z" fill="#fff"/>
  <path d="m416.59 648.36-1.8828 6v6l1.8828-6 4.8242 12 1.8887-6 1.8867-6 4.8242 12 1.8887-6 1.8887-6 1.5059 3.748v-6l-1.5059-3.748-1.8887 6-1.8887 6-4.8242-12-1.8867 6-1.8887 6z" fill="#fff"/>
  <path d="m416.59 660.36-1.8828 6v6l1.8828-6 4.8242 12 1.8887-6 1.8867-6 4.8242 12 1.8887-6 1.8887-6 1.5059 3.748v-6l-1.5059-3.748-1.8887 6-1.8887 6-4.8242-12-1.8867 6-1.8887 6z" fill="#fff"/>
  <path d="m416.59 670.36-1.8828 6v6l1.8828-6 4.8242 12 1.8887-6 1.8867-6 4.8242 12 1.8887-6 1.8887-6 1.5059 3.748v-6l-1.5059-3.748-1.8887 6-1.8887 6-4.8242-12-1.8867 6-1.8887 6z" fill="#fff"/>
  <g transform="matrix(.8 0 0 .8 -482 210.47)">
   <path d="m408.82 1052.4h32.353v-152.94l-9.4118-1.1765h-13.529l-9.4118 1.1765z" fill="#dcdcdc"/>
   <path d="m411.18 875.89h27.647v-70.588l-7.0588-1.1765h-13.529l-7.0588 1.1765z" fill="#dcdcdc"/>
   <path d="m400 875.89 15.294-1.1765h19.412l15.294 1.1765v5.8824l-15.294-1.1765h-19.412l-15.294 1.1765z" fill="#1a337d" fill-rule="evenodd"/>
   <path d="m400 881.77 15.294-1.1765h19.412l15.294 1.1765-8.8235 17.647-9.4118-1.1765h-13.529l-9.4118 1.1765z" fill="#dcdcdc" fill-rule="evenodd"/>
   <path d="m432.94 788.83 14.118 2.353-8.2353 14.118-7.0588-1.1765h-13.529l-7.0588 1.1765-8.2353-14.118 14.118-2.353z" fill="#dcdcdc"/>
   <path d="m414.71 783.54h20.588v-69.412l-5.8824-1.1765h-8.8235l-5.8824 1.1765z" fill="#dcdcdc"/>
   <path d="m402.94 784.72 14.118-2.3529h15.882l14.118 2.3529v6.4706l-14.118-2.353h-15.882l-14.118 2.353z" fill="#1a337d"/>
   <path d="m434.12 697.66 10 1.7647-8.8235 14.706-5.8824-1.1765h-8.8235l-5.8824 1.1765-8.8235-14.706 10-1.7647z" fill="#dcdcdc"/>
   <path d="m437.65 634.67-2.3529-3.1284-10.294-92.715l-10.294 92.715-2.3529 3.1284s11.86 7.11 25.294 0z" fill="#1a337d" fill-rule="evenodd"/>
   <path d="m414.71 693.54h20.588v-58.471l-5.8824-1.1765h-8.8235l-5.8824 1.1765z" fill="#1a337d"/>
   <path d="m434.12 692.36 10 1.7647v5.2941l-10-1.7647h-18.235l-10 1.7647v-5.2941l10-1.7647z" fill="#1a337d"/>
   <path transform="translate(-30 580.82)" d="m446.59 55.539-1.8828 6v6l1.8828-6 4.8242 12 1.8887-6 1.8867-6 4.8242 12 1.8887-6 1.8887-6 1.5059 3.748v-6l-1.5059-3.748-1.8887 6-1.8887 6-4.8242-12-1.8867 6-1.8887 6z" fill="#fff"/>
   <path d="m416.59 648.36-1.8828 6v6l1.8828-6 4.8242 12 1.8887-6 1.8867-6 4.8242 12 1.8887-6 1.8887-6 1.5059 3.748v-6l-1.5059-3.748-1.8887 6-1.8887 6-4.8242-12-1.8867 6-1.8887 6z" fill="#fff"/>
   <path d="m416.59 660.36-1.8828 6v6l1.8828-6 4.8242 12 1.8887-6 1.8867-6 4.8242 12 1.8887-6 1.8887-6 1.5059 3.748v-6l-1.5059-3.748-1.8887 6-1.8887 6-4.8242-12-1.8867 6-1.8887 6z" fill="#fff"/>
   <path d="m416.59 670.36-1.8828 6v6l1.8828-6 4.8242 12 1.8887-6 1.8867-6 4.8242 12 1.8887-6 1.8887-6 1.5059 3.748v-6l-1.5059-3.748-1.8887 6-1.8887 6-4.8242-12-1.8867 6-1.8887 6z" fill="#fff"/>
  </g>
  <g transform="translate(-498)">
   <path d="m408.82 1052.4h32.353v-152.94l-9.4118-1.1765h-13.529l-9.4118 1.1765z" fill="#dcdcdc"/>
   <path d="m411.18 875.89h27.647v-70.588l-7.0588-1.1765h-13.529l-7.0588 1.1765z" fill="#dcdcdc"/>
   <path d="m400 875.89 15.294-1.1765h19.412l15.294 1.1765v5.8824l-15.294-1.1765h-19.412l-15.294 1.1765z" fill="#1a337d" fill-rule="evenodd"/>
   <path d="m400 881.77 15.294-1.1765h19.412l15.294 1.1765-8.8235 17.647-9.4118-1.1765h-13.529l-9.4118 1.1765z" fill="#dcdcdc" fill-rule="evenodd"/>
   <path d="m432.94 788.83 14.118 2.353-8.2353 14.118-7.0588-1.1765h-13.529l-7.0588 1.1765-8.2353-14.118 14.118-2.353z" fill="#dcdcdc"/>
   <path d="m414.71 783.54h20.588v-69.412l-5.8824-1.1765h-8.8235l-5.8824 1.1765z" fill="#dcdcdc"/>
   <path d="m402.94 784.72 14.118-2.3529h15.882l14.118 2.3529v6.4706l-14.118-2.353h-15.882l-14.118 2.353z" fill="#1a337d"/>
   <path d="m434.12 697.66 10 1.7647-8.8235 14.706-5.8824-1.1765h-8.8235l-5.8824 1.1765-8.8235-14.706 10-1.7647z" fill="#dcdcdc"/>
   <path d="m437.65 634.67-2.3529-3.1284-10.294-92.715l-10.294 92.715-2.3529 3.1284s11.86 7.11 25.294 0z" fill="#1a337d" fill-rule="evenodd"/>
   <path d="m414.71 693.54h20.588v-58.471l-5.8824-1.1765h-8.8235l-5.8824 1.1765z" fill="#1a337d"/>
   <path d="m434.12 692.36 10 1.7647v5.2941l-10-1.7647h-18.235l-10 1.7647v-5.2941l10-1.7647z" fill="#1a337d"/>
   <path transform="translate(-30 580.82)" d="m446.59 55.539-1.8828 6v6l1.8828-6 4.8242 12 1.8887-6 1.8867-6 4.8242 12 1.8887-6 1.8887-6 1.5059 3.748v-6l-1.5059-3.748-1.8887 6-1.8887 6-4.8242-12-1.8867 6-1.8887 6z" fill="#fff"/>
   <path d="m416.59 648.36-1.8828 6v6l1.8828-6 4.8242 12 1.8887-6 1.8867-6 4.8242 12 1.8887-6 1.8887-6 1.5059 3.748v-6l-1.5059-3.748-1.8887 6-1.8887 6-4.8242-12-1.8867 6-1.8887 6z" fill="#fff"/>
   <path d="m416.59 660.36-1.8828 6v6l1.8828-6 4.8242 12 1.8887-6 1.8867-6 4.8242 12 1.8887-6 1.8887-6 1.5059 3.748v-6l-1.5059-3.748-1.8887 6-1.8887 6-4.8242-12-1.8867 6-1.8887 6z" fill="#fff"/>
   <path d="m416.59 670.36-1.8828 6v6l1.8828-6 4.8242 12 1.8887-6 1.8867-6 4.8242 12 1.8887-6 1.8887-6 1.5059 3.748v-6l-1.5059-3.748-1.8887 6-1.8887 6-4.8242-12-1.8867 6-1.8887 6z" fill="#fff"/>
  </g>
 </g>
</svg>
