<?xml version="1.0" encoding="UTF-8"?>
<svg enable-background="new 0 0 2560 1600" version="1.1" viewBox="0 0 2560 1600" xmlns="http://www.w3.org/2000/svg">
 <path d="m1276.3 78.407l-808.65 1457.6 1666.6-28.466-857.96-1429.1zm-701.83 1338.9l507.51-263.4c2.895 1.727 5.805 3.422 8.726 5.087l-527.28 299.18 11.037-40.861zm-7.931 46.289l525.89-303.62c2.823 1.594 5.661 3.156 8.507 4.691l-493.58 310.11-40.823-11.18zm444.95-402.58c-8e-3 9e-3 -0.016 0.017-0.024 0.025-0.429-0.432-0.859-0.865-1.288-1.297-4.555-4.407-9.016-8.893-13.37-13.459-4.918-4.951-9.836-9.902-14.755-14.853 82.026-76.412 194.93-127.62 307.62-127.08 103.03 5.959 203.22 55.621 277.66 127.1 8e-3 -8e-3 0.016-0.017 0.024-0.025 0.43 0.432 0.859 0.865 1.289 1.298 4.549 4.402 9.005 8.882 13.354 13.442 4.924 4.956 9.847 9.913 14.771 14.869-82.033 76.408-194.92 127.62-307.62 127.08-103.03-5.96-203.22-55.622-277.66-127.1zm277.92-849.49v661.53l-1.541-5e-3c-1.643 0-3.287 0.014-4.932 0.033l-23.619-631.79 30.092-29.764zm36.122 30.013l-28.368 631.94c-1.896-0.138-3.791-0.265-5.686-0.374l-0.772-0.045 4.955-661.51 29.871 29.989zm171.49 926.64l512.12 300.81-40.905 10.873-480.66-307.04c3.157-1.513 6.303-3.063 9.438-4.645zm1.922-0.973c3.255-1.659 6.497-3.354 9.723-5.084l492.9 260.52 10.73 40.943-513.35-296.38zm462.28 158.27l-427.51-177.7c3.547-2.161 7.068-4.366 10.565-6.611l395.61 147.36 21.334 36.95zm-25.377-43.955l-389.42-141.74c3.648-2.368 7.267-4.781 10.857-7.238l359.41 115.8 19.152 33.173zm-60.396-104.61l-290.36-64.745c3.917-3.073 7.787-6.195 11.605-9.372l264.03 48.597 14.734 25.52zm-17.574-30.44l-258.85-45.642c3.985-3.356 7.915-6.766 11.784-10.23l233.41 32.218 13.657 23.654zm-44.286-76.706l-171.97-7.719 0.146-0.137-13.05-13.132 173.51 1.3 11.367 19.688zm-13.586-23.53h-173.82l-12.064-12.139 175.09-6.546 10.788 18.685zm-35.751-61.923l-176.84 23.061c-3.425-3.261-6.888-6.475-10.394-9.634l177.68-29.96 9.546 16.533zm-11.426-19.79l-177.88 31.365c-3.375-3.007-6.782-5.97-10.229-8.878l178.88-38.482 9.236 15.995zm-31.172-53.992l-181.51 56.986c-3.185-2.372-6.393-4.705-9.626-6.998l182.53-64.892 8.605 14.904zm-10.314-17.865l-182.73 66.51c-3.11-2.186-6.243-4.334-9.394-6.444l183.66-74.731 8.466 14.665zm-29.061-50.334l-185.44 96.246c-2.896-1.727-5.804-3.423-8.726-5.087l185.9-105.48 8.269 14.321zm-9.924-17.19l-185.96 107.37c-2.824-1.594-5.66-3.156-8.506-4.691l186.2-116.99 8.266 14.316zm-28.833-49.94l-185.89 142.28c-2.631-1.267-5.272-2.505-7.919-3.722l185.37-153.19 8.447 14.631zm-10.152-17.585l-185.23 155.42c-2.572-1.171-5.152-2.315-7.738-3.438l184.38-166.84 8.579 14.86zm-30.428-52.702l-181.05 197.1c-2.421-0.933-4.845-1.852-7.275-2.743l179.14-210.27 9.189 15.915zm-11.059-19.155l-178.72 212.99c-2.377-0.864-4.758-1.708-7.143-2.531l176.37-226.89 9.491 16.436zm-34.279-59.372l-168.81 264.26c-2.272-0.685-4.547-1.353-6.824-2l164.94-280.8 10.7 18.533zm-12.898-22.341l-164.09 284.22c-2.245-0.63-4.493-1.236-6.741-1.83l159.57-301.9 11.264 19.509zm-41.574-72.007l-145.64 350.4c-2.181-0.487-4.362-0.964-6.544-1.415l138.69-372.35 13.493 23.372zm-16.298-28.23l-137.2 376.95c-2.166-0.442-4.333-0.865-6.501-1.273l129.16-400.86 14.541 25.187zm-55.17-95.556l-104.48 468.55c-2.142-0.318-4.285-0.621-6.428-0.905l92.077-500.25 18.828 32.611zm-22.8-39.492l-89.393 506.97c-2.141-0.276-4.281-0.534-6.422-0.776l74.877-542.46 20.938 36.265zm-213.54-43.954l71.565 548.78c-2.177 0.111-4.354 0.234-6.532 0.378l-86.366-512.21 21.333-36.95zm-25.378 43.955l89.098 505.3c-2.189 0.153-4.38 0.326-6.57 0.513l-101.68-472.64 19.152-33.172zm-60.396 104.61l126.5 402.94c-2.248 0.28-4.495 0.58-6.743 0.897l-134.5-378.31 14.735-25.52zm-17.574 30.44l135.97 373.59c-2.275 0.328-4.549 0.673-6.824 1.04l-142.81-350.97 13.657-23.656zm-44.287 76.707l156.24 301.04c-2.372 0.479-4.746 0.981-7.118 1.501l-160.49-282.85 11.367-19.688zm-13.585 23.529l161.27 279.32c-2.416 0.537-4.833 1.09-7.249 1.67l-164.81-262.31 10.788-18.686zm-35.751 61.923l171.36 223.89c-2.563 0.727-5.124 1.475-7.685 2.25l-173.22-209.61 9.546-16.534zm-11.426 19.79l173.54 206.82c-2.62 0.801-5.239 1.635-7.856 2.486l-174.92-193.31 9.235-15.996zm-31.172 53.992l176.74 162.35c-2.82 1.055-5.639 2.142-8.455 3.253l-176.88-150.7 8.605-14.904zm-10.315 17.866l176.87 148.41c-2.899 1.156-5.794 2.35-8.688 3.567l-176.65-137.31 8.466-14.665zm-29.06 50.334l174.86 111.7c-3.159 1.513-6.306 3.063-9.44 4.643l-173.68-102.02 8.268-14.321zm-9.925 17.19l173.42 100.12c-3.256 1.659-6.498 3.354-9.724 5.085l-171.96-90.891 8.266-14.317zm-28.832 49.939l167.48 69.611c-3.547 2.162-7.068 4.367-10.566 6.612l-165.36-61.592 8.447-14.631zm-10.152 17.584l164.91 60.022c-3.648 2.368-7.268 4.781-10.858 7.238l-162.63-52.4 8.579-14.86zm-30.429 52.704l156.68 34.937c-3.916 3.073-7.787 6.196-11.605 9.372l-154.26-28.394 9.188-15.915zm-11.059 19.154l153.8 27.118c-3.986 3.357-7.916 6.766-11.785 10.23l-151.5-20.912 9.49-16.436zm-34.278 59.372l145.48 6.53-0.142 0.132 13.05 13.136-169.09-1.267 10.699-18.531zm-12.899 22.341h173.82l12.061 12.14-197.14 7.37 11.264-19.51zm-41.573 72.007l254.14-33.142c3.425 3.261 6.889 6.476 10.395 9.633l-278.03 46.88 13.493-23.371zm-16.298 28.229l282.92-49.886c3.376 3.007 6.784 5.97 10.229 8.88l-307.69 66.193 14.542-25.187zm-55.169 95.556l372.89-117.07c3.186 2.372 6.395 4.706 9.628 6.998l-401.35 142.68 18.829-32.611zm-22.801 39.493l407.23-148.22c3.111 2.185 6.243 4.334 9.396 6.444l-437.56 178.04 20.938-36.266zm79.877 198.35l398.34-304.88c2.632 1.268 5.273 2.506 7.921 3.722l-364.42 301.16h-41.842zm49.773 0l358.05-300.44c2.572 1.171 5.152 2.315 7.738 3.439l-328.22 297h-37.562zm118.46 0l265.85-289.41c2.421 0.933 4.845 1.851 7.274 2.743l-244.23 286.67h-28.898zm34.468 0l240.1-286.15c2.377 0.864 4.758 1.709 7.144 2.53l-220.46 283.62h-26.786zm86.86 0l177.62-278.05c2.273 0.686 4.547 1.352 6.824 2l-162.15 276.05h-22.295zm26.644 0l159.15-275.66c2.245 0.631 4.492 1.237 6.741 1.83l-144.74 273.83h-21.159zm70.12 0l112.16-269.84c2.181 0.487 4.362 0.964 6.545 1.417l-99.98 268.42h-18.723zm22.409 0l97.601-268.16c2.167 0.442 4.334 0.865 6.502 1.273l-85.99 266.88h-18.113zm61.139 0l58.911-264.2c2.143 0.318 4.285 0.62 6.428 0.905l-48.462 263.3h-16.877zm20.23 0l46.397-263.13c2.142 0.277 4.282 0.535 6.422 0.776l-36.214 262.36h-16.605zm56.998 0l11.71-260.88c1.899 0.138 3.797 0.264 5.694 0.374l0.764 0.044-1.951 260.46h-16.217zm19.464 0v-260.46c0.75 3e-3 1.561 5e-3 1.565 5e-3 1.636 0 3.272-0.013 4.907-0.032l9.738 260.48h-16.21zm56.55 0l-34.035-260.99c2.177-0.111 4.354-0.234 6.532-0.378l44.071 261.37h-16.568zm19.912 0l-46.103-261.46c2.19-0.152 4.38-0.326 6.571-0.513l56.359 261.98h-16.827zm59.68 0l-82.791-263.7c2.247-0.281 4.495-0.58 6.743-0.897l94.069 264.6h-18.021zm21.69 0l-96.377-264.79c2.274-0.328 4.549-0.673 6.824-1.039l108.16 265.83h-18.612zm67.231 0l-139.59-268.95c2.372-0.479 4.746-0.981 7.119-1.501l153.46 270.45h-20.987zm25.298 0l-156.33-270.77c2.416-0.536 4.833-1.09 7.249-1.669l171.17 272.44h-22.092zm81.537 0l-212.21-277.26c2.563-0.727 5.124-1.475 7.685-2.251l230.99 279.51h-26.466zm31.967 0l-234.93-279.98c2.62-0.802 5.239-1.635 7.857-2.486l255.6 282.47h-28.521zm108.2 0l-315.15-289.5c2.82-1.055 5.639-2.143 8.455-3.254l343.62 292.75h-36.926zm44.718 0l-349.69-293.43c2.899-1.156 5.795-2.351 8.689-3.568l382.07 296.99h-41.066z" fill="none"/>
 <path d="m1566.4 1032.4c-72.989-61.686-171.54-107.82-267.02-107.26-106.75 0.62-214.3 58.489-286.99 134.9 72.989 61.687 171.54 107.82 267.02 107.26 106.75-0.619 214.31-58.487 286.99-134.9zm-277 113.96c-53.583 0-97.021-43.438-97.021-97.021 0-4.746 0.347-9.409 1.005-13.973 4.37 20.493 22.57 35.866 44.367 35.866 25.059 0 45.373-20.314 45.373-45.373s-20.314-45.373-45.373-45.373c-7.979 0-15.473 2.066-21.987 5.683 17.793-20.721 44.179-33.85 73.634-33.85 53.583 0 97.021 43.437 97.022 97.021 0 53.583-43.437 97.02-97.02 97.02z" fill="none"/>
 <path d="m2135.5 1507.5l-817.42-1473.4-25.411 14.671v-1e-3 1e-3l-25.411 14.671 8.302 13.828-867.26 1444.6 25.412 14.672 25.41 14.67 7.824-14.103 1684.7 28.774v-58.684l-16.127 0.276zm-1667.9 28.488l808.65-1457.6 857.96 1429.1-1666.6 28.466z"/>
 <path d="m1596.8 1061c-4.924-4.956-9.848-9.913-14.771-14.869-4.349-4.56-8.805-9.04-13.354-13.442-0.43-0.433-0.859-0.865-1.289-1.298-8e-3 8e-3 -0.016 0.017-0.024 0.025-74.442-71.483-174.64-121.14-277.66-127.1-112.69-0.543-225.6 50.668-307.62 127.08 4.919 4.951 9.836 9.902 14.755 14.853 4.354 4.566 8.815 9.052 13.37 13.459 0.429 0.432 0.859 0.865 1.288 1.297 8e-3 -9e-3 0.016-0.017 0.024-0.025 74.442 71.482 174.64 121.14 277.66 127.1 112.7 0.544 225.59-50.672 307.62-127.08zm-584.37-0.987c72.687-76.41 180.24-134.28 286.99-134.9 95.484-0.554 194.03 45.578 267.02 107.26-72.685 76.411-180.24 134.28-286.99 134.9-95.484 0.555-194.03-45.577-267.02-107.26z"/>
 <path d="m1289.4 952.34c-29.455 0-55.841 13.129-73.634 33.85 6.514-3.617 14.008-5.683 21.987-5.683 25.059 0 45.373 20.314 45.373 45.373s-20.314 45.373-45.373 45.373c-21.797 0-39.997-15.372-44.367-35.866-0.659 4.564-1.005 9.227-1.005 13.973 0 53.582 43.437 97.021 97.021 97.021 53.583 0 97.021-43.437 97.021-97.021-3e-3 -53.583-43.44-97.02-97.023-97.02z"/>
 <path d="m1195.4 883.37l-161.27-279.32-10.788 18.686 164.81 262.31c2.416-0.58 4.833-1.133 7.249-1.67z"/>
 <path d="m1203.9 881.56l-156.24-301.04-11.367 19.688 160.49 282.85c2.372-0.52 4.745-1.022 7.118-1.501z"/>
 <path d="m1169.7 889.87l-171.36-223.89-9.545 16.533 173.22 209.61c2.561-0.774 5.122-1.523 7.685-2.249z"/>
 <path d="m1259 874.07l-89.098-505.3-19.152 33.172 101.68 472.64c2.19-0.187 4.381-0.359 6.57-0.513z"/>
 <path d="m1160.5 892.59l-173.54-206.82-9.235 15.995 174.92 193.31c2.618-0.85 5.236-1.684 7.856-2.485z"/>
 <path d="m1266.9 873.6l-71.565-548.78-21.333 36.95 86.366 512.21c2.178-0.145 4.355-0.267 6.532-0.378z"/>
 <path d="m1236 876.31l-126.5-402.94-14.734 25.521 134.5 378.31c2.247-0.318 4.494-0.618 6.742-0.898z"/>
 <path d="m1227.9 877.4l-135.97-373.59-13.657 23.655 142.81 350.97c2.274-0.366 4.549-0.711 6.824-1.039z"/>
 <path d="m1032.4 952.69l-164.91-60.022-8.579 14.86 162.63 52.4c3.589-2.457 7.209-4.871 10.858-7.238z"/>
 <path d="m1287.8 873.05l1.541 5e-3v-661.53l-30.093 29.764 23.619 631.79c1.647-0.018 3.291-0.032 4.933-0.032z"/>
 <path d="m993.71 980.31l-156.68-34.936-9.188 15.914 154.26 28.394c3.818-3.176 7.69-6.298 11.605-9.372z"/>
 <path d="m1045.1 944.7l-167.48-69.611-8.448 14.632 165.36 61.592c3.499-2.247 7.02-4.452 10.567-6.613z"/>
 <path d="m979.77 991.64l-153.8-27.118-9.49 16.437 151.5 20.912c3.868-3.466 7.799-6.875 11.785-10.231z"/>
 <path d="m1122.3 906.03l-176.87-148.41-8.467 14.665 176.65 137.31c2.894-1.217 5.789-2.411 8.688-3.567z"/>
 <path d="m1132.5 902.1l-176.74-162.35-8.605 14.904 176.88 150.7c2.817-1.112 5.635-2.198 8.456-3.253z"/>
 <path d="m1079.9 925.27l-173.42-100.12-8.266 14.317 171.96 90.891c3.227-1.731 6.468-3.426 9.724-5.085z"/>
 <path d="m1091.2 919.65l-174.86-111.7-8.268 14.321 173.68 102.02c3.134-1.58 6.281-3.13 9.44-4.643z"/>
 <path d="m1380.6 888.27l164.09-284.22-11.264-19.51-159.57 301.9c2.249 0.595 4.496 1.201 6.741 1.831z"/>
 <path d="m1486.4 932.51l185.96-107.37-8.266-14.316-186.2 116.99c2.846 1.536 5.682 3.097 8.506 4.691z"/>
 <path d="m1528.6 959.18l182.73-66.51-8.467-14.665-183.66 74.731c3.152 2.11 6.284 4.258 9.395 6.444z"/>
 <path d="m1496.8 938.58l185.44-96.246-8.269-14.321-185.9 105.48c2.921 1.664 5.83 3.36 8.726 5.087z"/>
 <path d="m1457.6 917.49l185.89-142.28-8.447-14.631-185.37 153.19c2.647 1.216 5.288 2.455 7.919 3.722z"/>
 <path d="m1448.1 913.04l185.23-155.42-8.579-14.859-184.38 166.84c2.586 1.123 5.166 2.267 7.738 3.437z"/>
 <path d="m1587.4 1007.4l176.84-23.061-9.545-16.533-177.68 29.96c3.505 3.158 6.968 6.373 10.393 9.634z"/>
 <path d="m1291.5 873.11c1.895 0.109 3.79 0.236 5.686 0.374l28.368-631.94-29.87-29.989-4.955 661.51 0.771 0.045z"/>
 <path d="m1574.9 995.89l177.88-31.365-9.235-15.995-178.88 38.482c3.446 2.908 6.853 5.871 10.228 8.878z"/>
 <path d="m1540.1 967.52l181.51-56.986-8.605-14.904-182.53 64.892c3.233 2.293 6.441 4.626 9.626 6.998z"/>
 <polygon points="1626.2 1046.2 1800 1046.2 1789.2 1027.6 1614.1 1034.1"/>
 <path d="m1349.6 880.76l137.2-376.95-14.541-25.187-129.16 400.86c2.168 0.409 4.336 0.832 6.501 1.274z"/>
 <path d="m1327.2 876.8l104.48-468.55-18.828-32.61-92.077 500.25c2.143 0.282 4.285 0.586 6.428 0.904z"/>
 <path d="m1319.5 875.74l89.393-506.97-20.938-36.265-74.877 542.46c2.14 0.242 4.281 0.5 6.422 0.776z"/>
 <path d="m1357.5 882.44l145.64-350.4-13.494-23.372-138.69 372.35c2.184 0.451 4.364 0.927 6.545 1.415z"/>
 <path d="m1421.9 902.02l181.05-197.1-9.188-15.915-179.14 210.27c2.429 0.891 4.853 1.809 7.274 2.743z"/>
 <polygon points="937.03 1030.6 937.18 1030.4 791.69 1023.9 780.99 1042.4 950.08 1043.7"/>
 <path d="m1413.1 898.75l178.72-212.99-9.49-16.437-176.37 226.89c2.385 0.824 4.766 1.669 7.143 2.532z"/>
 <path d="m1388.8 890.66l168.81-264.26-10.7-18.533-164.94 280.8c2.277 0.647 4.552 1.314 6.824 2z"/>
 <path d="m1121.2 1175l-398.34 304.88h41.842l364.42-301.16c-2.648-1.217-5.29-2.454-7.921-3.722z"/>
 <path d="m1409.1 1202.6l212.21 277.26h26.467l-230.99-279.51c-2.562 0.775-5.123 1.523-7.686 2.25z"/>
 <path d="m1383.4 1209.1l156.33 270.77h22.092l-171.17-272.44c-2.416 0.579-4.832 1.133-7.249 1.669z"/>
 <path d="m1374.9 1210.9l139.59 268.95h20.986l-153.46-270.45c-2.373 0.519-4.746 1.022-7.118 1.501z"/>
 <path d="m1446.3 1190.4l315.15 289.5h36.927l-343.62-292.75c-2.818 1.111-5.636 2.199-8.456 3.254z"/>
 <path d="m1418.3 1199.9l234.93 279.98h28.521l-255.6-282.47c-2.618 0.852-5.237 1.686-7.857 2.487z"/>
 <path d="m1319.7 1218.4l46.103 261.46h16.827l-56.359-261.98c-2.192 0.189-4.381 0.362-6.571 0.514z"/>
 <path d="m1350.8 1215.1l96.377 264.79h18.612l-108.16-265.83c-2.274 0.365-4.55 0.71-6.824 1.039z"/>
 <path d="m1311.9 1218.9l34.035 260.99h16.568l-44.071-261.37c-2.178 0.146-4.355 0.268-6.532 0.379z"/>
 <path d="m1342.7 1216.2l82.791 263.7h18.02l-94.069-264.6c-2.247 0.317-4.495 0.616-6.742 0.897z"/>
 <path d="m1585.1 1112.2l290.36 64.745-14.734-25.52-264.03-48.597c-3.818 3.177-7.688 6.299-11.605 9.372z"/>
 <path d="m1599 1100.8l258.85 45.642-13.657-23.655-233.41-32.218c-3.868 3.466-7.798 6.876-11.784 10.231z"/>
 <path d="m1456.5 1186.4l349.69 293.43h41.067l-382.07-296.99c-2.895 1.217-5.791 2.411-8.69 3.568z"/>
 <path d="m1546.4 1139.8l389.42 141.74-19.152-33.172-359.41-115.8c-3.59 2.456-7.209 4.87-10.857 7.237z"/>
 <polygon points="1641.7 1061.9 1641.6 1062 1813.6 1069.8 1802.2 1050.1 1628.7 1048.8"/>
 <path d="m2009.1 1469l-512.12-300.81c-3.135 1.582-6.28 3.132-9.439 4.644l480.66 307.04 40.906-10.872z"/>
 <path d="m1508.6 1162.1c-3.226 1.731-6.468 3.425-9.723 5.084l513.35 296.38-10.73-40.943-492.9-260.52z"/>
 <path d="m1533.7 1147.8l427.51 177.7-21.333-36.95-395.61-147.36c-3.498 2.244-7.019 4.45-10.566 6.611z"/>
 <path d="m1190 1201.8l-177.62 278.05h22.294l162.15-276.05c-2.276-0.648-4.551-1.314-6.823-2z"/>
 <path d="m1156.9 1190.5l-265.85 289.41h28.898l244.23-286.67c-2.429-0.89-4.853-1.809-7.274-2.742z"/>
 <path d="m1082 1153.9l-507.51 263.4-11.036 40.862 527.28-299.18c-2.921-1.666-5.832-3.361-8.727-5.088z"/>
 <path d="m1092.4 1160l-525.89 303.62 40.824 11.179 493.58-310.11c-2.848-1.534-5.685-3.096-8.508-4.69z"/>
 <path d="m1130.7 1179.4l-358.05 300.44h37.563l328.22-297c-2.586-1.123-5.166-2.267-7.739-3.438z"/>
 <path d="m1050.2 1133.3l-407.23 148.22-20.938 36.266 437.56-178.04c-3.152-2.11-6.283-4.259-9.395-6.444z"/>
 <path d="m991.37 1085.1l-254.14 33.142-13.494 23.371 278.03-46.88c-3.505-3.157-6.969-6.372-10.394-9.633z"/>
 <path d="m1003.8 1096.6l-282.92 49.886-14.542 25.187 307.69-66.193c-3.445-2.91-6.853-5.873-10.229-8.88z"/>
 <path d="m1038.6 1125l-372.89 117.07-18.828 32.611 401.35-142.68c-3.234-2.292-6.443-4.626-9.629-6.998z"/>
 <path d="m1251.6 1215.7l-58.911 264.2h16.877l48.462-263.3c-2.142-0.284-4.285-0.586-6.428-0.904z"/>
 <path d="m1259.3 1216.7l-46.397 263.13h16.606l36.214-262.36c-2.141-0.241-4.281-0.5-6.423-0.776z"/>
 <path d="m1291 1219.4c-4e-3 0-0.816-2e-3 -1.565-5e-3v260.46h16.211l-9.738-260.48c-1.636 0.02-3.272 0.033-4.908 0.033z"/>
 <path d="m1165.6 1193.7l-240.1 286.15h26.786l220.46-283.62c-2.386-0.822-4.767-1.667-7.144-2.53z"/>
 <path d="m1229.2 1211.7l-97.601 268.16h18.113l85.99-266.88c-2.168-0.407-4.334-0.83-6.502-1.273z"/>
 <path d="m1287.3 1219.4c-1.897-0.11-3.795-0.236-5.694-0.374l-11.71 260.88h16.217l1.951-260.46-0.764-0.044z"/>
 <polygon points="952.61 1046.2 778.79 1046.2 767.53 1065.7 964.67 1058.4"/>
 <path d="m1221.3 1210l-112.16 269.84h18.722l99.98-268.42c-2.182-0.453-4.363-0.93-6.544-1.417z"/>
 <path d="m1198.2 1204.2l-159.15 275.66h21.159l144.74-273.83c-2.249-0.595-4.496-1.2-6.741-1.831z"/>
</svg>
