<?xml version="1.0" encoding="UTF-8"?>
<!DOCTYPE svg  PUBLIC '-//W3C//DTD SVG 1.1//EN'  'http://www.w3.org/Graphics/SVG/1.1/DTD/svg11.dtd'>
<svg enable-background="new -32 -21 2070 1762" version="1.1" viewBox="-32 -21 2070 1762" xml:space="preserve" xmlns="http://www.w3.org/2000/svg">
<g stroke="#000" stroke-width=".0938">
	<path d="m368.47 8.49c3.91-5.05 10.34-7.69 16.67-7.37-4.36 0.97-8.71 2.83-11.49 6.49-5.58 6.45-5.32 16.94 0.56 23.11 4.97 5.78 13.81 7.45 20.66 4.24 3.36-1.44 5.72-4.31 8.15-6.92-2.73 7.15-9.43 12-16.87 13.22 0.04 4.42 0.02 8.84 0.03 13.26 1.94 1.41 4.42 2.76 4.83 5.37 0.81 2.68-0.95 5.04-2.3 7.16-0.06 4.33-0.15 8.67-0.06 13-0.22 3.5 3.94 5.4 3.77 8.96 0.41 3.5-2.21 6.12-4.69 8.14 0.19 2.2 0.4 4.4 0.62 6.6 2.49 1.86 5.21 3.98 5.8 7.24 1.1 3.5-0.72 6.87-2.45 9.8 4.74 14.42 7.28 29.44 9.72 44.39 3.67 23.85 6.16 47.87 8.04 71.93 0.18 1.14 0.06 2.45 0.76 3.45 4.9 6.26 12.69 10.6 15.23 18.48-0.21 3.77-4.44 5.23-7.22 6.88 0.59 8.17 0.22 16.48 1.38 24.58 9.07 9.23 18.58 18.29 25.6 29.27 2.26 3.57 4.47 8.27 1.91 12.29-4.57 6.96-13.04 9.79-20.61 12.19 0.01 22.31 0.4 44.63 0.5 66.94 7.18 0.03 14.35-0.01 21.53 0.03 0.23 8.33 0.38 16.67 0.74 25.01 6.72 2.84 12.55 8.47 14.2 15.74 1.61 7.58-0.35 15.72-4.8 22.01-7.63 10.82-20.13 17.25-26.93 28.73-3.34 5.46-4.61 11.91-4.41 18.25-0.1 162.76-0.04 325.52 0.07 488.27 3.74-0.02 7.47-0.06 11.21-0.18-0.06 6.04 0.05 12.08 0.04 18.13 4.32 1.6399 10.36 2.1599 12.56 6.7799-1.64 11.43-13.87 18.36-14.97 30.03 2.53 102 5.12 204 7.68 306.01 1.05 38.94 1.82 77.91 3.04 116.84 2.08 0.1901 4.17 0.17 6.26 0.23 0.05-37.36-0.07-74.71-0.06-112.06-0.04-5.35-0.34-10.92 1.92-15.92 4.48-10.45 13.86-17.87 23.57-23.26-1.06-0.7899-2.74-1.2-2.93-2.72 0.26-1.1899 0.65-2.29 1.01-3.41-2-1.97-1.99-4.5699-0.15-6.61-2.86-0.72-5.86-1.5599-7.95-3.75-3.83-3.71-4.66-10-1.9-14.56 1.32-2.6 4.04-3.89 6.13-5.73-8.47-36.12-2.23-76.15 19.45-106.6 8.96-12.66 20.86-23.17 34.43-30.67 19.88-11.23 41.5-18.96 63.27-25.65 1.86-0.3101 2.44-2.24 3.48-3.53 0.11-1.97-0.27-4.2999 1.38-5.73 1.51-1.5 2.67-3.24 2.8-5.41-0.74-2.13-1.54-4.25-1.88-6.47 1.9-2.73 2.81-5.8 2.47-9.14-1.34-4.51 1.44-8.85 0.79-13.42-3.44-0.9901-6.99-2.3501-9.2-5.3101-4.81-5.58-3.94-14.9 1.83-19.48 3.12-2.9 7.5-3.47 11.59-3.51-4.45 1.35-9.4 3.22-11.29 7.88-3.62 6.98 1.34 16.33 9.08 17.4 4.57 1.08 8.7-1.53 12.17-4.1801-2.93 4.36-7.7 6.91-12.89 7.4301 0.12 5.48 1.83 10.79 1.5 16.31-0.34 2.26 1.08 4.1 1.79 6.12-0.63 3.13-1.6 6.2201-1.59 9.4601 3.75 2.4199 3.56 7.0299 4.51 10.91 20.56 6.61 40.83 14.56 59.57 25.38 13.44 7.66 25.48 17.91 34.58 30.47 22.45 30.54 29.02 71.21 20.35 107.8 2.59 2.33 5.98 4.25 6.87 7.91 2.65 6.91-2.91 15.92-10.62 15.37 0.93 0.88 1.95 1.67 2.82 2.67 0.99 1.8899-0.91 3.4099-1.85 4.8199 0.6 0.9 1.21 1.8099 1.83 2.74 14.63-0.04 29.26-0.04 43.89 0.01-5.69-2.4301-10.87-6.23-14.26-11.46-6.43-9.4-6.72-22.52-0.66-32.16 3.06-5.1901 7.88-9.0601 13.19-11.77-10.47-11.84-20.65-23.99-29.17-37.34-11.86-18.23-20.74-38.58-24.57-60.05-3.09-17.07-3.59-34.58-2.09-51.84 1.85-19.92 7.26-39.74 17.43-57.07 9.92-17.66 24.33-32.39 40.06-44.98 29.43-23.26 63.11-40.38 92.88-63.17 22.34-17.03 42.23-38.13 54.38-63.69-1.73-0.86-4.19-1.19-4.85-3.3-0.72-1.76 0.5-3.45 1.0099-5.06-5.21-3.41-8.78-9.45-8.13-15.79 0.38-7.75 6.89-14.26 14.47-15.32-1.18-1.62-2.69-3.35-2.2-5.51 0.04-2.14 2.05-3.31 3.41-4.64 0.1-21.44 0.02-42.88 0.04-64.32-12.85-0.37-25.53-5.4-34.94-14.18-10.59-9.66-17.1-23.66-17.43-38-0.6-15.85 6.31-31.77 18.33-42.12 13.14-11.66 32.25-16.29 49.2-11.49-11.61-1.07-23.57 1.82-33.17 8.48-13.14 8.85-21.53 24.28-21.75 40.12-0.44 15.79 7.25 31.5 19.93 40.89 10.16 7.75 23.39 11.19 36.06 9.6 8.53-0.94 16.6-4.44 23.6-9.33-9.75 9.97-23.42 15.71-37.32 16.11 0.06 21.39-0.01 42.79 0.03 64.18 1.29 1.33 3.25 2.44 3.42 4.5 0.52 2.21-0.91 4.07-2.08 5.77 7.58 1.53 13.87 8.37 13.8 16.27 0.28 5.61-2.9 10.61-7.07 14.08 1.48 1.61 3.56 3.61 2.29 6.02-1.06 2.72-4.36 2.45-6.7 2.78 12.65 31.43 38.34 55.38 65.92 73.98 30.9 21.55 64.93 38.86 92.93 64.38 13.17 12.04 24.72 26.06 32.75 42.06 9.28 18.15 13.86 38.43 14.86 58.71 0.88 20.49-0.35 41.32-6.14 61.08-8.74 30.14-28.48 55.53-49.93 77.81 5.45 2.73 10.51 6.55 13.7 11.85 5.91 9.14 6.05 21.56 0.5 30.9-3.47 6.0701-9.1799 10.69-15.71 13.1 16.87-0.23 33.74-0.09 50.62-0.0699 0.64-0.99 1.3099-1.9501 1.99-2.89-2.62-1.62-2.51-4.45-0.8199-6.6899-5.67-0.8401-10.96-5.16-11.29-11.16-0.74-5.61 3.1899-10.35 7.9199-12.75-9.1599-37.64-1.7799-79.81 22.2-110.61 9.63-12.5 22.39-22.3 36.4-29.45 19.12-10.03 39.55-17.34 60.21-23.47 0.45-1.05 0.92-2.09 1.42-3.11-0.15-3.36 1.2-6.4401 4.22-8.0701 0.04-3.5-1.41-6.7699-1.64-10.2 0.66-1.04 1.53-1.9299 2.38-2.8199 0.0599-4.1801-0.99-8.4401 0.24-12.52 0.51-2.12 0.48-4.3101 0.53-6.4601-4.49-1.11-8.89-3.62-10.88-7.98-3.1801-6.1599-0.84-14.35 5.0499-17.96 3.3301-2.3199 7.53-2.25 11.42-2.3199-4.86 0.84-10.27 2.58-12.44 7.47-3.8301 6.86 0.7899 16.4 8.5299 17.7 4.9501 1.24 9.62-1.48 12.98-4.9-2.8601 4.67-7.6801 7.8201-13.22 8.0801-0.0499 6.4 2.2101 12.59 1.37 19.04 3.3501 3.29 0.36 7.52 0.1901 11.43 0.01 0.39 0.02 1.1801 0.02 1.5699 3.89 2.41 3.5 7.1901 4.7799 11.06 20.2 6.3 39.99 14.25 58.43 24.7 14.15 7.91 26.75 18.7 36.16 31.94 21.89 30.43 28.29 70.64 19.65 106.85 1.9701 1.83 4.51 3.1801 5.8601 5.62 2.5 4.1801 2.08 9.86-1.01 13.63-1.7101 2.26-4.48 3.1801-6.87 4.49 0.39 1.34 1.0299 2.65 1.33 4.0601-0.49 1.09-1.45 1.87-2.1899 2.7899 0.6699 1.29 1.9299 2.66 1.24 4.26-0.89 0.6801-1.79 1.3301-2.7101 1.9501 8.89 4.96 17.58 11.24 22.71 20.27 2.4299 4.17 3.5 9 3.3899 13.82-0.1599 32.99 0 65.99-0.1299 98.99 4.2899-0.01 8.58 0 12.89-0.01 3.24-133.99 6.51-267.98 9.6801-401.97-0.05-3.3101 0.66-6.8101-0.7-9.9401-3.9401-8.6699-9.9901-16.3-13.35-25.23-1.0299-2.0699 0.9701-3.8099 2.77-4.36 4.41-1.54 9.16-1.04 13.75-1.1 0.09-5.64 0.04-11.27 0.15-16.89 2.67-0.46 5.36-0.93 8.0601-1.38 1.8099-157.37 3.3899-314.74 5.1899-472.11 0.87-10.41-0.91-20.99-4.89-30.63-2.98-7.04-7.85-13.75-15.01-16.93-9.8199-3.56-16.35-12.77-20.1-22.12-2.29-5.2-0.16-10.89 2.22-15.63 3.38-6.57 9.91-10.89 16.88-12.88 0.1-8.29 0.25-16.57 0.36-24.86 7.27 0.27 14.54 0.16 21.82 0.51 0.2-23.03 0.23-46.06 0.38-69.09-7-1.65-14.93-2.94-19.96-8.58-3.08-3.31-2.58-8.41-0.3199-12.03 8.04-13.49 19.3-24.88 32.09-33.9 0.49-7.72 0.11-15.49 0.14-23.22-3.25-0.43-8.65-1.21-8.1799-5.63 3.46-8.19 11.23-13.46 16.24-20.5 2.4299-23.88 5.0199-47.8 9.63-71.39 3.35-16.03 7.0199-32 11.03-47.88-2.11-2.59-4.09-5.72-3.4099-9.22 0.2999-3.76 3.26-6.4 6.22-8.34 0.33-2.04 0.66-4.08 1.04-6.12-3.05-2.2-6.16-5.43-5.2201-9.55 0.2201-3.8 5.41-4.98 4.98-8.93 0.2001-3.67 0.6901-7.36 0.4601-11.04-1.79-2.09-4.54-3.97-4.03-7.13 0.01-3.19 2.8199-5.12 5.35-6.45 0.11-4.36 0.0701-8.72 0.0601-13.07-5.66-0.84-11.41-3.09-14.96-7.77-5.83-7.06-5.8199-18.17 0.15-25.14 3.91-5.04 10.32-7.7 16.65-7.36-4.37 0.95-8.71 2.84-11.48 6.5-5.41 6.27-5.35 16.39 0.14 22.6 4.71 5.9 13.36 7.93 20.31 5.06 3.73-1.35 6.3301-4.47 9-7.26-2.85 7.11-9.46 12.02-16.95 13.23 0.04 4.42 0.02 8.84 0.0499 13.27 1.9301 1.41 4.42 2.77 4.8301 5.39 0.78 2.68-0.98 5.03-2.3201 7.15 0.03 4.94-0.35 9.9 0.14 14.82 1.41 2.57 4.02 4.85 3.5701 8.08 0 3.15-2.51 5.29-4.67 7.17 0.17 2.2 0.38 4.39 0.61 6.59 2.49 1.89 5.23 4.02 5.8101 7.31 1.0699 3.48-0.74 6.81-2.4601 9.71 5.9801 18.62 8.8201 38.05 11.6 57.35 2.7899 20.64 4.8199 41.38 6.4299 62.15 4.99 5.61 11.44 10.11 15.06 16.82 2.46 4.55-3.36 7.15-6.5601 8.85 0.39 7.71 0.53 15.45 1.04 23.16-0.1 1.28 0.89 2.13 1.71 2.96 7.84 7.49 15.37 15.37 21.81 24.11 2.2899 3.33 4.75 6.79 5.47 10.86 0.39 3.78-2.12 7.09-4.91 9.34-4.9399 3.85-10.88 6.15-16.84 7.9 0.01 22.32 0.39 44.63 0.5 66.94 7.1799 0.03 14.35-0.02 21.54 0.04 0.22 8.33 0.37 16.67 0.73 25.01 6.5499 2.76 12.25 8.17 14.07 15.2 1.9401 8.13-0.35 16.94-5.37 23.52-6.86 9.08-16.91 15.11-23.82 24.14-4.35 5.63-6.88 12.67-6.8 19.81-0.2 163.41 0.0601 326.82-0.03 490.23 3.75 0.08 7.52 0.05 11.29-0.08-0.0599 6.03 0.04 12.07 0.05 18.12 4.2899 1.63 10.34 2.1699 12.52 6.75-0.6 6.8999-6.0099 12.01-9.58 17.59-2.3199 3.83-5.2 7.8099-5.36 12.45 3.33 134.99 6.84 269.98 10.13 404.97 14.75 0.0901 29.51 0.1101 44.27-0.0099 0.0599-19.03 0.62-38.06 0.58-57.08-1.64-2.41-4.02-4.24-5.41-6.8099-3.84-6.5701-4.22-14.43-3.6799-21.82 3.45-0.03 6.9-0.03 10.37-0.02 0.76-31.09 1.42-62.17 2.16-93.26 0.2899-3.3799-2.5-5.8099-3.88-8.61-9.41-16.81-11.81-36.77-9.65-55.71 1.24-0.02 2.49-0.02 3.77-0.01-0.02 3.33-0.05 6.7001 0.61 10 1.7-3.0599 0.8199-6.7 1.02-10.01 1.58-0.01 3.1799-0.01 4.7999 0.02-0.02 3.28-0.0699 6.58 0.35 9.86 2.17-2.79 0.9601-6.6 1.26-9.83 1.8101-0.0601 3.65-0.1 5.49-0.14-0.1499-25.2 0.15-50.41-0.1399-75.61-2.29-4.3301-5.74-8.03-7.5-12.68-5.8301-12.69-6.9501-27.05-5.29-40.79 5.11-0.05 10.22-0.01 15.34-0.0701-0.48-17.78 1.4-35.8-2.48-53.31-0.51-2.28-2.3-3.9-3.59-5.7101-4.3101-5.49-7.12-12.3-7.13-19.33-0.03-9.02 0.01-18.03 0-27.05 1.96 0.02 3.9299 0.06 5.9199 0.11-0.0599 4.42-0.0499 8.85-0.0399 13.28 0.99 0.02 2.01 0.06 3.0399 0.11 0.02-4.4901 0.01-8.98 0.02-13.46 2.24-0.01 4.49-0.01 6.76 0 0 4.59 0.01 9.19-0.02 13.79 1.01-0.03 2.05-0.04 3.11-0.04-0.0499-4.59-0.0399-9.17-0.0199-13.75 2.1699-0.01 4.37-0.01 6.58 0-0.0601-5.68 0.09-11.36-0.02-17.04-0.14-5.21-3.2999-10-7.86-12.44 1.67-1.78 3.59-3.3 5.6901-4.55-5.6101-3.18-10.1-9.18-9.2201-15.91 1-8.9 9.3101-14.34 16.73-17.86-0.21-1.77-0.5199-3.53-0.4099-5.29 0.5299-3.97 3.5699-7.04 4.35-10.93-1.52-3.69-2.4401-8.54 1.83-10.78-0.61-4.13-6.14-5.65-5.6799-10.2 1.02-5.37 5.61-9.44 6.2-14.99-0.53-4.04-2.25-7.86-2.34-11.97-0.37-5.37 1.23-10.63 3.59-15.39-0.36-1.13-0.72-2.27-1.04-3.38-3.7699-1.56-7.34-4.93-6.73-9.37 0.15-4.37 4.0601-7.04 7.9-8.11-2.13 1.77-4.98 3.27-5.5 6.25-1.15 4.26 2.1901 8.91 6.5601 9.28 2.74 0.48 5.0199-1.35 7.1699-2.76-1.6599 1.96-3.6799 3.54-5.97 4.68-0.38 1.12-0.71 2.27-1.05 3.41 3.9401 7.16 4.74 15.84 2.05 23.58-2.87 7 4.27 12.34 5.4399 18.76 0.41 4.51-5 6.12-5.7699 10.16 1.11 1.15 2.83 2.06 3.1699 3.8 1.02 3.22-2.5299 6.33-0.51 9.42 2.3 4.24 4.78 8.83 3.1801 13.82 7.45 3.53 15.72 8.98 16.76 17.91 0.85 6.72-3.66 12.67-9.23 15.86 2.0499 1.28 3.96 2.79 5.6699 4.52-4.5299 2.49-7.73 7.24-7.83 12.47-0.11 5.67 0.04 11.35-0.02 17.04 2.1801 0 4.36 0 6.58 0.01 0.02 4.57 0.03 9.14-0.0199 13.71 1 0.03 2.0299 0.08 3.08 0.14 0.01-4.63 0-9.2599 0.02-13.88 2.25 0.02 4.52 0.05 6.8099 0.11-0.08 4.41-0.0599 8.83-0.0499 13.25 0.99 0.04 2 0.09 3.03 0.15 0.0299-4.5 0.0199-8.99 0.0299-13.48 1.9401-0.01 3.9-0.01 5.87 0-0.01 8.99 0.04 17.99 0 26.98-0.02 7.0701-2.85 13.91-7.1899 19.42-1.4 1.89-3.25 3.61-3.63 6.0399-3.7001 17.43-2.04 35.34-2.25 53.01 5.04-0.08 10.1-0.0599 15.16-0.0399 1.63 12.98 0.71 26.48-4.3201 38.66-1.95 5.39-5.5499 9.9-8.46 14.75-0.3101 25.22 0 50.45-0.15 75.68 1.8101 0.05 3.62 0.09 5.47 0.16-0.02 3.2899-0.0599 6.61 0.4601 9.89 2-2.8401 0.76-6.53 1.2999-9.7301 1.54-0.25 3.12-0.2899 4.72-0.37 0.01 3.05 0.01 6.1101 0.03 9.17l1.52-0.05c-0.02-2.99-0.02-5.97-0.01-8.95 1.26-0.02 2.54-0.02 3.85 0 2.0601 18.95-0.1799 38.94-9.6599 55.75-1.39 2.8-4.2201 5.1901-3.88 8.5699 0.6499 27.69 1.2799 55.38 1.9099 83.07 0.1001 3.35-0.0599 6.73 0.42 10.07 3.38 0.25 6.78 0.1001 10.19 0.12 1.01 10.01-0.72 21.57-9.1299 28.15 0.11 19.1 0.46 38.2 0.6599 57.3 6.61-3.12 13.7-5.17 20.97-5.9501-0.45-1.95-0.8199-3.8899-1.2599-5.8099 0.1699-0.6901 0.36-1.37 0.59-2.01-4.46-0.8199-8.0701-5.34-6.41-9.89 0.61-2.86 5.27-3.83 4.0701-7.0699-3.9401-18.02-1.66-37.37 6.46-53.94 5.48-11.17 13.97-20.96 24.68-27.39 9.54-5.87 20.1-9.75 30.52-13.71 4.0701-1.5699 8.4301-2.35 12.38-4.25 0.8101-2.47 1.41-5.1 3.4401-6.91-0.3-1.97-0.67-3.9099-1.11-5.83 0.37-0.49 1.11-1.48 1.49-1.97-0.2101-3.8401 0.09-7.66 0.6899-11.44-4.21-1.27-8.25-4.73-7.75-9.52 0.11-5.3999 5.63-8.9399 10.69-8.0599-2.9501 0.5699-6.2101 1.6699-7.4801 4.66-1.84 3.71-0.0199 8.5699 3.8101 10.17 2.98 1.6901 6.25 0.02 9.03-1.26-2.11 2.0601-4.7101 3.47-7.61 4.02 0.49 3.79 0.85 7.59 1.11 11.42 1.24 2.51 0.21 5.24-0.0601 7.86 1.76 1.95 2.38 4.47 2.8201 7.02 14 4.74 27.98 10 40.47 18.05 11.65 7.27 20.6 18.46 25.97 31.03 7.05 16.35 8.36 34.95 4.3101 52.24 1.8999 1.52 4.2 3.16 4.52 5.8101 0.8799 4-2.13 8-6.1101 8.62 1.77 2.59 0.2301 5.62-0.2699 8.39 8.6499 1.9199 17.17 4.63 25.18 8.4399 3.4301 1.59 6.48 3.88 9.23 6.49-0.0699-9.5599 0.24-19.11 0.25-28.67-4.88-3.6599-8.72-8.6299-10.99-14.29-4.02-9.53-4.48-20.13-3.51-30.3 5.4501 0 10.89-0.03 16.35 0.04 1.2401-47.58 2.2001-95.16 3.3501-142.73-0.2201-3.4701 0.9399-7.28-0.5601-10.51-19.42-28.13-24.73-63.96-20.77-97.4 1.9701-0.01 3.9701-0.01 5.98 0 0 4.92-0.0299 9.84 0.03 14.77 0.5901-0.1901 1.76-0.5701 2.35-0.76 0.5-4.65 0.0801-9.35 0.2101-14.01 2.53-0.01 5.08-0.01 7.65 0-0.01 4.8101-0.04 9.63 0.0399 14.45 0.61 0 1.8401 0 2.4501-0.01 0.0399-4.8199 0.0299-9.6299 0.0399-14.44 2.89-0.01 5.78-0.01 8.7001 0 0.02-40.39-0.03-80.78 0.02-121.17-19.26-23.19-24.61-55.22-20.42-84.45 8.05 0.04 16.1 0.02 24.16 0.01 0.01-14.46 0-28.92 0.01-43.38 0.2999-14.72-1.17-29.53-4.5701-43.84-3.39-4.85-7.6899-9.13-10.25-14.57-4.39-7.77-6.51-16.72-6.1899-25.63 0.0399-13.4-0.0601-26.8 0.0499-40.19 3.12 0.0099 6.26 0.0099 9.4-0.01 0.05 7.18-0.01 14.36 0.05 21.54 1.58-0.12 3.21-0.22 4.84-0.34-0.08-7.06-0.04-14.11-0.03-21.16 3.5701-0.02 7.15-0.02 10.75-0.01 0 7.33 0.01 14.65-0.01 21.98 1.5801 0 3.1801 0.0099 4.8101 0.04 0.0499-7.34 0.02-14.67 0.03-22.01 3.5-0.01 7.0199-0.02 10.55-0.04-0.0599-8.93-0.01-17.86 0-26.78 0.0701-4.71-2.11-9.1-4.45-13.05-1.75-3.18-5.3-4.45-7.88-6.76 1.84-3.64 5.7899-5.31 9.02-7.48-5.38-3.04-10.37-7.27-12.91-13.02-3.1901-6.97-2.8-15.48 1.27-22.01 5.3199-8.82 14.41-14.53 23.63-18.61-0.7201-3.01-1.4701-6.13-0.86-9.22 1.09-6.13 5.96-10.8 7.0499-16.92-0.38-3.07-3.3099-5.58-2.52-8.91 0-3.23 2.12-5.78 4.8401-7.26-0.03-1.4-0.04-2.78-0.03-4.16-4-2.75-8.12-6.44-8.61-11.57-0.3101-5.07 3.4199-9.04 5.51-13.33 2.4099-4.78 5.6799-10.19 3.71-15.7-2.14-6.46-3.5699-13.25-3.04-20.09 0.35-7.02 2.86-13.69 5.99-19.9-1.2999-1.45-1.7999-3.23-1.6599-5.14-5.92-1.45-11.01-6.56-11.09-12.87-0.5-7.71 6.55-14.64 14.29-13.86-4.4399 0.73-8.6 3.49-9.98 7.92-2.83 7.02 2.64 15.6 10.18 16.08 4.3101 0.69 8.0901-1.85 11.08-4.67-2.15 3.7-5.66 6.2599-9.76 7.38 0.41 1.95-0.26 3.71-1.48 5.22 5.0499 9.42 7.46 20.43 5.2899 31.03-0.62 4.42-2.86 8.52-3.0399 13 1 7.75 6.34 13.91 9.33 20.91 2.37 6.52-3.01 12.31-8.05 15.62-0.0399 1.32-0.0599 2.66-0.0399 4 2.58 1.67 4.86 4.1 4.84 7.4 0.6901 3.32-2.16 5.85-2.51 8.96 1.04 5.81 5.4401 10.3 6.86 15.99 0.85 3.35 0.11 6.8-0.6799 10.09 9.12 4.08 18.14 9.68 23.49 18.39 3.7899 6.07 4.58 13.87 2.08 20.59-2.24 6.52-7.6799 11.21-13.43 14.65 3.0599 2.35 7.09 3.82 8.88 7.51-2.4801 2.13-5.77 3.37-7.5601 6.25-2.77 4.33-5.03 9.32-4.76 14.58 0.08 8.6-0.04 17.2 0.09 25.8 3.4601-0.04 6.9301-0.04 10.42-0.03 0 7.33-0.02 14.67 0.01 22 1.59 0 3.2 0.01 4.84 0.03 0.0901-7.36-0.08-14.72 0.12-22.07 3.53 0.04 7.0801 0.04 10.64 0.01 0.0601 7.16 0.01 14.32 0.04 21.49 1.58-0.08 3.21-0.13 4.85-0.19-0.0599-7.09-0.04-14.18-0.03-21.27 3.14-0.01 6.3-0.01 9.4601 0-0.02 14.41 0.0599 28.82-0.03 43.23-0.0701 13.12-6.39 25.46-14.99 35.07-1.8 1.77-2.0901 4.34-2.5601 6.7-1.74 9.61-3.0699 19.34-3.39 29.12-0.0599 17.82 0 35.64-0.0299 53.46 8.08 0.06 16.17-0.04 24.26 0.07 3.0699 23.18 0.58 47.6-10.15 68.63-2.65 5.78-6.78 10.65-10.22 15.92-0.4099 40.31-0.0599 80.66-0.1699 120.98 2.9199 0.01 5.85 0.02 8.7999 0.0801-0.0499 4.9299-0.12 9.86 0.0601 14.8 0.5599-0.22 1.67-0.66 2.22-0.87 0.37-4.67 0.05-9.35 0.15-14.01 2.5601 0.01 5.14 0.02 7.74 0.0701-0.05 4.9199-0.09 9.84 0.03 14.77 0.58-0.21 1.73-0.6399 2.3099-0.86 0.39-4.6599 0.0601-9.35 0.14-14.01 1.9601 0.02 3.92-0.01 5.92 0.1901 3.84 30.11-0.35 61.97-15.27 88.72-1.78 4.15-6.1801 7.35-6.11 12.12 1.1899 49.88 2.28 99.75 3.47 149.63 5.4401-0.02 10.89-0.01 16.34-0.02 1.13 11.18 0.4 23-4.7999 33.17-2.27 4.53-5.7001 8.39-9.7001 11.48 0.9501 76.05 1.9501 152.1 2.89 228.15 6.13 0.02 12.27-0.04 18.41 0.0599-0.05 20.51 0 41.03-0.02 61.55-663.44-0.01-1326.9 0.02-1990.3-0.01 0.05-20.54-0.05-41.08 0.05-61.62 14.43 0.0601 28.86 0.02 43.29 0.02 0.68-52.45 1.31-104.91 2.03-157.36 0.61-3.24-2.87-4.72-4.43-7-6.17-7.78-6.9-18.31-6.13-27.84 3.97 0 7.94 0 11.91 0.01 0.72-30.42 1.4-60.84 2.11-91.26-0.25-6.5 1.14-13.25-0.17-19.58-13.94-20.35-17.79-46.08-15.09-70.22 1.48-0.09 2.96-0.16 4.44-0.2001-0.01 3.6101-0.06 7.2201 0.16 10.84 3.3-2.3401 1.04-7.3101 1.66-10.77 1.86-0.02 3.73-0.03 5.59-0.01 0.53 3.5601-1.48 8.22 1.6 10.95 0.3-3.63 0.25-7.26 0.19-10.88 2.13-0.0699 4.25-0.11 6.38-0.1599-0.13-28.66 0-57.33-0.06-86 0.13-1.26-0.55-2.3-1.27-3.23-12.92-16.67-16.37-39-13.52-59.5 5.83 0.0299 11.66 0.0099 17.49 0.0199-0.47-20.39 1.65-41.07-2.79-61.15-0.53-2.89-2.92-4.79-4.53-7.0701-5.68-7.35-8.51-16.72-7.86-25.99 0.03-9 0.01-17.99 0.01-26.99 2.28-0.01 4.55-0.01 6.83 0v15.58c0.86 0 2.6 0.01 3.47 0.02 0-5.1899 0.02-10.37-0.04-15.54 2.62-0.05 5.24-0.0701 7.86-0.0801 0.01 5.3201 0.02 10.65-0.03 15.99 1.18-0.02 2.36-0.03 3.55-0.02-0.07-5.3199-0.04-10.64-0.04-15.95 2.53-0.01 5.05-0.01 7.58 0-0.05-6.65 0.11-13.3-0.03-19.94-0.31-5.91-4.06-11.08-9.11-13.97 2.07-1.94 4.36-3.6 6.82-4.9901-4.48-2.84-8.84-6.59-10.21-11.93-1.83-5.99 0.22-12.56 4.4-17.05 3.93-4.39 9.07-7.45 14.35-9.93-0.31-2.42-0.97-4.91-0.33-7.33 1.03-3.83 3.73-6.97 4.77-10.79 0.11-2.78-2.34-5.16-1.54-7.99 0.18-2.08 1.9-3.4 3.34-4.66-0.03-0.95-0.06-1.88-0.09-2.79-3.26-2.45-7.14-5.98-5.93-10.53 1.89-5.54 6.43-10.11 6.94-16.12-0.52-4.03-2.3-7.8-2.56-11.88-0.82-6.65 0.98-13.29 3.93-19.21-0.4-1.39-0.78-2.79-1.13-4.17-4.54-1.53-8.53-5.71-7.74-10.81 0.35-5.08 5.01-8.36 9.74-8.92-2.46 1.29-5.3 2.56-6.4 5.33-2.37 4.65 0.54 10.82 5.58 12.06 3.23 1.08 6.3-0.77 9.19-1.97-1.91 1.7401-4.04 3.21-6.41 4.27-0.38 1.29-0.78 2.58-1.21 3.87 3.05 6.35 5.04 13.45 3.89 20.54-0.51 5.2-4.07 10.5-1.21 15.6 1.66 5.15 7.12 9.51 5.51 15.31-0.84 3.93-6.22 5.1-6.01 9.39 1.53 1.23 3.39 2.53 3.54 4.71 0.74 2.77-1.55 5.15-1.56 7.86 1 3.71 3.49 6.8 4.66 10.45 0.79 2.57 0.16 5.28-0.19 7.88 6.43 2.85 12.69 6.84 16.61 12.83 3.55 5.37 3.74 12.77 0.28 18.24-1.84 3.39-5.31 5.32-8.08 7.84 2.33 1.48 4.71 2.98 6.41 5.23-5.47 2.67-9.01 8.5-9.05 14.56-0.04 6.31 0.08 12.62-0.04 18.93 2.54 0.0499 5.09 0.0699 7.64 0.11v16.02c1.19-0.0701 2.38-0.12 3.58-0.16-0.08-5.3-0.05-10.6-0.04-15.89 2.58-0.01 5.16-0.01 7.74 0 0.02 5.1899 0.01 10.39 0.01 15.6 1.15-0.01 2.3 0 3.45 0.03 0.03-5.22 0.02-10.44 0.03-15.65 2.28 0.01 4.56 0.03 6.85 0.0601-0.08 10.31 0 20.62-0.03 30.93 0.09 9.42-4.33 18.29-10.41 25.26-2.04 2.13-2.23 5.1801-2.75 7.9301-3.41 18.8-1.52 37.97-2.05 56.96 5.86 0.14 11.72 0.0601 17.57 0.08 2.87 21.13-0.83 44.31-14.82 61.06-0.05 29.24 0.01 58.48-0.03 87.73 2.13-0.01 4.25-0.01 6.37 0.01 0.49 3.58-1.39 8.12 1.52 10.96 0.32-3.64 0.26-7.2899 0.23-10.93 1.87-0.03 3.74-0.04 5.61-0.04 0.31 3.6901-1.09 8.01 1.44 11.14 0.5-3.7 0.4-7.4301 0.39-11.14 1.45-0.01 2.91 0 4.37 0.02 2.84 24.43-1.09 50.68-15.61 71.05 0.82 36.71 1.68 73.42 2.53 110.14 3.98-0.01 7.95-0.01 11.93 0.01 1.1 11.45-0.79 24.84-10.59 32.25 0.7 53.32 1.3 106.64 2.1 159.96 4.78-0.03 9.56-0.01 14.34-0.0701-0.06-108.45 0-216.89-0.16-325.33-0.59-6.59 4.36-11.69 9.41-15.06 2.64-1.2999 0.58-4.5699 0.7-6.7999-1.91-1.29-4.39-2.5701-4.64-5.14-0.51-2.71 1.78-4.55 3.42-6.27-4.48-19.3 0.46-41.35 15.05-55.23 11.01-9.77 25.34-14.45 39.11-18.82 0.68-1.97 1.44-3.8999 2.37-5.76-0.39-4.45 0.51-8.87 1.13-13.26-2.59-1.4701-5.88-3.2201-5.85-6.66-0.4-3.9501 3.34-6.2001 6.57-7.28-1.49 1.39-3.32 2.53-4.31 4.38-1.45 3.23 0.98 7.26 4.46 7.67 1.84 0.02 3.54-0.8101 5.3-1.23-1.85 1.12-3.77 2.11-5.76 2.97 0.28 3.2899 0.52 6.6 1.23 9.85-0.18 1.17-0.37 2.35-0.56 3.5599 0.92 1.8501 1.68 3.79 2.31 5.79 14.94 5.13 30.93 10.88 41.2 23.56 11.3 13.94 14.61 33.25 10.69 50.54 1.57 1.6801 3.79 3.4701 3.29 6.0901-0.15 2.3099-2.33 3.58-3.86 5.01-0.23 2.0399-0.46 4.09-0.7 6.1499 5.22 3.41 11.22 8.01 11.02 14.95-0.05 45.32-0.01 90.64-0.1 135.96 11.49-0.03 22.97 0.09 34.45-0.0599 3.05-130.97 6.37-261.93 9.42-392.9 0.1-11.65 0.88-23.31 0.59-34.94-3.18-8.76-9.15-16.2-13.03-24.64-0.56-1.47-1.38-2.97-1.13-4.5499 0.98-2.0701 3.41-2.67 5.45-3.09 3.71-0.65 7.5-0.41 11.25-0.4301 0.08-5.63 0.03-11.25 0.14-16.88 2.69-0.46 5.37-0.93 8.06-1.38 1.82-160.67 3.5-321.36 5.27-482.02-0.89-9.22-3.13-18.54-7.96-26.54-3.14-5.23-7.82-9.6-13.56-11.8-6.09-2.33-10.54-7.43-14.08-12.71-2.58-3.99-4.94-8.34-5.51-13.12 0.41-11.43 9.16-21.42 20.16-24.14 0.05-8.28 0.23-16.55 0.33-24.83 7.26 0.28 14.53 0.15 21.8 0.53 0.24-23.04 0.25-46.08 0.39-69.12-7.01-1.63-14.94-2.94-19.97-8.59-3.25-3.52-2.42-8.9 0.03-12.61 8.17-13.12 19.02-24.68 31.95-33.2 0-7.77 0.09-15.55-0.06-23.33-2.8-0.59-6.54-0.6-7.92-3.63-0.91-1.3 0.04-2.81 0.64-4.01 3.72-6.16 8.99-11.14 13.89-16.34 2.23-1.9 1.71-5.05 2.11-7.64 2-21.73 4.73-43.4 8.78-64.84 3.38-16.39 7.14-32.7 11.23-48.92-2.09-2.6-4.08-5.72-3.42-9.21 0.31-3.81 3.32-6.45 6.3-8.4 0.29-2.12 0.58-4.23 0.86-6.35-2.86-1.84-5.62-4.66-5.2-8.36-0.11-3.3 2.91-5.16 4.73-7.46 0.72-4.46 0.65-9.02 1.03-13.52-2.16-1.76-4.68-3.88-4.26-7.01 0-3.2 2.81-5.15 5.34-6.48 0.13-4.36 0.09-8.72 0.06-13.08-5.91-0.84-11.87-3.32-15.4-8.34-5.3909-7.0701-5.2009-17.78 0.5991-24.56m0.44 254.89c-0.19 9-0.04 18-0.09 27 1.76 0.01 3.53 0.01 5.29 0.02-0.02-9 0.09-18.01-0.07-27.02h-5.13m13.39 0.01c0.03 9.01-0.1 18.03 0.08 27.05 1.73-0.01 3.45-0.02 5.19-0.02 0.17-9 0.04-18.01 0.08-27.02-1.79 0-3.57-0.01-5.35-0.01m12.06 0c0.02 9.01-0.08 18.02 0.05 27.03h5.17c0.15-9 0.02-18.01 0.07-27.01-1.77-0.01-3.53-0.02-5.29-0.02m12.32 0.13c0.06 8.96 0 17.92 0.04 26.88 1.75-0.01 3.51-0.01 5.28-0.01-0.04-9.03 0.09-18.07-0.08-27.1-1.75 0.07-3.5 0.15-5.24 0.23m1053.2-0.28c-0.15 9.05-0.04 18.1-0.0601 27.15 1.74 0 3.5 0 5.28 0.01-0.08-8.92 0.17-17.84-0.09-26.75-1.7098-0.27-3.4399-0.3-5.1299-0.41m13.41 0.15c-0.03 8.97 0.0299 17.94-0.03 26.92 1.75 0.06 3.51 0.11 5.2999 0.17 0.16-9.02 0.04-18.05 0.0801-27.08-1.8 0-3.5801-0.01-5.35-0.01m12.06 0c0.02 9.01-0.09 18.02 0.0601 27.03h5.1599c0.14-9.01 0.03-18.01 0.0701-27.02-1.7901-0.01-3.5501-0.01-5.2901-0.01m12.32 0.11c0.0499 8.96 0 17.93 0.0399 26.9 1.74-0.01 3.5-0.01 5.28 0-0.04-9.04 0.08-18.07-0.08-27.1-1.76 0.06-3.5 0.13-5.2399 0.2m-1142.1-0.11c0 9.01-0.01 18.02 0.01 27.02 1.76-0.02 3.53-0.03 5.3-0.04-0.02-8.98-0.04-17.96 0.01-26.93-1.78-0.02-3.55-0.04-5.32-0.05m1091 0c-0.01 9 0 18 0 27 1.74 0 3.52 0 5.3-0.01-0.01-8.98-0.04-17.96 0.02-26.94-1.79-0.02-3.57-0.04-5.32-0.05m-1122.8 161.61c-0.01 11.33-0.01 22.66 0 34h8.23v-34h-8.23m20.44 0.03c0.04 11.31 0.04 22.63 0 33.94 2.73 0.02 5.46 0.03 8.19 0.04 0.02-11.34 0.01-22.68 0.01-34.02-2.74 0-5.47 0.01-8.2 0.04m20.79-0.03v34h8.23c0.01-11.33 0.01-22.67 0-34h-8.23m17.66-0.01c-0.02 11.34-0.01 22.68-0.01 34.02 2.73-0.01 5.46-0.02 8.2-0.04-0.04-11.31-0.04-22.63-0.01-33.95-2.73-0.02-5.46-0.03-8.18-0.03m17.55 0.04c0.04 11.31 0.04 22.62 0 33.94 2.75 0.02 5.5 0.03 8.25 0.04 0.02-11.34 0.01-22.68 0-34.02-2.75 0-5.5 0.01-8.25 0.04m17.68-0.03c-0.01 11.33-0.01 22.67-0.01 34h8.24v-34h-8.23m15.82 0c-0.01 11.33-0.01 22.67 0 34 2.74 0 5.49-0.01 8.24-0.01-0.02-11.33-0.01-22.66-0.01-33.99h-8.23m981.06 0c-0.01 11.33-0.01 22.67 0 34h8.23v-34h-8.23m20.44 0.03c0.04 11.31 0.04 22.63 0 33.94 2.7201 0.02 5.4501 0.03 8.1901 0.04 0.01-11.34 0.02-22.68 0-34.02-2.7401 0-5.47 0.01-8.1901 0.04m20.79-0.03c0 11.33-0.01 22.67 0 34h8.23c0.01-11.33 0.01-22.67 0-34h-8.23m17.65 0c-0.01 11.33-0.01 22.67 0 34.01 2.72-0.01 5.45-0.02 8.1899-0.03-0.0399-11.33-0.02-22.65-0.01-33.97-2.7299-0.01-5.4599-0.01-8.1799-0.01m17.56 0.03c0.04 11.31 0.04 22.63 0 33.94 2.74 0.02 5.49 0.03 8.25 0.04 0.01-11.34 0.02-22.68-0.01-34.03-2.7601 0.01-5.5 0.02-8.24 0.05m17.68-0.03c-0.01 11.33-0.01 22.67-0.01 34h8.23c0.01-11.33 0.01-22.67 0-34h-8.22m15.82-0.01c-0.02 11.34-0.01 22.68 0 34.01 2.73 0 5.48-0.01 8.24-0.01-0.0199-11.33-0.0199-22.65 0-33.98-2.7601-0.01-5.5-0.01-8.24-0.02m-1152.1 91.65c-6.46 3.6-9.27 11.31-9.43 18.35 0.02 22.33 0.03 44.66-0.01 66.98 12.05 0.0601 24.09 0.01 36.14 0.03 0.02-22.66-0.02-45.32 0.02-67.98 0.05-4.71-1.03-9.58-4.1-13.26-5.19-6.69-15.41-8.58-22.62-4.12m1084.5 6.66c-1.8 3.6-2.9401 7.62-2.9501 11.67 0.02 22.33 0.03 44.67 0 67.01 12.04 0.05 24.08 0 36.12 0.02 0.01-23 0.02-46 0.01-69 0.2001-7.46-4.26-14.95-11.37-17.58-7.91-3.29-17.86 0.28-21.81 7.88m-1090.8 144.12c-2 3.88-3.22 8.25-3.13 12.64 0.07 22.18-0.01 44.37 0.04 66.56 12.04-0.07 24.08 0.05 36.12-0.07-0.04-20.87-0.02-41.74-0.01-62.61-0.03-4.65 0.37-9.47-1.32-13.9-2.3-6.25-8.47-10.83-15.1-11.31-6.59-0.6-13.3 2.99-16.6 8.69m1097.6-6.46c-6.5299 3.42-9.47 11.02-9.74 18.04 0.04 22.54-0.02 45.08 0.04 67.62 12.03-0.08 24.07 0.06 36.11-0.07-0.03-22.18-0.04-44.35 0.01-66.52 0.13-4.86-0.52-10-3.49-14.01-4.98-7.1-15.44-9.59-22.93-5.06m-1092.9 158.08c-5.11 3.61-7.27 10.02-7.79 16.01-0.04 22.76 0.04 45.53-0.03 68.3 12.04 0.11 24.09 0.03 36.13 0.05 0.01-23.14 0.03-46.27 0-69.41 0-6.03-2.79-12.13-7.94-15.44-5.99-4.23-14.58-3.99-20.37 0.49m1085.9 5.98c-1.55 3.44-2.7101 7.18-2.7101 10.99 0.02 22.45 0.04 44.89-0.01 67.34 12.04 0.1 24.09 0.03 36.14 0.04 0.01-20.14 0-40.28 0-60.42-0.1-5.06 0.51-10.27-1-15.19-1.84-6.03-7.22-10.72-13.37-11.93-7.45-1.63-15.64 2.39-19.05 9.17m456.87 33.91c-5.28 15.36-6.77 31.86-6.4501 48.04 0 13.55 0 27.09 0.01 40.64 4.47-0.04 8.9501-0.05 13.44 0.01 0.0399-9.86 0.01-19.73 0.0199-29.59-0.13-12.86 0.6801-25.8-1.59-38.52-1.3499-6.94-1.7099-14.4-5.4299-20.58m-27.64 17.17c-1.26 7.88-2.3401 15.84-2.23 23.84 0.0399 15.96-0.02 31.91 0.0299 47.86 3.7001-0.01 7.4-0.01 11.12 0.01 0.0601-17.58 0.05-35.17 0.01-52.75-0.5299-11.92-2.76-23.68-4.8199-35.4-2.17 5.24-3.12 10.88-4.11 16.44m51.8-16.45c-2.5399 14.31-5.36 28.75-4.85 43.36 0.01 14.93 0 29.86 0.01 44.8 3.6901-0.02 7.38-0.02 11.09 0 0-17.92 0.11-35.85-0.0499-53.77-0.9601-11.6-2.2101-23.4-6.2001-34.39m-1606.5 162.47c1.19 11.71 0.38 23.51 0.6 35.26 3.35 0.01 6.71 0.02 10.06 0.02 0-10.8 0.02-21.59 0.02-32.37 0.12-2.63-0.68-5.75-3.32-6.8701-2.91-1.6299-7.29 0.5401-7.36 3.9601m22.89-0.22c1.19 11.78 0.35 23.66 0.6 35.49 3.35 0 6.7 0 10.06 0.01 0-10.79 0-21.58 0.02-32.36 0.13-2.59-0.61-5.66-3.18-6.83-2.87-1.66-7.15 0.34-7.5 3.69m21.13 0.22c1.15 11.71 0.36 23.51 0.58 35.27 3.37 0 6.75 0.01 10.12 0 0-10.79 0.01-21.59 0.02-32.39 0.13-2.61-0.68-5.71-3.31-6.83-2.93-1.64-7.28 0.52-7.41 3.95m21.15-0.11c1.19 11.73 0.41 23.55 0.58 35.33 3.36 0.0601 6.72 0.0601 10.09 0.0601 0.01-10.8 0-21.6 0.03-32.39 0.14-2.64-0.69-5.76-3.34-6.87-2.9-1.5601-7.1 0.5299-7.36 3.8699m22.92 0.08c1.1 11.72 0.37 23.53 0.57 35.29 3.35 0.01 6.7 0.02 10.06 0.02 0.01-10.8 0-21.6 0.03-32.4 0.13-2.64-0.67-5.78-3.34-6.87-2.91-1.56-7.19 0.58-7.32 3.96m1002.9-0.09c1.1901 11.75 0.37 23.59 0.6001 35.39h10.07c-0.01-10.78 0-21.57 0.01-32.35 0.11-2.6201-0.67-5.7401-3.3-6.8701-2.8901-1.6199-7.2 0.4701-7.38 3.8301m22.89 0.06c1.2001 11.73 0.3401 23.56 0.6 35.34 3.3501-0.01 6.7001-0.01 10.06 0 0.01-10.48-0.03-20.96 0.03-31.43 0.0499-2.61-0.1-5.78-2.51-7.36-2.8901-2.3199-7.9701-0.2999-8.1801 3.4501m21.14-0.03c1.12 11.74 0.36 23.57 0.5701 35.36 3.37 0.01 6.74 0 10.13 0 0-10.49-0.03-20.97 0.0299-31.46 0.04-2.65-0.1599-5.8801-2.6799-7.4-2.9101-2.19-7.8301-0.18-8.0501 3.5m21.14 0.01c1.1901 11.72 0.4 23.55 0.59 35.32 3.3501 0.03 6.7101 0.04 10.08 0.04 0-10.82-0.01-21.63 0.02-32.44 0.1399-2.6199-0.7001-5.71-3.3101-6.8199-2.9301-1.57-7.16 0.54-7.38 3.9m22.92 0.03c1.1 11.73 0.38 23.53 0.5599 35.3 3.35 0.02 6.7001 0.03 10.07 0.03 0.01-10.79 0-21.57 0.0299-32.35 0.1101-2.6401-0.6399-5.8-3.3199-6.91-2.91-1.58-7.1999 0.56-7.34 3.93m106.89 17.86c-6.3 17.94-3.5 37.23-4.15 55.84 1.34 0 2.71 0.01 4.1 0.04 0.22 30.37-0.0601 60.74 0.11 91.11 0.0701-30.39 0.15-60.77-0.02-91.15 1.41 0 2.8401 0.01 4.3 0.03-0.0701-11.29 0.1-22.58-0.0701-33.87-0.62-7.4301-1.2601-15.09-4.2699-22m-15.02 0.6398c-5.75 17.93-3.3101 36.96-3.8101 55.46 2.3201-0.04 4.67-0.0601 7.03-0.1-0.4299-18.48 1.4501-37.25-3.2199-55.36m30.15 0.0301c-1.3601 7.4301-2.77 14.89-3.03 22.46-0.02 10.99 0 21.98 0.01 32.97 2.33-0.04 4.6799-0.0701 7.0399-0.11-0.71-18.43 2.06-37.51-4.0199-55.32m-1550.3 72.95c-0.46 13.66-0.04 27.35-0.21 41.02 3.22 0 6.43 0.01 9.65 0.0801 0.16-8.54 0.04-17.07 0.07-25.6 0.32-12.9-0.44-26.07-4.58-38.38-3.72 6.99-3.89 15.19-4.93 22.88m18.44 2.4c-0.09 12.95-0.05 25.91 0 38.87 2.67-0.0299 5.35-0.0299 8.03-0.0399-0.53-21.33 2.05-43.19-4.37-63.92-1.81 8.2499-3.09 16.65-3.66 25.09m-35.57 38.85c2.66-0.01 5.31-0.01 7.96 0.01 0.05-12.93 0.08-25.85 0-38.77-0.49-8.42-1.94-16.75-3.49-25.02-6.83 20.58-3.81 42.52-4.47 63.78m1835.3-47.91c-0.1801 15.73 0.0299 31.46-0.0901 47.18 1.55 0.0601 3.12 0.1101 4.7201 0.1901 0.01 4.73-0.02 9.47 0.09 14.22 0.61-0.02 1.83-0.0499 2.4399-0.0699 0.01-4.75 0-9.49 0.05-14.23 4.34 0 8.6901-0.01 13.05 0.0399-0.03 4.87-0.0901 9.74 0.0499 14.62 0.5801-0.22 1.73-0.65 2.3-0.87 0.38-4.5699 0.0699-9.1699 0.15-13.74 1.5199-0.04 3.08-0.0699 4.6699-0.08-0.0699-15.74 0.05-31.48-0.0499-47.22-0.01-7.1801-6.52-13.6-13.73-13.37-7.1598-0.17-13.59 6.2-13.65 13.33m-291.44 89.12c-0.25 9.92-0.01 19.85-0.09 29.78 0.72-0.02 2.17-0.04 2.89-0.05 0.03 2.96 0.0499 5.92 0.0699 8.9l1.5901-0.1c-0.03-2.88-0.04-5.74-0.0601-8.5901 1.25-0.0699 2.52-0.1 3.8199-0.12 0.6101 29.73 0.0801 59.48 0.25 89.22 0.0801 51.29-0.1299 102.57 0.0801 153.85 0.03-56.63 0.0499-113.25 0.01-169.88 0.2-24.38-0.3201-48.76 0.2899-73.13 0.9501-0.03 2.8601-0.11 3.8101-0.14-0.01 3.16-0.05 6.33 0.2 9.5 2.4601-2.37 1.0801-6.09 1.4401-9.08 0.6799-0.17 2.0499-0.51 2.74-0.6801 0.38-9.48 0.08-18.99 0.16-28.48 0.3999-4.73-3.4301-9.28-8.2101-9.4-4.6699-0.3399-9.0298 3.7201-8.9899 8.4001m-1106.5 48.42c-3.19 1.1499-1.74 6.0499 1.6 5.3899 3.49-1.08 1.87-6.5001-1.6-5.3899m645.06 0.1999c-3.26 1.3099-0.71 6.6801 2.41 4.83 3.31-1.2799 0.61-6.59-2.41-4.83m-600.88 2.12c-1.08 1.73 0.88 3.0601 1.79 4.3199-8.69 8.8401-11.43 21.63-12.48 33.56 8.81-0.1 17.63 0.0599 26.44-0.1 0.59-12.22-3.49-24.72-12.25-33.42 0.62-1.4399 2.36-2.88 1.27-4.5-0.8-1.88-4.02-1.7999-4.77 0.14m50.8-1.1c-2.74 1.5399-0.52 6.24 2.46 4.78 3.68-1.22 0.69-6.97-2.46-4.78m48.95-0.2101c-1.32 0.38-2.27 2.16-1.54 3.4401 0.51 2.38 4.39 2.29 5.01 0.05 1.06-1.9901-1.45-4.55-3.47-3.4901m46.08 0.13c-3 1.4501-0.71 6.3601 2.41 4.9 3.4-1.3899 0.71-6.78-2.41-4.9m499.48 1.4401c-1.0901 1.54 1.22 2.8099 1.7599 4.15-8.6499 8.83-11.23 21.57-12.49 33.44h26.5c0.6101-11.66-2.98-23.7-11.1-32.26-2.37-1.52 1.15-3.52 0.3-5.4199-0.68-2.25-4.41-2.2301-4.9699 0.09m51.52-1.65c-1.9199 0.4301-2.51 3.04-1.22 4.4501 1.24 1.45 4.03 0.9399 4.5801-0.9601 0.87-1.95-1.3702-4.2801-3.3601-3.49m47.99 0.18c-3.0699 1.5-0.8099 6.26 2.42 5 3.3401-1.55 0.7401-6.7299-2.42-5m46.91-0.19c-3.52 0.85-1.77 6.48 1.66 5.2101 3.29-1.0201 1.61-6.3601-1.66-5.2101m-848.97 39.21c8.83 0.09 17.67 0 26.5 0.0499 0.8-12.58-3.48-25.63-12.62-34.49-9.47 8.79-12.24 22.15-13.88 34.44m204.2-33.78c-9.3 8.9199-12.32 22.11-13.99 34.41 8.84 0.01 17.68 0.01 26.52 0.01 0.63-12.51-3.32-25.64-12.53-34.42m441.31 33.84c8.75-0.03 17.51-0.05 26.27 0.02 1.0299-12.6-3.4401-25.57-12.42-34.53-9.54 8.74-12.53 22.16-13.85 34.51m95.44 0.5699c8.8401 0 17.67 0.03 26.51-0.0199 0.6901-12.53-3.49-25.32-12.27-34.41-9.68 8.64-12.48 22.14-14.24 34.43m48.24 0.0101h26.52c0.6901-12.59-3.6-25.47-12.58-34.45-9.5299 8.73-12.36 22.15-13.94 34.45m-693.59 0c8.82 0 17.65 0.01 26.48-0.01 0.68-12.54-3.43-25.46-12.39-34.44-9.49 8.7899-12.42 22.13-14.09 34.45m48.22 0c8.84-0.0399 17.69 0.0801 26.54-0.08 0.6-12.54-3.63-25.48-12.67-34.38-9.47 8.8-12.3 22.16-13.87 34.46m691.77-0.0101c8.8401 0.01 17.67 0.01 26.51 0.01 0.6901-12.53-3.4199-25.47-12.37-34.45-9.52 8.7801-12.47 22.12-14.14 34.44m-1247.5-17.95c-0.58 2.1901-0.51 4.49-0.54 6.75 0.06 10 0.02 20 0.03 30 0.86 0.01 2.57 0.01 3.42 0.02 0.56 3.53-1.57 8.3099 1.65 10.89 0.22-3.63 0.18-7.26 0.15-10.88 3.16-0.03 6.32-0.03 9.48-0.03 0.46 3.61-1.31 8.0601 1.47 11.02 0.41-3.61 0.33-7.25 0.25-10.86 1.17-0.11 2.34-0.2001 3.51-0.28-0.17-11.29 0.1-22.6-0.11-33.89 0.05-5.1799-4.58-9.84-9.77-9.76-4.28-0.14-8.36 2.93-9.54 7.02m87.87 27.09c0.14 0.9 0.31 1.8201 0.51 2.75-3.63 4.3101-5.04 9.8401-5.78 15.31 4.08 0.01 8.17 0.01 12.26-0.01 0.04-5.79-1.86-11.46-5.81-15.74 0.42-0.47 1.24-1.42 1.66-1.89-0.95-0.1802-1.89-0.32-2.84-0.4201m42.96 0.47c0.33 0.6 0.98 1.7999 1.31 2.3999-3.86 4.3-5.39 10-6.12 15.61 4.08-0.01 8.16 0 12.25-0.0601 0.01-5.41-1.52-10.8-5.02-14.98 0-1.03-0.01-2.03-0.06-3.01-0.79-0.0199-1.57-0.0099-2.36 0.0401m-22.39-0.3699c0.25 0.99 0.49 2 0.74 3.0299-3.62 4.14-4.81 9.62-5.51 14.93 4.09 0.01 8.19 0.02 12.28-0.02-0.06-5.33-1.65-10.53-5.06-14.65 0.08-1.8101-0.27-3.3601-2.45-3.29m45.28 2.9199c-3.63 4.34-5.04 9.9-5.85 15.39 4.11 0.08 8.22 0.08 12.32 0-0.25-3.25-0.45-6.61-1.82-9.61-1.25-2.9-4.16-5.29-3.1-8.77-1.68 0.31-2.2 1.31-1.55 2.99m20.18-2.47c0.32 0.5699 0.97 1.71 1.29 2.29-3.87 4.3099-5.46 10.01-6.17 15.64 4.08-0.01 8.17 0 12.25-0.0701-0.23-3.03-0.33-6.13-1.48-8.97-1.08-3.03-4.04-5.4301-3.36-8.9-0.63 1e-4 -1.9 1e-4 -2.53 0.0101m956.05 6.63c-1.9601 2.3199-0.3301 5.28 0.3199 7.76 0.8901-2.38 3.2301-6.49-0.3199-7.76m-712.12 8.4201l0.91-2.8601c0.54 1.15 1.03 2.39 0.91 3.7301-0.46 0.61-1.38 1.84-1.84 2.45-1.53-3.11-1.43-7.6801-5.52-8.65 0.15 2.54 2.42 3.75 4.09 5.27-3.56-0.26-7.05 1.39-10.54 0.91-0.24-1.27-0.42-2.53-0.55-3.79 0.67 0 2.01 0.01 2.68 0.01-0.06 0.7-0.19 2.09-0.25 2.78 1.12-0.87 1.51-2.16 1.76-3.47-1.34-0.0701-2.67-0.0701-3.99 0.0099-1.1 1.14-0.55 2.91-0.81 4.37 1.11 0.6001 2.22 1.2001 3.34 1.8401 0.48 1.6-0.01 4.1899 2.09 4.74 1.63 0.41 2.73-0.98 3.91-1.77 1.88 2.98 5.34 0.6801 8.05 0.6899 1.55 0.2101 3.11 0.41 4.68 0.64 0.36-3.12 2.67-4.98 4.87-6.87 1.4-2.7799-1.87-4.4099-4.26-4.11-0.35 1.54-0.5 3.11 1.3 3.88-0.01-0.8099-0.01-2.4399-0.02-3.26 1.39 0.4301 2.33 1.3201 2.82 2.67-0.76 0.8199-1.56 1.63-2.38 2.41-2.59-1.37-5.53-1.41-8.35-1.78-0.3-2.14 4.41-2.48 2.68-4.8-0.85 0.4401-1.69 0.92-2.49 1.4601-0.45 0.2899-1.35 0.87-1.8 1.1599-0.04-1.86 1.4-4.5-0.6-5.89-3.7 0.84-0.57 5.79-0.69 8.2301m32.71-7.8401c-1.02 2.53 0.37 5.0901 1.14 7.49 0.66-2.28 3.21-8.5199-1.14-7.49m33.03 0.05c0.03 2.61 0.6 5.1799 1.63 7.6 0.7-2.47 1.16-4.98 1.36-7.52-0.75-0.02-2.25-0.06-2.99-0.08m33.91-0.2001c-1.06 2.53 0.24 5.1001 1.05 7.4901 0.62-2.26 3.29-8.29-1.05-7.4901m33.27 0.1801c-0.71 2.63 0.4 5.22 1.52 7.58l0.29-3.47c0.61 0.9501 1.19 1.9301 1.78 2.9301 1.2401-1.2001 3.5-1.9301 3.2-4.01-1.51 0.3199-2.98 0.7999-4.44 1.26 0.03-1.0601 0.09-3.16 0.13-4.2201-0.62-0.02-1.86-0.05-2.48-0.07m33.64-0.32c-1.03 2.8099 0.3 5.6599 0.94 8.4099 0.45-2.6199 3.6-8.4399-0.94-8.4099m34.08 0.17c-1.06 2.55 0.29 5.14 1.09 7.5601 0.57-2.2801 3.35-8.4001-1.09-7.5601m443.99 0.0901c-0.98 2.3799 0.2 4.7799 1.1899 6.96 0.7801-2.0101 3.0701-8.0001-1.1899-6.96m34.48 8.0299c0.72-2.5599 1.77-5.1799 1.29-7.87-4.79-1.39-1.71 5.63-1.29 7.87m65.85-7.9099c-0.91 2.72 0.5601 5.47 1.13 8.13 0.5-2.1101 1.1901-4.1901 1.3-6.3501 0.63-1.55-1.2-2.73-2.43-1.7799m33.03-0.2001c0.1 2.8101 0.6799 5.55 1.37 8.28 0.74-2.5601 1.87-5.2 1.38-7.91-0.69-0.09-2.06-0.2801-2.75-0.37m33.82 0.05c-0.88 2.7899 0.55 5.5699 1.27 8.25 0.54-2.6 1.38-5.1801 1.21-7.85-0.62-0.1-1.86-0.3-2.48-0.4m-828.75 3c-0.46 0.5699-1.38 1.71-1.84 2.2899 0.32 1.8201 2.51 1.87 3.5 0.55-0.49-0.9999-1.08-1.9199-1.66-2.8399m44.87 0.24c-0.11 2.48 2.97 2.9399 4.55 4.11-1.08-1.71-1.87-4.88-4.55-4.11m6.98 4.25c2.04-1.05 4.2-2.2001 5-4.51-2.81-0.1-4.07 2.27-5 4.51m26.29-3.28c0.9 1.3 3.59 1.72 3.32 3.53-2.81 0.35-5.72 0.4299-8.27 1.8199-0.82-0.83-1.61-1.6799-2.34-2.5499 0.68-1.25 1.68-2.15 3.02-2.6901 0.0099 0.86 0.04 2.5801 0.05 3.4401 1.37-0.9501 1.36-2.4 1.09-3.8401-1.14 0.13-2.27 0.3-3.39 0.49-0.69 0.77-1.39 1.54-2.09 2.3201-0.46-0.67-1.38-2.01-1.84-2.67-2.76 0.61-1.59 2.88-0.09 4.27l0.76-1.87c1.89 1.47 3.78 2.97 5.81 4.29 0.36 1.26 0.47 2.61 1.01 3.86 1.36 0.41 2.83 0.02 4.25 0.11 0.04-1.34 0.07-2.66 0.08-3.97-1.03 0.34-2.18 0.58-2.85 1.53 0.44 0.23 1.31 0.7 1.75 0.9399-0.26 1.2-1.09 1.38-2.51 0.54-1.57-2.13 0.22-5.25 2.82-5.0701 2.89-0.9299 4.31 1.97 5.37 4.0801-0.89-0.1101-2.69-0.3201-3.59-0.4301 0.34 0.9301 0.7 1.87 1.09 2.8199 0.91-0.2 1.77-0.58 2.67-0.85 0.78 0.3201 1.57 0.62 2.38 0.9301 0.42-0.9401 0.77-1.89 1.16-2.8101-0.89 0.0701-2.69 0.23-3.58 0.3101 0.5-0.79 1.5-2.37 2-3.15 2.14-1.98 5.01-0.5599 7.01 0.85-0.2 0.99-0.6 2.97-0.8 3.9601-1.33 0.08-2.18-0.3101-2.54-1.1901 0.47-0.23 1.4-0.6899 1.87-0.91-0.7-0.95-1.87-1.23-2.89-1.58-0.03 1.33-0.02 2.6801 0.03 4.04 1.32-0.1001 2.65-0.12 3.98-0.28 0.26-0.86 0.78-2.58 1.05-3.4401 2.11 2.03 4.46 4.5701 7.73 3.8 2.51 0.5601 3.85-2.86 5.91-2.7 0.45 0.7799 0.91 1.58 1.38 2.3999 5.79 0.37 11.6-0.4199 17.39 0.14 0.32-1.23 0.65-2.4399 0.98-3.64 2.09 1.7201 4.1201 4.3601 7.15 4.2001 2.62-0.03 4.46-2.21 6.45-3.6 0.7 1.0199 0.55 4.12 2.71 3.1899 0.67-0.0499 2.01-0.14 2.67-0.1799 0.02-1.28 0.04-2.54 0.06-3.78-1.36 0.2-2.66 0.61-3.36 1.9199 0.83-0.1 2.48-0.3099 3.31-0.4099-0.83 1.75-1.98 2.21-3.44 1.37-1.66-2.15 0.16-5.3301 2.85-4.97 2.82-0.91 4.16 2.0299 5.36 3.96-0.77-0.12-2.32-0.35-3.1-0.46-0.04 0.5599-0.14 1.6799-0.18 2.25 2.23-0.0901 4.47-0.0901 6.72-0.01l0.01-1.76c1.06 0.9199 2.14 1.89 3.22 2.85 1.23-0.49 2.94-0.76 2.85-2.5 0.14-2.41 2.24-3.55 3.98-4.77-0.14-1.3099-0.24-2.62-0.47-3.88-1.15-0.05-3.3-1.3099-3.77 0.27-1.16 1.33 0 2.16 1.16 2.9299-0.04-0.8199-0.1-2.47-0.14-3.2999 2.94-0.27 3.59 5.4399 0.37 4.5599-3.85-0.8099-8.54-2.0299-11.16 1.9401-0.83-3.15-1.42-6.47-4.46-8.27-0.26 0.51-0.77 1.52-1.02 2.03 1.01 0.65 2.08 1.25 3.03 2.0599 1.23 1.53-1.68 1.42-2.34 1.52-2.62-0.29-6.61 2.35-7.96-1.08 0.42-1.29 1.27-2.2101 2.56-2.75 0.0601 0.8199 0.2 2.48 0.26 3.2999 1-0.8199 2.48-1.58 1.16-2.87-0.86-1.5199-4.22-0.9099-4.33 1.0701-1.08 2.77 2.61 3.98 4.32 5.23-1.62 0.63-3.16 1.4301-4.6 2.41-0.3101-0.78-0.95-2.3301-1.26-3.11-2.65-1.6901-4.36 1.0599-4.36 3.5099-1.33-1.23-2.66-2.4299-3.99-3.62 0.64-0.23 1.92-0.6699 2.56-0.8999-2.99-0.75-6-1.4-9.04-1.8101 0.22-0.51 0.65-1.52 0.87-2.03 0.62-0.84 1.24-1.6699 1.84-2.51-1.52 0.3401-2.95 0.9401-4.26 1.76 0.12 1.29 0.25 2.61 0.37 3.9401 2.48-0.3101 4.97 0.02 6.82 1.91-1.5 0.24-2.99 0.48-4.48 0.73 1.39 0.88 2.89 1.6899 4.14 2.83-2.33-0.1899-4.52-0.84-6.55-1.9399-0.04 0.4299-0.11 1.2899-0.15 1.72-1.9-0.39-1.14-2.6801-1.53-3.99-0.28 0.03-0.84 0.1-1.13 0.13-0.5 1 0.85 4.08-1.1 3.58-0.17-0.3-0.51-0.91-0.6801-1.21-2.08 0.88-6.42 3.27-6.73-0.53 0.28-3.8 5.04-3.01 7.68-3.5601-3.21-0.5599-6.54-0.45-9.55 0.8501-0.65-0.38-1.96-1.13-2.61-1.51 0.53-1.74 1.73-2.86 3.5-3.23-0.18 0.6-0.56 1.8099-0.75 2.4099 0.6 0.02 1.78 0.05 2.38 0.0701 0.18-3.23-4.69-4.2001-5.22-0.9301-1.22 2.48 2.1 3.34 3.48 4.54-1.38 1.15-2.75 2.2999-4.09 3.49-0.09-0.98-0.25-2.9401-0.33-3.92-1.3 0-2.59-0.0399-3.85 0.16-0.41 1.17-0.76 2.38-1.05 3.62-1.28-1.16-2.56-2.27-3.87-3.35 2.74-0.14 4.04-2.4 5.5-4.33l0.97 2.0499c0.53-1.04 2.83-2.52 1.14-3.58-1.39-1.4501-2.65 0.99-3.14 1.96-0.71-0.85-1.39-1.71-2.05-2.5599-1.01 0.2599-2.77-0.62-3.22 0.6499-1.16 1.2101 0.02 2.05 0.97 2.89 0.02-0.83 0.06-2.51 0.08-3.35 1.94 0.53 3.66 2.61 1.95 4.42-2.29 0.7799-4.57-0.8401-6.9-0.74-2.38-0.4501-4.12 1.4299-5.94 2.58-0.86-2.09-1.17-4.39-2.35-6.3199-0.6699-1.1996-2.6499-1.7096-3.1199-0.0696m7.15 3.1999c2.02-1.1 4.76-1.98 4.62-4.8199-2.26 0.8-3.81 2.59-4.62 4.8199m26.53-4.2699c-0.34 2.5299 2.83 3 4.38 4.2-0.9-1.85-1.77-4.63-4.38-4.2m67.01-0.1099c-0.73 2.72 2.81 3.12 4.42 4.36-1.1-1.7601-1.82-4.5601-4.42-4.36m6.67 4.2999c2.12-0.91 4.37-1.92 5.15-4.28-2.75-0.1401-4.09 2.14-5.15 4.28m27.43-4.19c-0.62 2.61 2.92 3.01 4.43 4.2699-1.04-1.75-1.82-4.6899-4.43-4.2699m6.83 4.38c2.05-1.04 4.1-2.26 5.09-4.4401-2.89-0.2099-4.22 2.0601-5.09 4.4401m425.3-3.8699c-2.17 0-1.67 3.98 0.5 3.0699 2.0399 0.12 1.46-3.42-0.5-3.0699m11.34-0.7101c0.6901 2.35 2.91 3.41 4.95 4.42-0.86-2.27-2.32-4.3201-4.95-4.42m7.4401 4.49c1.6499-1.1499 4.35-1.71 4.6499-4.08-2.75-1.09-3.62 2.34-4.6499 4.08m26.77-4.56c-0.58 1.9199 0.3 3.03 2.64 3.3199-2.7799 1.65-6.15 3.23-9.4199 2.64-1.1001-1.87-0.25-4.14 2.01-4.38v3.22c0.3899-0.3899 1.1799-1.1599 1.58-1.5499-0.28-2.34-2.55-2.02-4.3201-2.03-0.1 1.48-0.1699 2.98-0.22 4.49 1.74 1.14 3.8301 2.24 3.92 4.65 0.11 2.37 2.99 1.14 4.52 1.51 0.0699-1.2001 0.1-2.39 0.11-3.55-0.6801-0.03-2.02-0.09-2.6901-0.12-0.0399 0.4501-0.1 1.34-0.13 1.79 0.5701-0.02 1.6901-0.05 2.25-0.0601-0.6399 1.3201-1.6399 1.65-3 1.01-1.38-2.23 0.13-5.37 2.88-5.22 2.87-0.8099 4.13 2.21 5.41 4.12-0.9299-0.08-2.78-0.26-3.71-0.35 0.39 0.9399 0.77 1.92 1.27 2.87 0.8999-0.36 1.7699-0.79 2.6799-1.17 0.5-2 0.71-4.88 3.28-5.26 2.9299-1.2 6.91 1.89 4.76 4.9601-1.48 0.87-2.3101 0.6899-2.51-0.55 0.4299-0.27 1.29-0.8 1.72-1.0699-0.86-0.61-1.85-1.0901-2.78-1.4701-0.0399 1.27-0.0499 2.5701-0.0199 3.89 1.2599 0.1 2.5399 0.2201 3.83 0.3401 1.25-1.17 0.7-3.4301 2.23-4.4501 0.95-1.12 2.67-1.9 2.39-3.7 1.5 0.1699 3.02 0.5 4.5699 0.58 0.24-1.04 0.4501-2.0699 0.64-3.1-1.5299 0.23-3.1 0.55-3.65 2.3099-1.5699-1.1399-2.9099-3.11-5.09-2.5-1.15 1.4-1.11 2.78 0.7001 3.64-0.01-0.84-0.04-2.51-0.0601-3.34 2.9401-0.15 3.5 5.3199 0.34 4.61-3.6499-0.78-8.23-2.14-10.73 1.64-0.41-0.4399-1.24-1.3099-1.66-1.74 0.0701-0.7 0.2101-2.1 0.28-2.8-1.1798-1.2698-2.2398-2.7899-4.0198-3.1799m6.64 4.56c1.99-1.11 4.67-2.0499 4.67-4.7999-2.34 0.7199-3.89 2.5298-4.67 4.7999m26.57-4.3999c-0.54 2.6699 2.7899 3.12 4.4199 4.33-0.9999-1.8801-1.89-4.4101-4.4199-4.33m6.89 4.4899c2-1.0601 3.9399-2.3301 5.2-4.26-3.02-0.64-4.34 1.84-5.2 4.26m26.57-4.65c0.01 0.58 0.04 1.72 0.05 2.2999 1.48 0.64 2.97 1.29 4.49 1.92-1.07-1.8899-2.26-3.7899-4.54-4.2199m6.86 4.5c2.02-1.0801 4.64-1.9301 4.75-4.67-2.38 0.61-3.96 2.39-4.75 4.67m26.45-4.82c-0.3101 2.87 2.58 3.6901 4.59 4.77-0.9001-2.15-2.4401-3.87-4.59-4.77m6.9099 4.8599c1.77-0.9299 3.67-1.7799 5-3.34-2.37-2.7299-4.0299 1.6601-5 3.34m26.4-4.1699c0.13 2.54 2.97 2.98 4.79 4.0499-1.18-1.8399-2.06-4.7199-4.79-4.0499m7.12 4.1699c2.02-1.0699 4.48-2.0199 4.8-4.6299-2.5999 0.3-3.92 2.4-4.8 4.6299m34.13 0.0101c1.99-1.11 4.58-1.99 4.8101-4.6699-2.5301 0.4098-3.99 2.4098-4.8101 4.6699m-831.96-3.1399c-2.32 1.5099 0.5 4.6699 2.24 2.6699 0.91-1.94-0.62-2.56-2.24-2.6699m3.27 3.8999c1.03-1.64 2.24-3.1599 4.17-3.73-0.1899 0.61-0.5699 1.8201-0.75 2.4301 0.58 0.0499 1.76 0.15 2.35 0.21-0.65-1.26-0.62-3.53-2.63-3.02-2.38-0.3501-2.51 2.5399-3.14 4.1099m22.69-1.41c0.6 0.0699 1.8 0.2 2.41 0.26-0.19-0.6101-0.56-1.8301-0.75-2.4501 1.0099 0.37 2.0099 0.79 3 1.27 0.14 1.49-0.83 2.58-1.76 3.63-3.07-1.46-6.51-1.67-9.82-1.0601 3.13 0.17 6.38 0.4701 8.35 3.26-0.91 1.0601-1.83 2.14-2.74 3.2201-1.7-0.9501-3.38-1.88-5.05-2.8301 0.1 0.47 0.31 1.4 0.41 1.86l-1.53 0.02c-0.29-1.63-0.57-3.23-1.18-4.75-0.33 1.67-0.65 3.36-0.94 5.0601l-0.95-1.9601c-1.8 0.8501-3.64 1.6801-5.62 2-0.02-0.2699-0.06-0.7999-0.07-1.0699 1.11-0.72 2.26-1.38 3.37-2.09-1.31 0.11-3.93 0.3099-5.24 0.4199 1.78-3.0599 5.28-2.73 8.26-3.1699-3.75-0.67-7.54-0.01-11.19 0.9099 0.66 0.26 1.97 0.76 2.63 1.01-1.33 1.2001-2.66 2.39-3.99 3.61-0.34-1.6399-0.63-4.49-3.05-3.9399-1.89-0.23-1.78 2.51-2.65 3.65-0.77-0.5-2.32-1.5-3.1-2 1.65 1.9 3.83 3.9199 6.58 3.59 2.49 0.05 3.94-2.8199 6.09-3.12 0.53 0.83 1.05 1.67 1.58 2.54 5.27-0.03 10.81-1.17 15.88 0.75 1.05-1.2101 2.05-2.4701 3.02-3.7301 2.89 4.02 9.61 4.63 12.24 0-0.77 0.5601-2.32 1.67-3.09 2.2201-0.69-1.35-0.4901-4.25-2.67-3.91-2.35-0.47-2.53 2.47-2.84 3.99-1.28-1.15-2.56-2.25-3.85-3.34 1.07-0.9601 2.68-1.37 3.43-2.66 0.2401-1.42-0.35-2.76-0.58-4.1-2.08 0.1401-4.22 0.4501-4.59 2.9101m69.2 0.7l-0.52-3.04c1.92 0.6001 3 2.1901 3.96 3.88-0.62-1.6799-0.55-4.73-3.12-4.23-2.59-0.5499-2.98 3.24-0.32 3.39m5.77-2.99c-2.01-0.2-1.94 3.12 0.03 2.99 2.36 1.01 2.25-4.1899-0.03-2.99m32.32 2.66c2.23 1.64 2.92-1.11 3.0099-2.91-1.7799 0.0501-4.1699 0.65-3.0099 2.91m4.6-2.84c-0.52 2.79 0.15 5.4501 3.26 6.2301-1.3 1.1399-2.59 2.2899-3.85 3.49 0.38-3.03-1.75-4.39-4.48-4.0701-0.25 1.3-0.48 2.61-0.7 3.9501-0.84-0.54-2.54-1.6101-3.38-2.14 2.85 4.8199 9.69 3.6599 12.58-0.5 0.45 1.1699 0.92 2.35 1.4 3.5399 1.31-0.1599 2.63-0.24 3.96-0.3999 4.44 0.61 8.94-0.39 13.4 0.22 0.3-1.23 0.6-2.4401 0.91-3.63 2.16 1.85 4.32 4.51 7.52 4.2 2.76 0.17 4.73-1.9199 6.62-3.58 0.92 1.26 1.89 2.54 2.93 3.74 3.86-1.36 8-0.13 11.95-0.97 2.36 0.72 4.7 0.35 5.62-2.2101 1.49-0.45 2.63 1.9601 3.93 2.7201 1.57-0.3 3.48 0.26 4.79-0.9 0.04-1.21-0.01-2.4-0.16-3.5601-1.16-0.35-2.33-0.45-3.51-0.2999 0.01 0.73 0.01 2.1799 0.02 2.9099 1.01-0.73 1.94-1.5699 2.92-2.33v3.58c-3.41 0.4801-5.97-1.71-8.27-3.88 0.68-0.25 2.03-0.7699 2.7-1.0199-3.6-1.02-7.37-1.66-11.09-0.9801 2.95 0.38 6.21 0.27 8.27 2.8701-0.9399 0.1399-2.83 0.4199-3.77 0.5699 0.42 0.34 1.27 1.02 1.69 1.37 1.45 2.79-2.42 0.26-3.23-0.61-0.68 0.01-1.34-0.09-2-0.02-0.17 0.28-0.5099 0.84-0.68 1.12-2.07 0.59-0.63-2.61-1.09-3.64-0.32 0-0.94 0.01-1.26 0.02-0.51 1 0.87 4.25-1.12 3.61-0.18-0.33-0.56-0.98-0.74-1.2999-1.58 0.7799-3.14 1.6-4.67 2.47-0.93-1.0801-1.85-2.15-2.75-3.2101 1.98-2.85 5.29-3.0599 8.46-3.25-3.35-0.6-6.85-0.47-9.93 1.1001-0.78-1.0801-2.08-2.0701-1.77-3.55 0.93-0.6 1.93-1.08 2.98-1.45-0.16 0.74-0.48 2.21-0.64 2.9399 1.88-0.37 2.24-1.58 1.41-3.1799-1.43-0.14-3.58-0.6901-4.08 1.1499-1.4901 2.51 1.4399 4.3 3.3 5.27-1.59 1.23-3.17 2.48-4.76 3.73-0.09-1.3899-0.22-2.74-0.39-4.08-1.24-0.2-2.48-0.34-3.7-0.42-0.09 1.5-0.17 3.01-0.24 4.54-1.7-1.33-3.35-2.71-4.98-4.11 0.68-0.27 2.02-0.8101 2.69-1.08-3.62-0.8601-7.35-1.53-11.06-0.9401 2.03 0.75 5.21-0.3099 6.38 2.02-0.14 0.4-0.42 1.2-0.56 1.61 0.14 0.42 0.43 1.27 0.57 1.7-0.9301 0.1901-1.8701 0.1801-2.8101-0.0099 0-0.3101-0.0099-0.9301-0.0099-1.25-1.51 0.23-3.02 0.38-4.53 0.46 0.12-0.6 0.36-1.8 0.48-2.39-3.54-2.86-8.31-3.1899-12.26-0.96-2.29-1.36-2.36-5.1001 0.97-4.9401-0.11 0.73-0.32 2.2001-0.43 2.9301 0.46-0.27 1.37-0.8101 1.83-1.0801 0.3899-3.0499-2.7001-2.0999-4.6401-2.1199m21.98 2.82c0.58-0.0801 1.73-0.23 2.31-0.3-0.16-0.61-0.49-1.8199-0.65-2.4199 1.71 0.7999 3.02 2.1699 4.3 3.5499-0.9-1.35-1.07-4.1899-3.28-3.87-2.09-0.57-2.12 1.68-2.68 3.04m8.05-2.75c-2.03 1.11 0.1201 4.5399 1.7401 2.8099 1.8499-0.9999-0.0101-3.4399-1.7401-2.8099m26.91-0.0801c-0.94 1.51-0.38 2.8201 1.44 3.1101-0.16-0.7401-0.47-2.2201-0.62-2.9501 1.97 0.5701 3.06 2.2001 4.06 3.9-0.41-1.37-0.73-2.76-1.39-4.01-1.17-0.3098-2.33-0.3299-3.49-0.05m7.25-0.0499c-0.24 0.4199-0.7 1.26-0.93 1.6799-0.29 2.3401 3.85 1.9701 3.27 0.03 0.53-1.5999-1.47-1.3599-2.34-1.7099m413.71 1.75c-0.9501 2.4199 2.0399 3.61 3.5599 4.6799-2.2 2.1101-4.74 3.9801-7.97 3.6801 0.02-0.98 0.0699-2.9301 0.09-3.91 0.5901 0.7101 1.76 2.14 2.3401 2.85 0.23-1.0399 0.45-2.08 0.62-3.1-1.25-0.28-2.4501-0.2-3.6001 0.24-0.1399 1.5601-0.8899 4.6801 1.6801 4.38 3.11 0.5801 5.21-1.9299 7.28-3.7799 0.2999 1.2 0.63 2.3999 0.98 3.62 5.8099-0.6101 11.63 0.25 17.47-0.0801 0.39-0.95 0.8301-1.86 1.3301-2.73 2.08 0.7 3.48 3.35 6.0099 3.37 2.7401 0.36 5.02-1.51 6.5901-3.54-0.8201 0.5701-2.4501 1.7001-3.26 2.26-0.42-1.49-0.8-2.9399-1.2101-4.39-2.5199 0.27-4.37 1.63-4.1699 4.4-1.26-1.14-2.5-2.25-3.75-3.35 1.77-0.98 4.6799-2.76 3.1799-5.21-1.3099-2.4601-4.3199-1.17-5.22 0.9299 0.64 0.23 1.9301 0.6801 2.5701 0.9-0.17-0.6799-0.5-2.05-0.67-2.74 1.03 0.4301 2.04 0.92 3.05 1.47 0.0499 1.41-1.04 2.4401-1.75 3.55-1.3601-0.09-2.9301-1.87-4.1901-0.72 0.89 0.98 1.62 2.08 2.2 3.2899-1.2899 3.36-4.72 1.5-7.0099 0.48-0.1801 0.29-0.53 0.88-0.7001 1.17-1.98 0.49-0.6699-2.54-1.13-3.55-0.2899-0.0499-0.87-0.1499-1.16-0.1899-0.5099 1.27 0.7301 4.02-1.46 4.03-0.12-0.4301-0.35-1.3-0.47-1.73-1.9301 1.08-4.01 2.36-6.3101 1.5199l0.8201-0.6c1.1-0.5599 2.24-1.0599 3.37-1.59-0.79-0.22-2.37-0.65-3.16-0.87-0.13-0.3-0.38-0.89-0.5-1.1901 2.23-0.6699 4.5601-0.84 6.87-1.21-3.38-0.49-6.87-0.34-9.99 1.15-0.84-1.0601-1.83-2.0701-1.85-3.48 0.73-0.4 2.2-1.2001 2.9299-1.5901-0.09 0.7401-0.2699 2.2101-0.36 2.9501 0.4601-0.2001 1.38-0.62 1.8401-0.8201 0.61-3.2595-4.39-3.3296-4.89-0.5496m28.27-0.55c0.73 1 1.51 2.1901 2.9299 2.27 1.0601-1.21 0.38-2.5599-0.0699-3.8199-0.7201 0.39-2.15 1.1599-2.86 1.5499m39.31-1.62c-0.24 1.35-0.61 2.7001-0.52 4.11 0.48 1.4301 2.29 1.64 3.3201 2.64-1.28 1.11-2.54 2.24-3.77 3.4-0.33-1.61-0.55-4.47-2.9501-4.01-2.1399-0.47-1.7699 2.6801-2.5299 3.9301-0.79-0.5601-2.36-1.6801-3.15-2.24 1.38 1.7899 3.21 3.63 5.6799 3.5699 3.0601 0.22 5.0901-2.47 7.2201-4.2 0.26 1.1399 0.5399 2.2999 0.84 3.47 1.24 0.04 2.5 0.11 3.77 0.2l-0.66-2.09c1.27 1.03 2.73 2.5699 4.62 2.0699 3.24-0.34 6.51-0.22 9.78-0.0599 0.49-1.01 1-2 1.52-2.97 1.9099 1.35 3.64 3.46 6.1699 3.59 2.03 0.1799 3.76-1.13 5.4701-2.02-0.64 0.12-1.91 0.36-2.55 0.48-0.58-1.15-0.09-3.99-2.11-3.7-2.48-0.65-2.83 2.24-3.1901 3.9199-1.33-1.23-2.6599-2.45-3.97-3.6499 0.66-0.23 1.99-0.7001 2.66-0.9401-3.61-0.9399-7.35-1.5599-11.05-0.9299 2.8101 0.3999 5.92 0.33 7.99 2.6899-0.5499 0.33-1.6599 0.99-2.21 1.33 0.15 0.2101 0.4401 0.63 0.59 0.8401-0.6499 0.9099-1.72 1.26-3.22 1.0399 0.09-0.71 0.27-2.12 0.35-2.8199-0.2799 0.4399-0.86 1.34-1.14 1.79-1.11-0.27-2.2-0.52-3.2799-0.75-0.01-0.8201-0.02-2.4601-0.02-3.28-0.97 1.38-1.05 3.3199-2.1801 4.5599-0.1799-0.33-0.5399-1-0.72-1.34-0.35 0.0801-1.0599 0.24-1.42 0.3201-1.58-2-3.6-1.91-5.5699-0.2001 0.34-4.5 4.77-3.5599 7.88-4.16-3.34-0.5699-6.8201-0.47-9.87 1.1101-2.24-1.4601-2.3-4.9301 0.96-5.05-0.11 0.66-0.3099 1.96-0.4199 2.62 0.59-0.09 1.7699-0.28 2.37-0.37-0.5802-2.3101-2.6103-2.79-4.6902-2.9m21.56 3.27c0.58-0.0599 1.73-0.1801 2.3099-0.24-0.1799-0.6-0.54-1.8101-0.72-2.41 1.91 0.61 3.09 2.17 4.23 3.75-0.78-1.63-0.8199-4.5-3.3-4.11-2-0.52-1.8999 1.8201-2.5199 3.01m6.8-3.0599c-0.78 1.72 0.92 5.08 2.53 2.8999 2.08-1.63-1.4301-2.56-2.53-2.8999m5.3 0.5299c-2.4301 2.35 0.13 5.5 2.87 5.87-0.27 0.2201-0.8201 0.65-1.1 0.86 1.1599 1.1001 1.5299 3.9301 3.6599 3.3401 3.4301-0.49 6.8601 0.33 10.3-0.11 1.42-2.2101 3.02 1.25 4.83 0.5299 1.8501 0.01 1.3-2.89 2.28-3.8199 1.9301 1.64 3.8101 4.16 6.64 4 2.83 0.21 4.72-2.3201 6.64-3.99 0.11 2.9399 3.14 5.27 5.58 2.98 1.04-0.3 1.78 0.8199 2.6901 1.21l0.33-0.26c3.3-1.38 6.95-0.6499 10.41-0.46 0.1899-0.85 0.5699-2.54 0.76-3.38 0.5 0.3201 1.51 0.9501 2.02 1.27 3.24 4.3 9.4099 2.14 12.15-1.63 0.2301 1.23 0.4801 2.48 0.77 3.74 3.89-0.23 8.0601-1.05 11.72 0.8 0.2001-0.5701 0.6101-1.7201 0.8101-2.29 1.39 0.79 2.7 2.5 4.55 1.92 1.9399-0.16 1.1899-2.7201 1.84-3.8501 2.99 4.37 10.29 5.25 13.25 0.41-1.42 0.8201-2.8201 1.6901-4.1801 2.59-0.0599-1.4399-0.11-2.87-0.1599-4.2799-1.3101 0.0499-2.6001 0.11-3.87 0.2-0.05 1.38-0.0801 2.77-0.0901 4.1801-1.61-1.2001-3.1899-2.42-4.7999-3.5701 1.23-1.16 3.48-1.8099 3.39-3.84 1.0199-2.55-2.5901-3.9301-4.15-2.42-1.54 1.14-0.16 2.5801 1.1899 3-0.11-0.6699-0.33-2.01-0.4399-2.6899h3.0599c-0.35 1.7-0.78 3.4399-2.01 4.76-1.7999-0.75-3.6-1.7101-5.59-1.63-2.64-0.28-4.6801 1.6899-7.12 2.27 0.3101 0.62 0.91 1.87 1.22 2.49-0.53-0.0601-1.6-0.16-2.13-0.2101-1.6899 1.8301-2.6699-1.76-4.45-1.71-0.24 0.58-0.72 1.75-0.96 2.33 0.6599-0.2999 1.98-0.9199 2.63-1.22 0.08 0.51 0.25 1.54 0.33 2.05-0.99 0.03-2.97 0.08-3.96 0.11 0.1899-1.59-0.15-3.4401 1.0099-4.72 2.17-1.11 4.65-0.2201 6.9601-0.26-3.63-1.99-7.63-0.4601-11.41-0.0701-1.73-2.2-0.45-4.3099 2.21-4.59-0.24 0.53-0.71 1.6-0.95 2.13 0.61 0.15 1.8199 0.45 2.4301 0.6-0.2401-0.73-0.7201-2.1899-0.9601-2.9299-1.53-0.52-3.99-0.28-4.15 1.71-0.85 2.51 1.91 3.61 3.5701 4.72-1.37 1.05-2.73 2.12-4.05 3.23-0.1899-0.86-0.5599-2.58-0.74-3.4399-2.6699-1.8-4.9199 0.73-4.63 3.47-1.34-1.33-2.74-2.54-3.97-3.9299 1.45-0.5701 4.08-1.0701 3.8-3.25 0.1599-2.3101-2.39-3.3-4.27-2.53-1.42 1.37-0.4401 2.7899 1.2999 3.11-0.14-0.74-0.4199-2.2001-0.5599-2.9401 1.01 0.4801 2 1.0601 2.95 1.7201-0.21 0.95-0.51 1.89-0.9 2.8099-3.6-0.36-7.2-1.21-10.81-0.63 2.21 0.6901 5.17-0.08 6.9 1.8 0.23 1.3199 0.38 2.66 0.4299 4.0399-0.98-0.0599-2.95-0.1799-3.9299-0.24 0.0699-0.5199 0.2-1.5499 0.27-2.0699 0.5599 0.34 1.6899 1.01 2.25 1.35-0.04-0.7-0.14-2.1-0.1801-2.7999-1.73 0.85-3.08 2.21-4.34 3.62l-0.05-1.6901c-0.6 0.14-1.8199 0.41-2.4299 0.55 0.23-0.76 0.6899-2.28 0.9199-3.03-0.36 0.12-1.09 0.36-1.46 0.48-2.66-3.53-7.5601-2.5599-10.96-0.76-2.41-1.27-2.41-5.0599 0.83-5.12-0.11 0.66-0.3201 1.97-0.4301 2.63 0.5901-0.0599 1.77-0.2 2.36-0.26-0.49-2.39-2.5299-2.9399-4.6599-3.0499-0.16 1.5399-0.8 3.1799-0.3101 4.75 0.9601 0.75 1.97 1.45 3.05 2.1-1.37 1.16-2.75 2.3199-4.0801 3.52-0.0399-0.9501-0.11-2.87-0.1499-3.8301-1.53-0.0299-3.04-0.02-4.54 0.05-0.01 0.92-0.03 2.75-0.04 3.67-1.4199-1.13-2.7799-2.2101-4.1899-3.28 2.63-1.0901 4.08-3.41 3.04-6.24-1.4701-0.28-2.9501-0.3301-4.39-0.39 0.0599 1.41 0.2999 2.7999 1.6699 3.59-0.0699-0.77-0.2-2.3199-0.27-3.1 3.4601-0.3201 3.03 3.65 0.8501 5-3.9701-2.62-8.7101-1.59-12.46 0.83 0.28 0.6 0.8501 1.8101 1.14 2.41-0.7-0.16-2.08-0.48-2.78-0.64l-0.0499 1.98c-1.21-1.21-1.86-3.1699-3.76-3.3099-0.25 0.5699-0.74 1.7-0.99 2.26 0.64-0.28 1.9299-0.8501 2.58-1.14 0.0601 0.5599 0.17 1.6799 0.22 2.24-0.7699-0.12-2.33-0.38-3.11-0.5-1.0599-1.27-0.8099-3.16 0.3101-4.27 2.0699-1.25 4.58-0.29 6.85-0.38-3.62-1.96-7.62-0.37-11.39-0.0699-1.53-1.9301-0.28-3.92 1.72-4.6801 0.0701 0.84 0.1901 2.52 0.25 3.37 3.8399-1.2803-0.2801-5.4803-2.4301-3.1503m28.95-0.1c-0.99 0.55-1.77 1.8101-0.52 2.6 1.02 1.5701 2.26-0.13 2.9801-1.0599-0.5-0.72-1.4902-2.47-2.4601-1.5401m33.01-0.0599c-1.39 1.63-0.0699 3.96 2.02 3.0499 1.35-1.6601 0.01-3.82-2.02-3.0499m33.99-0.3501c-0.13 0.8501-0.38 2.53-0.5 3.37 1.36-0.0199 3.0701 0.3301 3.49-1.51-0.55-1.2501-1.92-1.42-2.99-1.86m34.96 0.45c-3.28 0.15 0.08 4.88 1.5199 2.4399 1.3699-0.8499-0.3-3.4-1.5199-2.4399m-882.11 6.02c-1.41 1.0199-0.41 2.8999-0.46 4.33 2.93 0.08 5.95-0.23 7.88-2.7-2.36 0.7999-4.94 3.21-7.44 1.48-0.17-1.17 0.37-2.2101 0.82-3.2101 0.47 0.77 1.41 2.3101 1.89 3.0801 0.22-1.3301 0.37-2.6901 0.5-4.01-0.79 0.26-2.39 0.77-3.19 1.03m57.26 0.55c-0.44 1.34 0.06 1.84 1.5 1.5 0.44-1.37-0.06-1.87-1.5-1.5m54.38 0.0899c-0.5 1.38-0.03 1.8201 1.41 1.3201 0.5-1.41 0.03-1.84-1.41-1.3201m100.96 0.0401c-0.44 1.39 0.05 1.8101 1.48 1.25 0.43-1.4199-0.06-1.84-1.48-1.25m456.64-0.12c-0.4 1.36 0.11 1.85 1.5299 1.49 0.39-1.39-0.12-1.89-1.5299-1.49m-968.64 7.37c-1.83 1.0801 0.85 4.04 2.33 2.61 0.31-1.23-1.25-2.43-2.33-2.61m14.97 0.28c-1.11 1.38 1.96 3.84 2.61 1.9399-0.36-0.9799-1.47-2.3699-2.61-1.9399m15.25-0.14c-0.88 1.2-0.62 1.87 0.78 2.01 0.87-1.22 0.61-1.89-0.78-2.01m14.93 2.02c1.43-0.14 1.73-0.8 0.89-1.99-1.4 0.11-1.7 0.77-0.89 1.99m15.46-2.06c-0.78 0.4701-2.96 2.0901-1.32 2.8101 1.8 0.8399 3.75-3.21 1.32-2.8101m15.53 0.04c-0.87 1.2-0.6 1.87 0.81 2.01 0.84-1.22 0.57-1.89-0.81-2.01m-99.76 1.64c0.15 3.33 2.95-1.5799 0 0m15.78 0.09c-1.45 2.99 3.36 0 0 0m21.16-0.09c0.58 0.5501 0.58 0.5501 0 0m15.1 0.03c0.56 0.55 0.56 0.55 0 0m3.79-0.09c0.56 0.55 0.56 0.55 0 0m11.17 0.06c0.56 0.53 0.56 0.53 0 0m3.85 0.0599c0.61 0.5201 0.61 0.5201 0 0m5.97 0.0301c-1.62 2.88 3.37 0.2101 0 0m21.11-0.08c0.59 0.53 0.59 0.53 0 0m3.82 0.06c0.61 0.4801 0.61 0.4801 0 0m5.85 0.01c-1.44 3 3.35 0 0 0m-72.61 1.96c0.56 0.53 0.56 0.53 0 0m60.91 0.16c0.58 0.5 0.58 0.5 0 0m-79.95 0.9701c0.6 0.5399 0.6 0.5399 0 0m14.2 1.25c1.23 0.71 2.13 0.46 2.7-0.76-0.17-2.0201-3.92-1.0001-2.7 0.76m14.5-0.3001c0.51 0.26 1.52 0.76 2.03 1.01 0.49-0.24 1.48-0.73 1.97-0.98-1.28-1.49-2.68-1.44-4-0.03m16.31-1c0.19 3.34 2.97-1.65 0 0m15-0.3101c-2.46 1.2401 1.16 3.2101 2.28 1.5701 0.89-1.3201-1.31-2.29-2.28-1.5701m23.39 1.2001c0.47 0.15 1.39 0.45 1.85 0.6 1.1-1.45-1.97-2.48-1.85-0.6m7.83-0.9599c0.58 0.5098 0.58 0.5098 0 0m-79.7 71.74c-4.05 6.9299-6.75 14.8-6.66 22.9-0.02 22.35 0.02 44.69-0.01 67.04 23.67 0.02 47.34 0 71.01 0.01v-56.97c-0.03-8.01 0.59-16.29-2.36-23.91-6.16-16.52-19.17-29.36-32.94-39.85-11.38 8.4102-21.9 18.45-29.04 30.78m360.48 65.33c-11.36 17.04-19.83 36.81-19.83 57.6-0.01 52.48-0.06 104.96 0.03 157.44 52.05-0.01 104.1-0.0701 156.15 0.0299 0.2-53.17 0.07-106.34 0.07-159.51-0.85-28.52-16.4-54.08-34.48-75.16-12.81-14.85-27.44-28.08-43.26-39.65-22.53 16.43-43.07 36.03-58.68 59.25m642.88 3.8099c-9.89 15.83-17.1 33.93-17.31 52.81-0.0199 52.8-0.01 105.59 0 158.39 52.09 0.01 104.19 0.02 156.29 0v-143.41c-0.0699-10.31 0.52-20.76-1.83-30.88-5-23.8-18.91-44.61-34.73-62.63-12.37-13.89-26.24-26.48-41.35-37.33-23.65 17.41-45.24 38.17-61.07 63.05m505.23-56.35c-5.55 5.61-7.39 13.57-8.42 21.13 5.51 0.04 11.03 0.03 16.55 0.02 0.27-7.6-2.23-15.17-7.3-20.87 0.87-1.38 1.5901-4.8-1.12-3.79-1.97 0.37-0.72 2.6001 0.29 3.51m26.86-2.42c0.26 1.0499 0.59 2.1 1.01 3.14-5.0599 5.58-6.72 13.17-7.5599 20.43 5.49 0.01 11 0.01 16.51 0 0.29-7.52-2.2699-14.95-7.3199-20.54 0.25-0.99 0.47-1.96 0.67-2.9199-1.0801-0.93-2.1801-0.9601-3.3101-0.11m30.83 4.57c-4.4601 5.47-5.9301 12.54-7 19.34 5.5099 0.11 11.02 0.0701 16.54 0.05 0.2101-7.5-2.0399-15.12-7.1699-20.72 0.4299-1.41 1.6499-3.37-0.4701-3.99-3.66 0.06 0.33 3.75-1.8999 5.32m30.74-1.35c-5.0701 5.72-6.9401 13.35-7.91 20.74 5.5 0.02 11.01 0.03 16.53 0 0.21-7.51-2.12-15.07-7.2201-20.67 0.6101-1.48 1.9-3.1899-0.1699-4.1-2.7-0.06-1.5901 2.4-1.23 4.03m27.49-2.84c0.52 0.87 1.0599 1.76 1.64 2.6699-5.4501 5.5801-7.25 13.45-8.3 20.92 5.5 0.01 11 0.01 16.51 0 0.22-7.4301-2.0601-14.87-6.92-20.54 0.26-1.25 0.52-2.5 0.72-3.73-1.32-0.3599-2.52 0.1601-3.65 0.6801m-121.32 37.09c-1.1599-0.35-2.2999-0.65-3.4399-0.91 1.35 1.4301 3.26 1.63 5.13 1.75-0.0701-1.37-0.0701-2.72-0.2001-4.0499-1.8901-0.5701-1.08 2.1199-1.49 3.2099m21.33-3.13c-0.9801 0.89-0.8401 2.6899 0.0199 3.67 1.5101 1e-4 1.5501-3.71-0.0199-3.67m40.7 0.26c0.08 0.72 0.25 2.15 0.34 2.87-1.2899-0.3-2.5599-0.55-3.8199-0.74 1.4399 1.12 3.22 1.45 5.03 1.62 0-1.46 0.01-2.89 0.0399-4.3101-0.4001 0.1401-1.19 0.4201-1.59 0.5601m21.36-0.29c-0.96 0.92-0.88 2.7001-0.03 3.71 1.5-0.02 1.6001-3.73 0.03-3.71m-42.16 3.06c-0.7899-0.2001-2.38-0.6001-3.1699-0.8 2.13 2.38 6.2 2.16 8.45 0.04-1.1899 0.24-2.35 0.52-3.48 0.85-0.09-0.95-0.29-2.83-0.39-3.78-0.7101 1.13-1.1702 2.36-1.4101 3.69m62.62 1.35c1.66-0.49 3.41-0.98 4.7101-2.23-0.8201 0.27-2.47 0.7999-3.29 1.0599-0.23-1.2899-0.45-2.5599-0.64-3.8099-1.58 1.31-0.96 3.25-0.7801 4.98m20.63-1.17c-0.72-0.3199-2.1499-0.96-2.87-1.28 0.38 0.63 1.16 1.89 1.54 2.51 0.24-0.22 0.72-0.6599 0.96-0.88 2.0601 0.3501 4.3101 0.64 5.41-1.6499-1.1799 0.4399-2.3199 0.9199-3.4299 1.45-0.02-1.01-0.0701-3.02-0.0901-4.02-1.0399 1.0599-1.55 2.3499-1.52 3.8699m-135.16-0.71c-0.5601 1.61-0.01 2.16 1.64 1.6799 0.5099-1.6499-0.04-2.2099-1.64-1.6799m29.03-0.15c-0.34 1.37 0.1901 1.86 1.6101 1.48 0.3-1.4001-0.23-1.9001-1.6101-1.48m4.9001 0.09c-0.5499 1.4-0.09 1.8301 1.35 1.3 0.51-1.4301 0.06-1.86-1.35-1.3m25.02 0.14c-1.47 3.03 3.35-0.1599 0 0m3.9401-0.06c-0.8501 0.99-1.7001 1.99-2.4801 3.0499 0.38-0.38 1.15-1.1599 1.53-1.5499 1.36 0.28 2.72 0.52 4.12 0.7899-1.07-0.7899-2.13-1.5499-3.1699-2.2899m12.84-0.39c-1.5601 0.3099-1.0801 2.8099 0.54 1.9299 1.53-0.2999 1.0001-2.7999-0.54-1.9299m7.31 0.76c-0.45 1.63 0.13 2.15 1.76 1.5699 0.4-1.6598-0.19-2.1799-1.76-1.5699m4.1099-0.42c-0.37 1.37 0.15 1.88 1.55 1.53 0.3401-1.4-0.1798-1.9-1.55-1.53m3.9301-0.14c-0.36 1.36 0.17 1.86 1.6 1.49 0.32-1.3999-0.22-1.8901-1.6-1.49m4.89 0.12c-0.58 1.38-0.14 1.8301 1.3199 1.3301 0.5401-1.4201 0.1002-1.8701-1.3199-1.3301m3.0599 1.64c0.8201-0.26 2.4801-0.78 3.3-1.0399-0.25 2.1899-1.64 2.95-3.72 2.6299-0.12 0.4601-0.35 1.38-0.47 1.8401-1.26 0.3199-2.4301 0.73-3.63 1.12 1.48 0 3 0.02 4.5299 0.0499l0.1901-1.6799c1.2 0.66 2.4399 1.33 3.71 2.02 2.01-0.23 3.99-0.6901 5.98-1.17 1.64 0.28 3.17 0.95 4.8 1.4301 0.4399-0.15 1.3199-0.4401 1.75-0.5901-0.02-0.5699-0.0701-1.7-0.1-2.27-0.91-0.48-1.8-0.9299-2.6801-1.37 0.6 0.7001 1.79 2.0901 2.38 2.78-0.97 0.02-2.91 0.04-3.88 0.05-0.09-0.55-0.26-1.64-0.34-2.1901-0.79-0.02-2.37-0.08-3.16-0.1 0.0801-0.28 0.24-0.83 0.3301-1.11 0.33-0.27 1.0099-0.83 1.35-1.11-0.92-0.38-2.02-0.79-2.86-1.04 0.4199 1.8301 1.35 3.5 1.6699 5.38-1.83-0.13-3.49-1.6799-5.27-0.4399-2.49-0.36-0.4399-3.62-0.2799-5.0601-1.2699 0.52-2.4898 1.1-3.6 1.87m12.37-1.8c-0.7799 1.1399 1.16 2.49 2.1001 1.6 0.73-1.18-1.21-2.65-2.1001-1.6m9.2601 1.6301c1.3501 0.3999 1.89-0.0901 1.62-1.4601-1.42-0.42-1.96 0.06-1.62 1.4601m21.18-1.3301c-0.5601 1.4-0.11 1.8301 1.34 1.29 0.51-1.42 0.06-1.85-1.34-1.29m-128.58 0.5801c0.5 0.5699 0.5 0.5699 0 0m28.67 0.1499c-0.0399 3.34 3.05-1.42 0 0m61.93-0.32c-0.59 1.5699-0.04 2.12 1.63 1.67 0.56-1.6101 0.01-2.17-1.63-1.67m21.05 0.02c-0.5199 1.59 0.04 2.13 1.6901 1.62 0.4899-1.63-0.0702-2.18-1.6901-1.62m21.09-0.02c-0.5601 1.58-0.02 2.14 1.6499 1.6799 0.5301-1.62-0.0199-2.1799-1.6499-1.6799m-120.49 3.09c0.62 1.25 1.3199 1.25 2.11 0-0.64-1.2899-1.3401-1.2899-2.11 0m32.87-0.34c-1.04 1.25-2.36 2.1899-3.61 3.21 1.1299-0.15 2.2899-0.26 3.46-0.35 0.7-1.03 1.45-2.03 2.1799-3.04-0.51 0.05-1.5198 0.13-2.0299 0.18m19.94-0.24c-1.01 1.72 1.86 2.6899 2.63 1.08 1.14-1.6601-1.9-2.4-2.63-1.08m8.78 0.46c-0.01 1.4 2.39 1.39 2.5 0.03-0.02-1.4499-2.47-1.4499-2.5-0.03m53.59 0.11c0.1901 1.25 2.52 1.36 2.67 0.01-0.18-1.35-2.61-1.44-2.67-0.01m-108.85 0.67c-0.97 1.13-0.74 1.8 0.6899 1.99 0.9301-1.17 0.7001-1.83-0.6899-1.99m28.83 2.1701c1.7001-0.05 3.42-0.0901 5.14-0.15-0.76-0.97-1.53-1.89-2.3099-2.77-1.1401 0.7599-1.9601 1.8799-2.8301 2.92m12.33-2.3901c-0.2201 0.2999-0.67 0.9099-0.89 1.21 0.68 3.13 4.14-2 0.89-1.21m8.98 2.6c1.35 0.21 2.6799 0.22 4.0699 0.29-0.4399-1.0801-0.9-2.12-1.38-3.13-1.9999-0.57-2.2399 1.44-2.6899 2.84m63.74-2.76c-0.47 1.37 0.02 1.8199 1.46 1.36 0.42-1.41-0.06-1.86-1.46-1.36m-117.64 0.9301c-0.79 1.1899 1.22 2.4099 2.17 1.5399 0.71-1.19-1.31-2.55-2.17-1.5399m6.88-0.2101c-1.5601 0.27-1.12 2.72 0.5 1.9601 1.5601-0.2301 1.0601-2.7901-0.5-1.9601m55.09 0.26c-0.71 1.21 1.3201 2.4 2.23 1.48 0.64-1.21-1.3899-2.54-2.23-1.48m48.94-0.27c-1.52 0.35-1.01 2.77 0.5699 1.9501 1.5401-0.3201 0.9602-2.8801-0.5699-1.9501m-783.59 33.77c-6.83 4.84-10.99 13.08-10.91 21.45-0.01 48.91-0.0601 97.83 0.02 146.75 17.74-0.03 35.49-0.01 53.24 0 0.0499-48.59 0.01-97.17 0.02-145.76 0.1899-8.1101-3.27-16.34-9.6801-21.41-8.96-7.8001-23.27-8.2701-32.69-1.0301m-176.35 22.26c-0.11 49.24-0.02 98.49-0.04 147.73 17.76-0.01 35.53 0.01 53.3 0-0.0099-47.87-0.03-95.74 0-143.61 0.07-4.79-0.35-9.71-2.43-14.08-4.39-9.9701-15.41-16.52-26.27-15.51-13.06 0.71-24.4 12.34-24.56 25.47m-75.27-17.8c-5.72 4.9-8.95 12.42-8.89 19.93 0 48.87-0.02 97.74 0.02 146.62 17.74-0.08 35.49 0.0601 53.23-0.0699-0.05-46.17-0.01-92.34-0.02-138.51-0.05-6.0901 0.55-12.45-1.93-18.18-3.26-8.12-10.78-14.42-19.39-16.04-8.08-1.6301-16.94 0.6101-23.02 6.2499m168.65-0.3499c-5.93 4.9-9.35 12.55-9.3 20.22-0.03 48.89 0 97.77-0.01 146.66 17.76 0 35.52-0.01 53.29 0.01 0.02-45.87 0-91.74 0.01-137.6-0.11-5.52 0.47-11.15-1.07-16.52-2.45-8.78-9.8-16.03-18.65-18.27-8.32-2.27-17.8-0.2801-24.27 5.5m770.16 51.15c-8.17 11.42-14.53 24.86-14.45 39.18-0.01 33.45-0.0701 66.91 0.0299 100.37 32.22-0.05 64.43 0 96.66-0.03 0-30.81-0.01-61.61 0-92.42-0.02-6.37 0.27-12.82-1.15-19.07-2.22-10.33-7.3099-19.8-13.39-28.35-9.23-12.85-20.92-23.75-33.56-33.18-12.88 9.4699-24.78 20.49-34.14 33.5z"/>
	<path d="m1916.9 522.84c1.52 1.16 1.91 2.9 1.95 4.75-1.24 0.03-2.46 0.06-3.6599 0.11-0.3301-1.05-0.6001-2.09-0.88-3.12 0.64-0.44 1.9399-1.31 2.5899-1.74z"/>
	<path d="m933.36 716.31c1.51-2.65 3-5.31 4.57-7.93 1.53 2.62 3.01 5.27 4.52 7.92 2.95 0.54 5.92 1.11 8.88 1.72-1.97 2.35-4.55 4.29-6.01 7 0.01 2.94 0.57 5.83 0.91 8.75-2.78-1.24-5.53-2.51-8.27-3.81-2.8 1.27-5.58 2.55-8.38 3.81 0.36-3.01 0.75-6.02 1.14-9.02-2.08-2.22-4.15-4.45-6.15-6.74 2.92-0.62 5.85-1.18 8.79-1.7z"/>
	<path d="m1617.6 831.78c0.04-1.7 1.21-2.5 2.71-2.92 0.05 0.68 0.17 2.03 0.2301 2.71-0.7301 0.05-2.2001 0.15-2.9401 0.21z"/>
	<path d="m87.66 847.67c1 0.4 2 0.82 3.01 1.25-0.26 0.65-0.77 1.95-1.03 2.6-2.11-0.48-2.67-1.91-1.98-3.85z"/>
	<path d="m487.21 1315.8c-1.83-2.6001 1.07-5.55 3.81-5.14 3.31-0.38 3.86 3.45 4.65 5.76l-2.59 0.36c0.21-0.64 0.65-1.91 0.87-2.55-0.61 0.11-1.82 0.3401-2.43 0.4601-0.69-2.55-3.02-1.38-4.2-0.3101 1.02 0.11 3.07 0.3199 4.1 0.4301-1.36 1.6099-2.76 1.9399-4.21 0.9899z"/>
	<path d="m495.63 1314.6c1.14-2.42 3.3-5.04 6.29-3.7 2.84 0.1699 2.38 3.49 2.32 5.5-1.45 0.11-2.47-0.28-3.04-1.17 0.38-0.13 1.14-0.41 1.52-0.55 0.01-0.5599 0.03-1.6799 0.04-2.24-1.9 0.27-2.95 4.1801-4.79 2.27-0.59-0.03-1.76-0.09-2.34-0.11z"/>
	<path d="m632.08 1311.1c2.36-1.3 4.75 0.29 6.71 1.5599-0.2599 0.77-0.78 2.3101-1.03 3.0901-1.47 0.9399-2.85 0.59-4.15-1.03 1.02-0.08 3.06-0.24 4.08-0.3199-1.42-1.29-3.26-2.2401-4.23 0.2699-0.55-0.09-1.65-0.2899-2.2-0.38 0.04 0.4 0.12 1.2201 0.16 1.63l-1.72-0.09c0.6-1.63 0.52-3.97 2.38-4.73z"/>
	<path d="m653.17 1312.9c2.3-1.9301 6.18-3.55 8.37-0.5601 0.46 0.86 1.86 4.2201-0.27 3.38-0.18-0.2999-0.53-0.9-0.71-1.2-0.25 0-0.76-0.01-1.02-0.02-1.3-0.49-2.63-1.8-4-0.72 1.09 0.86 1.29 1.64 0.58 2.35-2.04 0.3301-2.19-1.94-2.95-3.2299z"/>
	<path d="m1242.2 1315.8c-0.8099-2.0701 0.5801-4.66 2.8301-4.9301 2.01-0.8099 3.7899 0.77 5.4299 1.7101-0.12 1.0399-0.37 3.1-0.49 4.14-1.6799-0.3101-3.21-0.9301-4.61-1.8601 1.08-0.12 3.24-0.37 4.3201-0.5-1.92-2.12-3.9501-0.5099-5.7201 0.87-0.44 0.1401-1.32 0.4301-1.76 0.5701z"/>
	<path d="m1265.3 1312.8c2.1-1.45 4.87-3.23 7.2999-1.3101 1.23 0.87 2.61 3.87 0.72 4.5901-0.23-0.3301-0.7-0.98-0.9299-1.3101-1.67-0.78-3.27-1.9299-5.1901-1.66 0.24 0.9301 2.3601 2.29 0.9 3.0801-2.3699 0.84-2.1799-1.9601-2.7999-3.39z"/>
	<path d="m1310.4 1311.5c2.45-1.83 5.23-0.15 7.38 1.28-0.26 0.75-0.76 2.26-1.02 3.02-1.58 0.97-3.11 0.63-4.58-1.05 1.12-0.1 3.34-0.2999 4.46-0.39-1.92-1.9399-4.1801-0.4399-6.17 0.5-0.1599 0.27-0.48 0.8201-0.6399 1.1001-2.0901-0.6401-0.7301-3.62 0.5699-4.4601z"/>
	<path d="m679.18 1313.6c1.4-0.9399 2.45 1.59 1.34 2.45-1.47 0.96-2.6-1.62-1.34-2.45z"/>
	<path d="m1325.4 1313.5c1.4 0.05 1.23 2.49-0.09 2.62-1.5-0.0501-1.17-2.46 0.09-2.62z"/>
	<path d="m511.45 1315.1c1.17-0.96 1.84-0.73 2.02 0.6801-1.18 0.9299-1.85 0.6999-2.02-0.6801z"/>
	<path d="m545.14 1315c3.03-1.51 0.09 3.33 0 0z"/>
	<path d="m578.49 1315.1c2.95-1.7001 0.33 3.2899 0 0z"/>
	<path d="m611.94 1315.1c3.05-1.59 0.2 3.29 0 0z"/>
	<path d="m645.29 1315c2.98-1.6199 0.21 3.32 0 0z"/>
	<path d="m1157 1315.1c3.1099-1.47 0.05 3.29 0 0z"/>
	<path d="m1190.3 1315.1c3.0101-1.5101 0.0801 3.3501 0 0z"/>
	<path d="m1223.5 1315.1c1.1699-0.91 1.85-0.6699 2.04 0.75-1.2 0.89-1.8701 0.64-2.04-0.75z"/>
	<path d="m1257.4 1315.1c3.01-1.5401 0.11 3.34 0 0z"/>
	<path d="m1290.5 1315.1c1.16-0.9399 1.85-0.71 2.0601 0.6901-1.1801 0.9098-1.8701 0.6799-2.0601-0.6901z"/>
</g>
</svg>
