<?xml version="1.0" encoding="UTF-8"?>
<svg version="1.1" viewBox="0 0 2560 1600" xml:space="preserve" xmlns="http://www.w3.org/2000/svg"><defs><linearGradient id="al" x2="1" gradientTransform="matrix(0 147.72 147.72 0 438.96 853.94)" gradientUnits="userSpaceOnUse"><stop stop-color="#ba8b01" offset="0"/><stop stop-color="#ffffcb" offset=".16006"/><stop stop-color="#ffffcb" offset=".18468"/><stop stop-color="#ffffcb" offset=".24921"/><stop stop-color="#ffffcb" offset=".29862"/><stop stop-color="#ecce76" offset=".37317"/><stop stop-color="#ecce76" offset=".43026"/><stop stop-color="#a26f14" offset=".48919"/><stop stop-color="#a26f14" offset=".55185"/><stop stop-color="#a26f14" offset=".60511"/><stop stop-color="#e4ba58" offset=".64015"/><stop stop-color="#e4ba58" offset=".66994"/><stop stop-color="#a65b1a" offset=".67913"/><stop stop-color="#a65b1a" offset=".68566"/><stop stop-color="#a65b1a" offset=".71178"/><stop stop-color="#ffffcd" offset=".77407"/><stop stop-color="#ffffcd" offset=".79568"/><stop stop-color="#e5bd5d" offset=".84676"/><stop stop-color="#bb913b" offset=".88605"/><stop stop-color="#bb913b" offset=".91159"/><stop stop-color="#c5992e" offset=".92033"/><stop stop-color="#c5992e" offset=".95088"/><stop stop-color="#7f470a" offset="1"/></linearGradient><linearGradient id="av" x2="1" gradientTransform="matrix(178.61 0 0 178.61 -89.306 1672.7)" gradientUnits="userSpaceOnUse"><stop stop-color="#000201" offset="0"/><stop stop-color="#000201" offset=".030303"/><stop stop-color="#ffffeb" offset=".13939"/><stop stop-color="#f0d299" offset=".22424"/><stop stop-color="#742a02" offset=".32121"/><stop stop-color="#ca9008" offset=".38788"/><stop stop-color="#e0bc73" offset=".46667"/><stop stop-color="#514514" offset=".51515"/><stop stop-color="#feffea" offset=".57576"/><stop stop-color="#442008" offset=".64848"/><stop stop-color="#5e0100" offset=".74546"/><stop stop-color="#c18507" offset=".81212"/><stop stop-color="#ffffed" offset=".86667"/><stop stop-color="#1e0001" offset=".92727"/><stop stop-color="#bf9e5c" offset="1"/></linearGradient><linearGradient id="ai" x2="1" gradientTransform="matrix(0 516.2 516.2 0 267.88 585.59)" gradientUnits="userSpaceOnUse"><stop stop-color="#ba8b01" offset="0"/><stop stop-color="#ffffcb" offset=".16006"/><stop stop-color="#ffffcb" offset=".18468"/><stop stop-color="#ffffcb" offset=".24921"/><stop stop-color="#ffffcb" offset=".29862"/><stop stop-color="#ecce76" offset=".37317"/><stop stop-color="#ecce76" offset=".43026"/><stop stop-color="#a26f14" offset=".48919"/><stop stop-color="#a26f14" offset=".55185"/><stop stop-color="#a26f14" offset=".60511"/><stop stop-color="#e4ba58" offset=".64015"/><stop stop-color="#e4ba58" offset=".66994"/><stop stop-color="#a65b1a" offset=".67913"/><stop stop-color="#a65b1a" offset=".68566"/><stop stop-color="#a65b1a" offset=".71178"/><stop stop-color="#ffffcd" offset=".77407"/><stop stop-color="#ffffcd" offset=".79568"/><stop stop-color="#e5bd5d" offset=".84676"/><stop stop-color="#bb913b" offset=".88605"/><stop stop-color="#bb913b" offset=".91159"/><stop stop-color="#c5992e" offset=".92033"/><stop stop-color="#c5992e" offset=".95088"/><stop stop-color="#7f470a" offset="1"/></linearGradient><clipPath id="aa"><path d="m0 1600h2560v-1600h-2560v1600z"/></clipPath><linearGradient id="aj" x2="1" gradientTransform="matrix(492.04 0 0 492.04 -353.25 1403.3)" gradientUnits="userSpaceOnUse"><stop stop-color="#000201" offset="0"/><stop stop-color="#000201" offset=".030303"/><stop stop-color="#ffffeb" offset=".13939"/><stop stop-color="#f0d299" offset=".22424"/><stop stop-color="#742a02" offset=".32121"/><stop stop-color="#ca9008" offset=".38788"/><stop stop-color="#e0bc73" offset=".46667"/><stop stop-color="#514514" offset=".51515"/><stop stop-color="#feffea" offset=".57576"/><stop stop-color="#442008" offset=".64848"/><stop stop-color="#5e0100" offset=".74546"/><stop stop-color="#c18507" offset=".81212"/><stop stop-color="#ffffed" offset=".86667"/><stop stop-color="#1e0001" offset=".92727"/><stop stop-color="#bf9e5c" offset="1"/></linearGradient><linearGradient id="ak" x2="1" gradientTransform="matrix(-404.3 0 0 404.3 901.02 781.42)" gradientUnits="userSpaceOnUse"><stop stop-color="#2d0b38" offset="0"/><stop stop-color="#e257f9" offset=".067873"/><stop stop-color="#813edd" offset=".13575"/><stop stop-color="#202fbe" offset=".19231"/><stop stop-color="#0d285b" offset=".25566"/><stop stop-color="#2a5867" offset=".32805"/><stop stop-color="#2c5d58" offset=".38914"/><stop stop-color="#264c0a" offset=".46154"/><stop stop-color="#325b11" offset=".52941"/><stop stop-color="#5b5c14" offset=".59728"/><stop stop-color="#96621c" offset=".65837"/><stop stop-color="#ea8536" offset=".72398"/><stop stop-color="#fff94c" offset=".79412"/><stop stop-color="#e55322" offset=".86652"/><stop stop-color="#72180a" offset=".93665"/><stop stop-color="#2b0401" offset="1"/></linearGradient><clipPath id="ab"><path d="m0 1600h2560v-1600h-2560v1600z"/></clipPath><linearGradient id="am" x2="1" gradientTransform="matrix(412.3 0 0 412.3 -53.314 1600.9)" gradientUnits="userSpaceOnUse"><stop stop-color="#201636" offset="0"/><stop stop-color="#132262" offset=".1"/><stop stop-color="#332327" offset=".2"/><stop stop-color="#a3306c" offset=".3"/><stop stop-color="#d5bc35" offset=".4"/><stop stop-color="#056215" offset=".5"/><stop stop-color="#27fbff" offset=".6"/><stop stop-color="#00006a" offset=".7"/><stop stop-color="#a21c2f" offset=".8"/><stop stop-color="#7a0f0f" offset=".9"/><stop stop-color="#f9d648" offset="1"/></linearGradient><linearGradient id="an" x2="1" gradientTransform="matrix(281.5 -335.48 -335.48 -281.5 1029.7 963.36)" gradientUnits="userSpaceOnUse"><stop stop-color="#e02081" offset="0"/><stop stop-color="#bd506c" offset=".07109"/><stop stop-color="#bd506c" offset=".15"/><stop stop-color="#ea895f" offset=".3"/><stop stop-color="#a32175" offset=".47"/><stop stop-color="#f8d429" offset=".64045"/><stop stop-color="#009c4c" offset=".79"/><stop stop-color="#e02181" offset="1"/></linearGradient><clipPath id="ac"><path d="m0 1600h2560v-1600h-2560v1600z"/></clipPath><linearGradient id="ao" x2="1" gradientTransform="matrix(397.16 0 0 397.16 -64.452 1646.1)" gradientUnits="userSpaceOnUse"><stop stop-color="#065a8c" offset="0"/><stop stop-color="#065a8c" offset=".056724"/><stop stop-color="#09acd7" offset=".09697"/><stop stop-color="#084478" offset=".15758"/><stop stop-color="#9bedff" offset=".21818"/><stop stop-color="#006faa" offset=".26061"/><stop stop-color="#122942" offset=".31515"/><stop stop-color="#009acd" offset=".38788"/><stop stop-color="#0b426c" offset=".44848"/><stop stop-color="#00a7cf" offset=".50909"/><stop stop-color="#0087c9" offset=".55152"/><stop stop-color="#045c92" offset=".60351"/><stop stop-color="#045c92" offset=".61212"/><stop stop-color="#095181" offset=".65454"/><stop stop-color="#095181" offset=".69407"/><stop stop-color="#095181" offset=".71515"/><stop stop-color="#007cb4" offset=".74677"/><stop stop-color="#007cb4" offset=".76364"/><stop stop-color="#007cb4" offset=".7944"/><stop stop-color="#e3fafa" offset=".84848"/><stop stop-color="#e3fafa" offset=".88591"/><stop stop-color="#0891bd" offset=".92121"/><stop stop-color="#043e5f" offset=".95758"/><stop stop-color="#2e9ddc" offset="1"/></linearGradient><linearGradient id="ap" x2="1" gradientTransform="matrix(269.22 339.72 339.72 -269.22 1383.5 619.83)" gradientUnits="userSpaceOnUse"><stop stop-color="#071747" offset="0"/><stop stop-color="#001957" offset=".054546"/><stop stop-color="#004fa3" offset=".085611"/><stop stop-color="#004fa3" offset=".11162"/><stop stop-color="#004fa3" offset=".12999"/><stop stop-color="#001c5a" offset=".20273"/><stop stop-color="#001c5a" offset=".23032"/><stop stop-color="#001c5a" offset=".2369"/><stop stop-color="#004fa3" offset=".29943"/><stop stop-color="#004fa3" offset=".31435"/><stop stop-color="#0148a0" offset=".34852"/><stop stop-color="#0059ba" offset=".51253"/><stop stop-color="#0059ba" offset=".52374"/><stop stop-color="#08b7fe" offset=".55125"/><stop stop-color="#08b7fe" offset=".55899"/><stop stop-color="#fbffff" offset=".59681"/><stop stop-color="#fbffff" offset=".62642"/><stop stop-color="#11bffa" offset=".66743"/><stop stop-color="#005ab8" offset=".69707"/><stop stop-color="#005ab8" offset=".70615"/><stop stop-color="#00215e" offset=".78132"/><stop stop-color="#00215e" offset=".8041"/><stop stop-color="#005ab8" offset=".85421"/><stop stop-color="#00408d" offset=".89749"/><stop stop-color="#00408d" offset=".92542"/><stop stop-color="#00408d" offset=".94305"/><stop stop-color="#34508f" offset=".97796"/><stop stop-color="#34508f" offset="1"/></linearGradient><clipPath id="ad"><path d="m0 1600h2560v-1600h-2560v1600z"/></clipPath><linearGradient id="aq" x2="1" gradientTransform="matrix(468.04 0 0 468.04 -351.88 1553.1)" gradientUnits="userSpaceOnUse"><stop stop-color="#065a8c" offset="0"/><stop stop-color="#065a8c" offset=".056724"/><stop stop-color="#09acd7" offset=".09697"/><stop stop-color="#084478" offset=".15758"/><stop stop-color="#9bedff" offset=".21818"/><stop stop-color="#006faa" offset=".26061"/><stop stop-color="#122942" offset=".31515"/><stop stop-color="#009acd" offset=".38788"/><stop stop-color="#0b426c" offset=".44848"/><stop stop-color="#00a7cf" offset=".50909"/><stop stop-color="#0087c9" offset=".55152"/><stop stop-color="#045c92" offset=".60351"/><stop stop-color="#045c92" offset=".61212"/><stop stop-color="#095181" offset=".65454"/><stop stop-color="#095181" offset=".69407"/><stop stop-color="#095181" offset=".71515"/><stop stop-color="#007cb4" offset=".74677"/><stop stop-color="#007cb4" offset=".76364"/><stop stop-color="#007cb4" offset=".7944"/><stop stop-color="#e3fafa" offset=".84848"/><stop stop-color="#e3fafa" offset=".88591"/><stop stop-color="#0891bd" offset=".92121"/><stop stop-color="#043e5f" offset=".95758"/><stop stop-color="#2e9ddc" offset="1"/></linearGradient><linearGradient id="ar" x2="1" gradientTransform="matrix(330.3 0 0 -330.3 2203.6 840.53)" gradientUnits="userSpaceOnUse"><stop stop-color="#5c2d00" offset="0"/><stop stop-color="#5c2d00" offset=".031716"/><stop stop-color="#5c2d00" offset=".057909"/><stop stop-color="#e47009" offset=".076492"/><stop stop-color="#e47009" offset=".086455"/><stop stop-color="#ffef9b" offset=".097015"/><stop stop-color="#ffef9b" offset=".10896"/><stop stop-color="#f99f3e" offset=".13246"/><stop stop-color="#f99f3e" offset=".13526"/><stop stop-color="#f99f3e" offset=".14179"/><stop stop-color="#7d410d" offset=".15744"/><stop stop-color="#7d410d" offset=".19403"/><stop stop-color="#7d410d" offset=".23168"/><stop stop-color="#603005" offset=".26306"/><stop stop-color="#4e2100" offset=".27018"/><stop stop-color="#4e2100" offset=".29851"/><stop stop-color="#4e2100" offset=".39179"/><stop stop-color="#fac47c" offset=".42164"/><stop stop-color="#fabe6f" offset=".47202"/><stop stop-color="#fffff3" offset=".49685"/><stop stop-color="#fffff3" offset=".5541"/><stop stop-color="#edb275" offset=".57463"/><stop stop-color="#edb275" offset=".58237"/><stop stop-color="#93571b" offset=".59328"/><stop stop-color="#93571b" offset=".61008"/><stop stop-color="#b46e21" offset=".62873"/><stop stop-color="#b46e21" offset=".64032"/><stop stop-color="#f1b370" offset=".65485"/><stop stop-color="#f0ae66" offset=".69403"/><stop stop-color="#f0ae66" offset=".70074"/><stop stop-color="#a78352" offset=".71642"/><stop stop-color="#a78352" offset=".72251"/><stop stop-color="#a78352" offset=".73321"/><stop stop-color="#ffd9a8" offset=".75115"/><stop stop-color="#ffd9a8" offset=".75373"/><stop stop-color="#ffd9a8" offset=".76492"/><stop stop-color="#a86c32" offset=".77435"/><stop stop-color="#a86c32" offset=".78545"/><stop stop-color="#a26115" offset=".86008"/><stop stop-color="#a26115" offset=".87968"/><stop stop-color="#ffd4a6" offset=".88806"/><stop stop-color="#ffd4a6" offset=".89925"/><stop stop-color="#bd8f61" offset=".92537"/><stop stop-color="#bd8f61" offset=".9373"/><stop stop-color="#806346" offset=".94216"/><stop stop-color="#806346" offset=".9526"/><stop stop-color="#806346" offset=".95522"/><stop stop-color="#806346" offset=".97162"/><stop stop-color="#fff6c5" offset=".97575"/><stop stop-color="#fff6c5" offset="1"/></linearGradient><clipPath id="ae"><path d="m0 1600h2560v-1600h-2560v1600z"/></clipPath><linearGradient id="as" x2="1" gradientTransform="matrix(2.4305e-8 -541.34 541.34 2.4305e-8 -135.01 1988.2)" gradientUnits="userSpaceOnUse"><stop stop-color="#e5e5e5" offset="0"/><stop stop-color="#999" offset=".03"/><stop stop-color="#333" offset=".08"/><stop stop-color="#666" offset=".14"/><stop stop-color="#d9d1d1" offset=".29"/><stop stop-color="#fff" offset=".33"/><stop stop-color="#393838" offset=".51"/><stop stop-color="#4c4c4c" offset=".6"/><stop stop-color="#909092" offset=".65"/><stop stop-color="#909092" offset=".77"/><stop stop-color="#fff" offset=".82"/><stop stop-color="#909092" offset=".89"/><stop stop-color="#e5e5e5" offset=".98"/><stop stop-color="#e5e5e5" offset="1"/></linearGradient><linearGradient id="at" x2="1" gradientTransform="matrix(55.957 0 0 -55.957 1763.8 778.71)" gradientUnits="userSpaceOnUse"><stop stop-color="#00a8de" offset="0"/><stop stop-color="#333391" offset=".2"/><stop stop-color="#e91388" offset=".4"/><stop stop-color="#eb2d2e" offset=".6"/><stop stop-color="#fde92b" offset=".8"/><stop stop-color="#009e54" offset="1"/></linearGradient><clipPath id="af"><path d="m0 1600h2560v-1600h-2560v1600z"/></clipPath><linearGradient id="au" x2="1" gradientTransform="matrix(63.957 0 0 63.957 1759.8 821.3)" gradientUnits="userSpaceOnUse"><stop stop-color="#491d19" offset="0"/><stop stop-color="#491d19" offset=".024055"/><stop stop-color="#4e1b19" offset=".068728"/><stop stop-color="#621719" offset=".15464"/><stop stop-color="#58151b" offset=".19416"/><stop stop-color="#58151b" offset=".2165"/><stop stop-color="#cf2b29" offset=".2457"/><stop stop-color="#fcdb74" offset=".2835"/><stop stop-color="#fcdb74" offset=".3299"/><stop stop-color="#f48285" offset=".37801"/><stop stop-color="#d75d71" offset=".41237"/><stop stop-color="#d65851" offset=".45189"/><stop stop-color="#af2b29" offset=".47423"/><stop stop-color="#681419" offset=".49828"/><stop stop-color="#681419" offset=".52749"/><stop stop-color="#9f1f21" offset=".56186"/><stop stop-color="#9a221f" offset=".61168"/><stop stop-color="#a22926" offset=".6701"/><stop stop-color="#972a2d" offset=".70275"/><stop stop-color="#972f2d" offset=".7354"/><stop stop-color="#701417" offset=".75601"/><stop stop-color="#701417" offset=".78694"/><stop stop-color="#952924" offset=".80584"/><stop stop-color="#ffa06f" offset=".83677"/><stop stop-color="#ffa06f" offset=".90206"/><stop stop-color="#952924" offset=".93471"/><stop stop-color="#3b1015" offset=".95361"/><stop stop-color="#3b1015" offset=".97613"/><stop stop-color="#5f3033" offset="1"/></linearGradient><linearGradient id="aw" x2="1" gradientTransform="matrix(123.17 0 0 -123.17 1728.1 1059.2)" gradientUnits="userSpaceOnUse"><stop stop-color="#00a8de" offset="0"/><stop stop-color="#333391" offset=".2"/><stop stop-color="#e91388" offset=".4"/><stop stop-color="#eb2d2e" offset=".6"/><stop stop-color="#fde92b" offset=".8"/><stop stop-color="#009e54" offset="1"/></linearGradient><clipPath id="ag"><path d="m0 1600h2560v-1600h-2560v1600z"/></clipPath><linearGradient id="ax" x2="1" gradientTransform="matrix(131.17 0 0 131.17 -117.33 1600)" gradientUnits="userSpaceOnUse"><stop stop-color="#491d19" offset="0"/><stop stop-color="#491d19" offset=".024055"/><stop stop-color="#4e1b19" offset=".068728"/><stop stop-color="#621719" offset=".15464"/><stop stop-color="#58151b" offset=".19416"/><stop stop-color="#58151b" offset=".2165"/><stop stop-color="#cf2b29" offset=".2457"/><stop stop-color="#fcdb74" offset=".2835"/><stop stop-color="#fcdb74" offset=".3299"/><stop stop-color="#f48285" offset=".37801"/><stop stop-color="#d75d71" offset=".41237"/><stop stop-color="#d65851" offset=".45189"/><stop stop-color="#af2b29" offset=".47423"/><stop stop-color="#681419" offset=".49828"/><stop stop-color="#681419" offset=".52749"/><stop stop-color="#9f1f21" offset=".56186"/><stop stop-color="#9a221f" offset=".61168"/><stop stop-color="#a22926" offset=".6701"/><stop stop-color="#972a2d" offset=".70275"/><stop stop-color="#972f2d" offset=".7354"/><stop stop-color="#701417" offset=".75601"/><stop stop-color="#701417" offset=".78694"/><stop stop-color="#952924" offset=".80584"/><stop stop-color="#ffa06f" offset=".83677"/><stop stop-color="#ffa06f" offset=".90206"/><stop stop-color="#952924" offset=".93471"/><stop stop-color="#3b1015" offset=".95361"/><stop stop-color="#3b1015" offset=".97613"/><stop stop-color="#5f3033" offset="1"/></linearGradient><linearGradient id="ay" x2="1" gradientTransform="matrix(411.66 0 0 -411.66 1832.3 782.58)" gradientUnits="userSpaceOnUse"><stop stop-color="#833612" offset="0"/><stop stop-color="#833612" offset=".041322"/><stop stop-color="#833612" offset=".079047"/><stop stop-color="#f56d3a" offset=".11157"/><stop stop-color="#270e05" offset=".1405"/><stop stop-color="#080000" offset=".18044"/><stop stop-color="#080000" offset=".21212"/><stop stop-color="#080000" offset=".24825"/><stop stop-color="#9d531d" offset=".3168"/><stop stop-color="#9d531d" offset=".3416"/><stop stop-color="#9d531d" offset=".35252"/><stop stop-color="#8d939e" offset=".40083"/><stop stop-color="#8d939e" offset=".4221"/><stop stop-color="#fafffc" offset=".45454"/><stop stop-color="#fafffc" offset=".46694"/><stop stop-color="#8d939e" offset=".49953"/><stop stop-color="#8d939e" offset=".52755"/><stop stop-color="#895f3b" offset=".57576"/><stop stop-color="#965f3e" offset=".60744"/><stop stop-color="#965f3e" offset=".62259"/><stop stop-color="#965f3e" offset=".64638"/><stop stop-color="#ffa269" offset=".72039"/><stop stop-color="#cb7748" offset=".76171"/><stop stop-color="#3c2314" offset=".81246"/><stop stop-color="#3c2314" offset=".83058"/><stop stop-color="#3c2314" offset=".84573"/><stop stop-color="#cd7841" offset=".92149"/><stop stop-color="#cd7841" offset=".93664"/><stop stop-color="#764021" offset=".97658"/><stop stop-color="#764021" offset="1"/></linearGradient><clipPath id="ah"><path d="m0 1600h2560v-1600h-2560v1600z"/></clipPath><linearGradient id="az" x2="1" gradientTransform="matrix(1.8048e-8 -401.98 401.98 1.8048e-8 -167.63 1719.9)" gradientUnits="userSpaceOnUse"><stop stop-color="#000201" offset="0"/><stop stop-color="#000201" offset=".030303"/><stop stop-color="#ffffeb" offset=".13939"/><stop stop-color="#f0d299" offset=".22424"/><stop stop-color="#742a02" offset=".32121"/><stop stop-color="#ca9008" offset=".38788"/><stop stop-color="#e0bc73" offset=".46667"/><stop stop-color="#514514" offset=".51515"/><stop stop-color="#feffea" offset=".57576"/><stop stop-color="#442008" offset=".64848"/><stop stop-color="#5e0100" offset=".74546"/><stop stop-color="#c18507" offset=".81212"/><stop stop-color="#ffffed" offset=".86667"/><stop stop-color="#1e0001" offset=".92727"/><stop stop-color="#bf9e5c" offset="1"/></linearGradient></defs><g transform="matrix(1.25,0,0,-1.25,0,1600)"><g transform="matrix(.80014 0 0 .80014 -.34757 -.041844)"><path d="m438.97 1001.7 19.123-55.338 58.535-1.09-46.718-35.288 17.057-56.005-47.997 33.521-47.997-33.521 17.054 56.005-46.717 35.288 58.536 1.09 19.124 55.338z" fill="url(#al)"/><g transform="translate(438.97 1001.7)"><path d="M 0,0 19.124,-55.338 77.658,-56.428 30.94,-91.716 47.997,-147.721 0,-114.2 l -47.997,-33.521 17.055,56.005 -46.718,35.288 58.536,1.09 L 0,0 Z" fill="none" stroke="url(#av)" stroke-width="8"/></g><path d="m26.545 843.68c0-142.54 123.03-258.1 274.79-258.1 83.087 0 157.49 34.68 207.88 89.419-1.887 2.159-3.796 4.192-5.714 6.129-36.581-21.583-80.471-34.184-127.71-34.184-127.59 0-231.02 91.717-231.02 204.86 0 113.13 103.43 204.85 231.02 204.85 31.147 0 60.803-5.548 87.911-15.467 2.627 1.84 4.814 3.823 6.628 5.886-46.615 34.231-105.23 54.704-168.99 54.704-151.76 0-274.79-115.55-274.79-258.1" fill="url(#ai)"/><g clip-path="url(#aa)"><g transform="translate(375.79 646.95)"><path d="m0 0c-127.59 0-231.02 91.717-231.02 204.86 0 113.13 103.43 204.85 231.02 204.85 31.146 0 60.803-5.549 87.91-15.467 2.627 1.84 4.814 3.823 6.629 5.885-46.615 34.232-105.23 54.705-168.99 54.705-151.76 0-274.79-115.55-274.79-258.1s123.03-258.1 274.79-258.1c83.088 0 157.49 34.681 207.88 89.42-1.886 2.159-3.795 4.192-5.713 6.129-36.581-21.583-80.472-34.185-127.71-34.185z" fill="none" stroke="url(#aj)" stroke-width="8"/></g></g><path d="m496.72 781.41c0-108.15 90.506-195.83 202.15-195.83 111.64 0 202.15 87.676 202.15 195.83 0 108.16-90.506 195.83-202.15 195.83-111.64 0-202.15-87.678-202.15-195.83m229.22 23.516v125.17c73.379-11.691 129.37-73.389 129.37-147.78 0-33.181-11.151-63.821-29.995-88.643l-99.375 111.26zm-179.91-22.612c0 73.78 55.078 135.06 127.56 147.47v-128.22l-93.958-112.44c-21.017 25.582-33.607 57.957-33.607 93.192m179.91-55.928 61.069-68.37c-18.019-11.77-38.745-19.933-61.069-23.486v91.856zm-106.66-71.449 54.311 64.992v-85.084c-19.63 3.356-37.985 10.283-54.311 20.092" fill="url(#ak)"/><g clip-path="url(#ab)"><g transform="translate(546.03 782.32)"><path d="m0 0c0 73.781 55.077 135.06 127.56 147.47v-128.22l-93.959-112.44c-21.016 25.582-33.605 57.957-33.605 93.192zm179.91-55.928 61.069-68.37c-18.019-11.77-38.745-19.932-61.069-23.486v91.856zm-52.345-91.541c-19.63 3.356-37.985 10.283-54.31 20.092l54.31 64.993v-85.085zm181.72 147.47c0-33.181-11.151-63.821-29.995-88.643l-99.375 111.26v125.17c73.379-11.692 129.37-73.39 129.37-147.78zm-156.44 194.93c-111.64 0-202.15-87.678-202.15-195.83 0-108.15 90.506-195.83 202.15-195.83 111.64 0 202.15 87.677 202.15 195.83 0 108.16-90.506 195.83-202.15 195.83z" fill="none" stroke="url(#am)" stroke-width="8"/></g></g><path d="m1208.8 1028.7 26.102-12.929-40.395-56.802-3.711-5.217c-23.069 10.829-48.631 17.168-75.587 17.962-1.894 0.052-3.783 0.142-5.692 0.142-106.16 0-192.22-86.46-192.22-193.12 0-100.24 76.005-182.62 173.27-192.18v-44.259h-30.687v-28.88h30.687v-34.298h43.317v34.298h27.074v28.88h-27.074v43.722c66.119 3.825 123.7 37.469 157.97 86.928l-14.967 10.842-32.11 23.276c-25.574-42.494-72.128-70.92-125.33-70.92-2.377 0-4.743 0.075-7.094 0.181-75.057 3.595-135.27 63.757-138.92 138.8h328.22c0.021 1.206 0.092 2.403 0.092 3.608 0 13.611-1.419 26.89-4.087 39.71-8.759 42.111-31.194 79.151-62.401 106.3l6.074 10.062 36.16 59.879 27.862-13.801-12.635 83.024-83.913-35.206zm-96.453-100.34c59.101-3.114 108.06-48.843 122.13-109.91h-256.73c15.511 61.071 69.465 106.8 134.6 109.91" fill="url(#an)"/><g clip-path="url(#ac)"><g transform="translate(977.71 818.42)"><path d="m0 0c15.511 61.071 69.465 106.8 134.6 109.92 59.102-3.115 108.06-48.844 122.14-109.92h-256.73zm257.5 106.3 6.074 10.063 36.16 59.878 27.863-13.801-12.636 83.024-83.913-35.206 26.101-12.929-40.394-56.802-3.711-5.217c-23.07 10.829-48.631 17.168-75.587 17.962-1.894 0.052-3.783 0.143-5.692 0.143-106.16 0-192.22-86.461-192.22-193.12 0-100.24 76.005-182.62 173.27-192.18v-44.259h-30.686v-28.88h30.686v-34.298h43.317v34.298h27.073v28.88h-27.073v43.721c66.119 3.827 123.7 37.47 157.97 86.929l-14.967 10.842-32.11 23.276c-25.574-42.494-72.128-70.92-125.33-70.92-2.378 0-4.742 0.075-7.095 0.18-75.055 3.596-135.27 63.758-138.92 138.8h328.22c0.021 1.206 0.092 2.403 0.092 3.609 0 13.61-1.419 26.888-4.087 39.709-8.758 42.112-31.194 79.151-62.401 106.3z" fill="none" stroke="url(#ao)" stroke-width="8"/></g></g><path d="m1453.3 923.48h-161.04l80.522-132.4-80.522-132.41h161.04l65.858-108.29 65.859 108.29h161.04l-80.523 132.41 80.523 132.4h-161.04l-65.859 108.29-65.858-108.29zm65.858 14.513 8.826-14.513h-17.651l8.825 14.513zm95.494-63.235h44.75l-22.38-36.791-22.37 36.791zm-184.84-83.679 50.891 83.679h76.914l50.892-83.684-50.892-83.677h-76.914l-50.891 83.682zm-50.887 83.679h44.742l-22.373-36.787-22.369 36.787zm22.369-130.57 22.373-36.789h-44.75l22.377 36.789zm235.73-4e-3 22.372-36.785h-44.742l22.37 36.785zm-126.69-85.509h17.651l-8.826-14.513-8.825 14.513z" fill="url(#ap)"/><g clip-path="url(#ad)"><g transform="translate(1637.1 744.19)"><path d="m0 0 22.373-36.785h-44.742l22.369 36.785zm-117.86-100.02-8.825 14.513h17.651l-8.826-14.513zm-140.24 63.237 22.376 36.789 22.373-36.789h-44.749zm8e-3 167.36h44.741l-22.373-36.787-22.368 36.787zm140.24 63.235 8.826-14.513h-17.651l8.825 14.513zm89.349-146.92-50.892-83.677h-76.914l-50.891 83.682 50.891 83.679h76.914l50.892-83.684zm50.895 83.684-22.381-36.791l-22.369 36.791h44.75zm6.137-83.679 80.523 132.4h-161.05l-65.858 108.29-65.858-108.29h-161.04l80.522-132.4-80.522-132.41h161.04l65.858-108.29 65.858 108.29h161.05l-80.523 132.41z" fill="none" stroke="url(#aq)" stroke-width="8"/></g></g><path d="m2309.2 1107.2 22.104-27.366v-121.76h-97.556l-30.136 23.011v-104.69l30.136 23.013h97.556v-298.19l-22.104-27.363h119.12l-22.113 27.372v298.18h97.566l30.136-23.013v104.69l-30.136-23.011h-97.566v121.75l22.113 27.378h-119.12z" fill="url(#ar)"/><g clip-path="url(#ae)"><g transform="translate(2503.8 958.07)"><path d="m0 0h-97.565v121.75l22.112 27.378h-119.12l22.104-27.365v-121.76h-97.557l-30.136 23.011v-104.68l30.136 23.014h97.557v-298.19l-22.104-27.363h119.12l-22.112 27.371v298.19h97.565l30.135-23.014v104.68l-30.135-23.011z" fill="none" stroke="url(#as)" stroke-width="8"/></g></g><path d="m1763.8 589.19h55.957v379.03h-55.957v-379.03z" fill="url(#at)"/><g clip-path="url(#af)"><path d="m1819.7 589.19h-55.957v379.03h55.957v-379.03z" fill="none" stroke="url(#au)" stroke-width="8"/></g><path d="m1728.1 1059.2c0-20.831 10.351-39.249 26.174-50.381 0.186-0.266 0.416-0.499 0.689-0.686 0.281-0.194 0.588-0.328 0.908-0.404 9.703-6.385 21.334-10.117 33.815-10.117 12.442 0 24.053 3.708 33.752 10.071 0.349 0.078 0.685 0.223 0.988 0.439 0.281 0.198 0.516 0.441 0.702 0.718 15.81 11.135 26.145 29.552 26.145 50.36-0.013 34.02-27.583 61.587-61.587 61.587-34.017 0-61.586-27.567-61.586-61.587m76.33 20.014-9.787 31.434c19.327-1.868 35.504-14.31 42.721-31.486l-32.934 0.052zm-19.73 31.434-9.775-31.423-32.917-0.063c7.205 17.174 23.381 29.612 42.692 31.486m4.974-17.992 4.183-13.431h-8.354l4.171 13.431zm23.72-42.389 26.721 20.439c0.845-3.699 1.307-7.547 1.311-11.506-0.033-15.935-7.251-30.119-18.572-39.601l-9.46 30.668zm-75.457 8.933c0.014 3.955 0.467 7.801 1.312 11.5l19.213-14.703 7.499-5.73-9.447-30.668c-11.325 9.482-18.542 23.668-18.577 39.601m39.761-5.179 4.679 15.101h14.614l4.667-15.109-11.984-9.133-11.976 9.141zm-19.726 15.08 13.819 0.021-2.651-8.563-11.168 8.542zm49.597 0.015 13.819-0.015-11.169-8.548-2.65 8.563zm-9.548-30.583 6.817 5.2 4.183-13.568-11 8.368zm-23.495 5.2 6.813-5.2-11.002-8.368 4.189 13.568zm-9.233-30.091 24.381 18.541 24.377-18.548c-7.26-3.917-15.535-6.158-24.365-6.168-8.838 0.01-17.117 2.261-24.393 6.175" fill="url(#aw)"/><g clip-path="url(#ag)"><g transform="translate(1841.4 1059.2)"><path d="m0 0c-0.034-15.935-7.25-30.119-18.571-39.602l-9.46 30.669 26.72 20.439c0.845-3.699 1.307-7.547 1.311-11.506zm-51.752-27.017 24.376-18.548c-7.258-3.917-15.534-6.158-24.364-6.168-8.838 0.01-17.117 2.262-24.393 6.175l24.381 18.541zm-50.425 38.516 19.214-14.702 7.498-5.73-9.447-30.669c-11.325 9.483-18.542 23.669-18.576 39.602 0.013 3.955 0.466 7.801 1.311 11.499zm45.451 39.949-9.775-31.423-32.916-0.063c7.204 17.174 23.381 29.612 42.691 31.486zm0.803-31.423 4.171 13.431 4.184-13.431h-8.355zm11.489-10.103 4.666-15.11-11.984-9.132-11.976 9.141 4.679 15.101h14.615zm-15.652-30.589-11.002-8.368 4.188 13.568 6.814-5.2zm-12.199 22.026-11.17 8.542 13.821 0.021-2.651-8.563zm28.879-22.026 6.818 5.2 4.184-13.568-11.002 8.368zm23.369 30.568-11.17-8.548-2.65 8.563 13.82-0.015zm15.975 10.061-32.933 0.052-9.788 31.434c19.327-1.867 35.505-14.31 42.721-31.486zm-47.678 41.624c-34.017 0-61.586-27.567-61.586-61.586 0-20.831 10.351-39.249 26.175-50.381 0.185-0.266 0.416-0.5 0.688-0.687 0.282-0.193 0.589-0.327 0.908-0.403 9.703-6.385 21.335-10.117 33.815-10.117 12.443 0 24.053 3.707 33.753 10.071 0.348 0.078 0.685 0.223 0.987 0.439 0.281 0.197 0.517 0.441 0.702 0.718 15.811 11.134 26.145 29.552 26.145 50.36-0.013 34.019-27.582 61.586-61.587 61.586z" fill="none" stroke="url(#ax)" stroke-width="8"/></g></g><path d="m1904.4 950.47c-26.935-18.134-42.822-43.128-42.843-71.584v-0.01c0-6.807 0.622-12.938 1.583-18.531 3.143-18.274 10.372-30.178 15.073-36.278 17.453-22.474 56.39-41.263 86.718-50.896l88.862-28.967c54.731-17.466 56.356-39.461 56.058-47.598 0.021-18.697-12.593-31.493-28.561-39.184-16.012-7.758-35.672-10.943-51.609-10.964-67.858-0.071-97.254 37.865-108.32 60.406l-3.448 6.969-7.218-3.238-43.968-19.74-9.808-4.402-6.407-2.886-8.502-3.801 5.137-7.6c11.843-17.487 24.794-36.713 58.63-56.923 35.865-21.767 86.81-29.673 119.12-29.652 26.468 0 70.121 0.029 113.13 26.796 21.117 12.955 36.05 29.207 44.564 48.156 2.017 2.47 3.97 4.995 5.865 7.562 1.626 2.201 3.213 4.456 4.746 6.733 20.126 29.917 31.875 65.632 31.875 104.03h0.013c-0.013 40.343-12.951 77.733-34.979 108.54-0.525 0.727-1.059 1.441-1.588 2.165-1.63 2.213-3.301 4.382-5.019 6.52l-1.924 3.071c-32.959 52.539-91.025 80.362-169 80.409h-0.058c-43.324 1e-3 -81.215-11.015-108.12-29.1m286.56-249.94c-0.042 28.212-11.531 43.617-17.912 52.269l-0.689 0.933-0.042 0.042-0.16 0.201c-20.361 25.537-54.133 41.235-78.854 49.741l-100.06 32.488c-32.089 10.515-49.11 24.784-49.194 44.143 0 14.999 11.254 25.105 24.939 31.148 13.791 6.131 30.506 8.664 43.591 8.691 54.042 0.185 74.306-22.199 96.594-54.539l3.772-5.394 6.159 2.608 57.712 24.581c0.556-0.71 1.097-1.435 1.639-2.153 0.538-0.718 1.063-1.449 1.584-2.174 21.566-29.428 34.269-65.373 34.269-104.25h0.012c-0.012-27.725-6.485-53.975-17.995-77.423-0.915-1.857-1.844-3.692-2.819-5.511-0.987-1.844-2.029-3.671-3.092-5.482 0.328 3.314 0.539 6.654 0.547 10.081m-186.48 172.35c0-12.617 10.538-22.85 23.535-22.85 13.002 0 23.545 10.233 23.545 22.85 0 12.619-10.543 22.851-23.545 22.851-12.997 0-23.535-10.232-23.535-22.851m-172.19-94.013c0-31.674 8.007-61.519 22.087-87.799l9.775 4.391 44.288 19.881 12.005 5.393 5.751-11.585c10.754-21.474 37.878-57.393 103.48-57.453 15.202-0.021 34.26 3.121 49.207 10.401 14.992 7.368 25.557 18.324 25.578 34.513-0.315 6.856 1.323 24.704-52.396 42.645l-88.836 28.964c-30.933 9.931-70.386 28.594-89.306 52.711-4.487 5.784-10.859 16.306-14.618 31.643-1.327 5.393-2.29 11.363-2.756 17.985-15.433-27.201-24.255-58.43-24.255-91.69m172.19-73.769c0 12.615 10.538 22.848 23.535 22.848 13.002 0 23.545-10.233 23.545-22.848 0-12.622-10.543-22.851-23.545-22.851-12.997 0-23.535 10.229-23.535 22.851" fill="url(#ay)"/><g clip-path="url(#ah)"><g transform="translate(2196.4 701.44)"><path d="m0 0c-0.916-1.857-1.844-3.692-2.819-5.511-0.987-1.845-2.029-3.672-3.091-5.482 0.327 3.314 0.537 6.654 0.545 10.081-0.041 28.212-11.53 43.616-17.911 52.269l-0.689 0.933-0.042 0.042-0.16 0.202c-20.36 25.536-54.134 41.233-78.855 49.74l-100.06 32.488c-32.089 10.514-49.11 24.784-49.194 44.143 0 14.998 11.254 25.105 24.939 31.148 13.791 6.131 30.506 8.663 43.591 8.691 54.042 0.185 74.306-22.199 96.595-54.54l3.772-5.393 6.158 2.608 57.713 24.581c0.555-0.711 1.096-1.435 1.638-2.153 0.538-0.719 1.063-1.449 1.584-2.174 21.566-29.428 34.269-65.373 34.269-104.25h0.013c-0.013-27.725-6.486-53.975-17.996-77.423zm-6.217 185.96c-0.525 0.726-1.059 1.441-1.588 2.165-1.63 2.212-3.301 4.382-5.019 6.52l-1.925 3.071c-32.958 52.539-91.024 80.363-169 80.409-43.347 0.01-81.262-11.008-108.18-29.1-26.935-18.135-42.822-43.129-42.843-71.584v-0.01c0-6.808 0.622-12.938 1.584-18.532 3.142-18.273 10.371-30.178 15.072-36.277 17.453-22.473 56.39-41.263 86.719-50.896l88.861-28.967c54.73-17.467 56.356-39.462 56.058-47.598 0.021-18.697-12.594-31.493-28.561-39.184-16.013-7.758-35.672-10.943-51.609-10.964-67.858-0.071-97.254 37.865-108.32 60.406l-3.449 6.969-7.216-3.239-43.969-19.739-9.808-4.402-6.407-2.886-8.502-3.802 5.138-7.599c11.842-17.487 24.792-36.714 58.629-56.923 35.865-21.768 86.811-29.673 119.12-29.653 26.469 0 70.122 0.03 113.13 26.796 21.117 12.956 36.05 29.208 44.564 48.157 2.017 2.47 3.97 4.995 5.865 7.561 1.626 2.202 3.213 4.457 4.747 6.734 20.125 29.917 31.874 65.631 31.874 104.03h0.013c-0.013 40.343-12.951 77.733-34.979 108.54zm-162.09-159.46c13.002 0 23.545-10.233 23.545-22.847 0-12.624-10.543-22.852-23.545-22.852-12.996 0-23.536 10.228-23.536 22.852 0 12.614 10.54 22.847 23.536 22.847zm-163.86-32.488 44.288 19.882 12.006 5.393 5.75-11.585c10.754-21.474 37.878-57.394 103.48-57.453 15.202-0.021 34.26 3.121 49.206 10.401 14.993 7.368 25.558 18.324 25.578 34.513-0.315 6.855 1.324 24.704-52.394 42.645l-88.837 28.964c-30.933 9.93-70.386 28.594-89.306 52.71-4.486 5.784-10.859 16.307-14.618 31.644-1.328 5.394-2.29 11.363-2.756 17.985-15.433-27.202-24.255-58.429-24.255-91.69 0-31.674 8.007-61.519 22.087-87.799l9.775 4.39zm163.86 200.27c-12.996 0-23.536-10.232-23.536-22.851 0-12.617 10.54-22.85 23.536-22.85 13.002 0 23.545 10.233 23.545 22.85 0 12.619-10.543 22.851-23.545 22.851z" fill="none" stroke="url(#az)" stroke-width="8"/></g></g></g></g></svg>
