<?xml version="1.0" encoding="UTF-8"?>
<svg width="210mm" height="127.76mm" clip-rule="evenodd" fill-rule="evenodd" image-rendering="optimizeQuality" shape-rendering="geometricPrecision" text-rendering="geometricPrecision" version="1.1" viewBox="0 0 21000 12775" xmlns="http://www.w3.org/2000/svg">
 <defs>
  <style type="text/css">.str0 {stroke:#CF8878;stroke-width:20} .fil13 {fill:none} .fil7 {fill:#D9DADA} .fil5 {fill:#E31E24} .fil3 {fill:#010101} .fil0 {fill:#3C3B6E} .fil1 {fill:#B22234} .fil11 {fill:#B3765A} .fil9 {fill:#CC8B7D} .fil14 {fill:#CC977E} .fil12 {fill:#CF8878} .fil15 {fill:#D9CBC2} .fil8 {fill:#E09989} .fil10 {fill:#EDA291} .fil2 {fill:white} .fil6 {fill:#C52C32} .fil4 {fill:whitesmoke}</style>
 </defs>
 <polygon class="fil0" points="0 5951 8400 5951 8400 5101 8400 4251 8400 3401 8400 2551 8400 1700 8400 850 8400 0 0 0"/>
 <polygon class="fil1" points="0 7652 21000 7652 21000 6802 0 6802"/>
 <polygon class="fil2" points="0 6802 21000 6802 21000 5951 8400 5951 0 5951"/>
 <polygon class="fil2" points="0 10202 21000 10202 21000 9352 0 9352"/>
 <polygon class="fil1" points="0 9352 21000 9352 21000 8502 0 8502"/>
 <polygon class="fil1" points="0 11053 21000 11053 21000 10202 0 10202"/>
 <polygon class="fil2" points="0 8502 21000 8502 21000 7652 0 7652"/>
 <polygon class="fil1" points="8400 850 21000 850 21000 0 8400 0"/>
 <polygon class="fil2" points="8400 1700 21000 1700 21000 850 8400 850"/>
 <polygon class="fil2" points="8400 5101 21000 5101 21000 4251 8400 4251"/>
 <polygon class="fil2" points="8400 3401 21000 3401 21000 2551 8400 2551"/>
 <polygon class="fil1" points="8400 4251 21000 4251 21000 3401 8400 3401"/>
 <polygon class="fil1" points="8400 2551 21000 2551 21000 1700 8400 1700"/>
 <polygon class="fil1" points="8400 5951 21000 5951 21000 5101 8400 5101"/>
 <path class="fil2" d="m2024 490l-231 3c44 45 134 112 181 133l-68 234c65-40 130-102 203-128 59 41 124 90 181 128l-66-233c38-16 155-101 184-130l-230-8c-28-72-46-168-86-221l-68 222z"/>
 <path class="fil2" d="m2024 2871l-231 2c44 46 134 112 181 133l-68 235c65-40 130-102 203-128 59 40 124 90 181 128l-66-233c38-16 155-101 184-130l-230-9c-28-71-46-168-86-220l-68 222z"/>
 <path class="fil2" d="m2024 5251l-231 3c44 46 134 112 181 133l-68 234c65-40 130-101 203-127 59 40 124 89 181 127l-66-233c38-16 155-101 184-130l-230-8c-28-72-46-168-86-221l-68 222z"/>
 <path class="fil2" d="m6224 5251l-231 3c44 46 134 112 181 133l-68 234c65-40 130-101 203-127 59 40 124 89 181 127l-66-233c38-16 155-101 184-130l-230-8c-28-72-46-168-86-221l-68 222z"/>
 <path class="fil2" d="m6224 2871l-231 2c44 46 134 112 181 133l-68 235c65-40 130-102 203-128 59 40 124 90 181 128l-66-233c38-16 155-101 184-130l-230-9c-28-71-46-168-86-220l-68 222z"/>
 <path class="fil2" d="m6224 490l-231 3c44 45 134 112 181 133l-68 234c65-40 130-102 203-128 59 41 124 90 181 128l-66-233c38-16 155-101 184-130l-230-8c-28-72-46-168-86-221l-68 222z"/>
 <path class="fil2" d="m3422 1680l-229 1c33 40 41 43 85 74 49 35 48 37 96 57l-68 238c71-31 122-95 197-128 68 34 111 83 188 124l-66-223c64-41 131-88 183-139l-231-5-73-216-82 217z"/>
 <path class="fil2" d="m3422 4061h-229c33 40 41 44 85 75 49 34 48 36 96 57l-68 237c71-31 122-95 197-128 68 35 111 83 188 125l-66-223c64-42 131-88 183-140l-231-5-73-216-82 218z"/>
 <path class="fil2" d="m2024 4061l-231 2c44 46 134 113 181 134l-68 234c65-40 130-102 203-128 59 41 124 90 181 128l-66-233c38-16 155-101 184-130l-230-8c-28-72-46-168-86-221l-68 222z"/>
 <path class="fil2" d="m2024 1681l-231 2c44 46 134 112 181 133l-68 234c65-40 130-101 203-127 59 40 124 89 181 127l-66-233c38-16 155-100 184-130l-230-8c-28-72-46-168-86-221l-68 223z"/>
 <path class="fil2" d="m7622 2871h-229c33 40 41 43 85 74 49 35 48 37 96 57l-68 238c71-31 122-95 197-128 68 34 111 83 188 125l-66-223c64-42 131-89 183-140l-231-5-73-216-82 218z"/>
 <path class="fil2" d="m6224 1681l-231 2c44 46 134 112 181 133l-68 234c65-40 130-101 203-127 59 40 124 89 181 127l-66-233c38-16 155-100 184-130l-230-8c-28-72-46-168-86-221l-68 223z"/>
 <path class="fil2" d="m6224 4061l-231 2c44 46 134 113 181 134l-68 234c65-40 130-102 203-128 59 41 124 90 181 128l-66-233c38-16 155-101 184-130l-230-8c-28-72-46-168-86-221l-68 222z"/>
 <path class="fil2" d="m624 5248l-231 5c55 52 118 97 181 140l-68 224c77-39 123-88 191-124 75 30 125 92 196 128l-70-236c51-21 50-22 99-59 15-11 21-15 38-29 4-4 16-13 19-17 19-16 16-13 29-28l-229-1-75-219-80 216z"/>
 <path class="fil2" d="m3422 2871h-229c42 51 124 107 181 131l-68 238c71-31 122-95 197-128 68 34 111 83 188 125l-66-223c64-42 131-89 183-140l-231-5-73-216-82 218z"/>
 <path class="fil2" d="m3422 490h-229c42 51 124 108 181 132l-68 238c71-32 122-96 197-129 68 35 111 84 188 125l-66-223c64-41 131-88 183-140l-231-5-73-216-82 218z"/>
 <path class="fil2" d="m3422 5251h-229c42 51 124 108 181 132l-68 238c71-32 122-96 197-129 68 35 111 84 188 125l-66-223c64-41 131-88 183-140l-231-4-73-216-82 217z"/>
 <path class="fil2" d="m7622 490h-229c42 51 124 108 181 132l-68 238c71-32 122-96 197-129 68 35 111 84 188 125l-66-223c64-41 131-88 183-140l-231-5-73-216-82 218z"/>
 <path class="fil2" d="m7622 5251h-229c42 51 124 108 181 132l-68 238c71-32 122-96 197-129 68 35 111 84 188 125l-66-223c64-41 131-88 183-140l-231-4-73-216-82 217z"/>
 <path class="fil2" d="m7622 4061h-229c42 51 124 107 181 132l-68 237c71-31 122-95 197-128 68 35 111 83 188 125l-66-223c64-42 131-88 183-140l-231-5-73-216-82 218z"/>
 <path class="fil2" d="m7622 1680l-229 1c42 50 124 107 181 131l-68 238c71-31 122-95 197-128 68 34 111 83 188 124l-66-223c64-41 131-88 183-139l-231-5-73-216-82 217z"/>
 <path class="fil2" d="m4824 1678l-231 4c55 52 118 98 181 141l-68 223c77-39 123-87 191-124 75 30 125 92 196 128l-70-236c51-21 50-22 99-59l86-74-229-1-75-219-80 217z"/>
 <path class="fil2" d="m5523 3465l-230 3c27 33 146 119 181 136l-67 230c58-37 127-87 187-126 71 30 134 88 198 128l-69-234c55-24 136-87 186-128l-230-10-76-221-80 222z"/>
 <path class="fil2" d="m5523 1084l-230 3c27 34 146 120 181 137l-67 230c58-38 127-88 187-127 71 30 134 88 198 129l-69-235c55-24 136-87 186-128l-230-9-76-222-80 222z"/>
 <path class="fil2" d="m5523 4655l-230 3c27 34 146 120 181 137l-67 230c58-38 127-88 187-127 71 30 134 88 198 128l-69-234c55-24 136-87 186-128l-230-10-76-221-80 222z"/>
 <path class="fil2" d="m5523 2275l-230 2c27 34 146 120 181 137l-67 230c58-37 127-87 187-126 71 29 134 88 198 128l-69-235c55-23 136-87 186-127l-230-10-76-222-80 223z"/>
 <path class="fil2" d="m1323 1084l-230 3c27 34 146 120 181 137l-67 230c58-38 127-88 187-127 71 30 134 88 198 129l-69-235c55-24 136-87 186-128l-230-9-76-222-80 222z"/>
 <path class="fil2" d="m1323 3465l-230 3c27 33 146 119 181 136l-67 230c58-37 127-87 187-126 71 30 134 88 198 128l-69-234c55-24 136-87 186-128l-230-10-76-221-80 222z"/>
 <path class="fil2" d="m1323 2275l-230 2c27 34 146 120 181 137l-67 230c58-37 127-87 187-126 71 29 134 88 198 128l-69-235c55-23 136-87 186-127l-230-10-76-222-80 223z"/>
 <path class="fil2" d="m1323 4655l-230 3c27 34 146 120 181 137l-67 230c58-38 127-88 187-127 71 30 134 88 198 128l-69-234c55-24 136-87 186-128l-230-10-76-221-80 222z"/>
 <path class="fil2" d="m4824 487l-231 4c55 53 118 98 181 141l-68 224c77-40 123-88 191-125 75 31 125 93 196 128l-70-235 137-89c4-3 16-13 19-16 19-16 16-13 29-28l-229-1-75-219-80 216z"/>
 <path class="fil2" d="m2722 3465l-229 1c3 3 8 4 9 10l79 65c32 23 61 44 93 59l-68 236c65-37 129-105 200-128 54 33 137 91 181 126l-63-229c45-26 154-99 184-134l-231-6-72-220-83 220z"/>
 <path class="fil2" d="m4124 4651l-231 6c49 54 106 84 172 138-1 80-38 146-56 226 75-40 128-96 191-124 71 37 117 82 190 123l-68-232c68-29 139-78 186-130l-232-4-68-207-84 204z"/>
 <path class="fil2" d="m4124 2270l-231 7c49 53 106 84 172 138-1 80-38 146-56 225 75-40 128-96 191-123 71 36 117 82 190 123l-68-232c68-29 139-79 186-131l-232-4-68-206-84 203z"/>
 <path class="fil2" d="m4124 3461l-231 6c49 53 106 84 172 138-1 80-38 146-56 226 75-40 128-97 191-124 71 37 117 82 190 123l-68-232c68-29 139-78 186-130l-232-4-68-207-84 204z"/>
 <path class="fil2" d="m4124 1080l-231 6c49 54 106 85 172 138-1 81-38 147-56 226 75-40 128-96 191-124 71 37 117 82 190 124l-68-233c68-28 139-78 186-130l-232-4-68-206-84 203z"/>
 <path class="fil2" d="m6922 3465l-229 1c3 3 8 4 9 10l20 20c3 2 7 6 10 8l142 96-68 236c65-37 129-105 200-128 54 33 137 91 181 126l-63-229c45-26 154-99 184-134l-231-6-72-220-83 220z"/>
 <path class="fil2" d="m624 2868l-231 4c55 53 118 98 181 141l-68 224c77-40 123-88 191-125 75 30 125 93 196 128l-70-235 185-134-229-1-75-218-80 216z"/>
 <path class="fil2" d="m624 487l-231 4c55 53 118 98 181 141l-68 224c77-40 123-88 191-125 75 31 125 93 196 128l-70-235 185-133-229-1-75-219-80 216z"/>
 <path class="fil2" d="m4824 2868l-231 4c55 53 118 98 181 141l-68 224c77-40 123-88 191-125 75 30 125 93 196 128l-70-235 185-134-229-1-75-218-80 216z"/>
 <path class="fil2" d="m4824 5248l-231 5c55 52 118 97 181 140l-68 224c77-39 123-88 191-124 75 30 125 92 196 128l-70-236 185-133-229-1-75-219-80 216z"/>
 <path class="fil2" d="m624 4058l-231 4c55 53 118 98 181 141l-68 224c77-40 123-88 191-125 75 31 125 93 196 128l-70-235 185-133-229-2-75-218-80 216z"/>
 <path class="fil2" d="m624 1678l-231 4c55 52 118 98 181 141l-68 223c77-39 123-87 191-124 75 30 125 92 196 128l-70-236 185-133-229-1-75-219-80 217z"/>
 <path class="fil2" d="m4824 4058l-231 4c55 53 118 98 181 141l-68 224c77-40 123-88 191-125 75 31 125 93 196 128l-70-235 185-133-229-2-75-218-80 216z"/>
 <path class="fil2" d="m2722 1085h-229c3 4 8 4 9 11l172 123-68 236c65-36 129-104 200-128 54 33 137 91 181 127l-63-229c45-26 154-99 184-135l-231-6-72-219-83 220z"/>
 <path class="fil2" d="m2722 2275h-229l181 135-68 236c65-37 129-105 200-129 54 34 137 92 181 127l-63-229c45-26 154-99 184-135l-231-6-72-219-83 220z"/>
 <path class="fil2" d="m6922 1085h-229l181 134-68 236c65-36 129-104 200-128 54 33 137 91 181 127l-63-229c45-26 154-99 184-135l-231-6-72-219-83 220z"/>
 <path class="fil2" d="m6922 4656h-229l181 134-68 236c65-36 129-104 200-128 54 33 137 91 181 127l-63-229c45-26 154-99 184-135l-231-6-72-219-83 220z"/>
 <path class="fil2" d="m2722 4656l-210 20 69 55c32 23 61 45 93 59l-68 236c65-36 129-104 200-128 54 33 137 91 181 127l-63-229c45-26 154-99 184-135l-231-6-72-219-83 220z"/>
 <path class="fil2" d="m6922 2275l-200 30c3 3 7 6 10 9l142 96-68 236c65-37 129-105 200-129 54 34 137 92 181 127l-63-229c45-26 154-99 184-135l-231-6-72-219-83 220z"/>
 <polygon class="fil3" points="8576 8033 11771 8207 11975 8647 16680 11141 16803 12775 4197 12307 4306 10212 8379 8612"/>
 <polygon class="fil4" points="8576 9660 12156 9850 12482 12633 8561 12487"/>
 <polygon class="fil5" points="10265 10386 10948 10386 11021 12583 10173 12551"/>
 <path class="fil6" d="m10536 9674c269 0 545-12 545 349s-218 653-487 653c-268 0-486-292-486-653s159-349 428-349z"/>
 <path class="fil7" d="m8593 7968c574 619 1197 1165 1965 1493 499-193 890-588 1234-1072l653 2614-1816-1215c-779 381-1383 754-2162 1135 100-987 26-1968 126-2955z"/>
 <path class="fil8" d="m7504 5288c-84 130 46 307 84 458 38 153 99 299 145 450 39 125 50 260 109 378 64 128 147 252 254 348 38 34 108 39 153 15l326-175-377-1960c-231 162-540 249-694 486z"/>
 <path class="fil8" d="m12359 5317c235 66 580-13 704 196 126 211-96 482-160 719-45 170-10 420-167 501l-392 204 15-1620z"/>
 <path class="fil9" d="m12315 7518l-3979-792c70 322 145 643 210 966 24 118 5 248 59 356 95 192 218 378 377 522 253 231 566 387 843 589 236 173 418 446 697 537 117 38 204-138 305-211 171-123 397-197 508-377l980-1590z"/>
 <path class="fil10" d="m7984 5205c118 502 126 1033 305 1517 155 422 439 785 682 1162 135 209 239 465 450 596 283 175 627 261 959 276 335 15 673-75 988-189 189-69 357-201 493-349 208-225 452-457 523-755 187-780 204-1594 233-2396 24-683 528-1724-73-2048-1096-590-2564-428-3733 0-623 228-752 1108-987 1728-57 151 123 300 160 458z"/>
 <path class="fil11" d="m9360 5027l-567 72c162-92 303-246 487-276 240-38 490 19 726 80 71 19 194 88 160 153-45 83-182 69-276 65-180-6-352-117-530-94z"/>
 <path class="fil11" d="m11095 4983c-60-5-160 42-181-14-25-64 43-155 109-175 188-55 433-149 588-29l552 429c-158-53-309-128-472-160-196-39-397-34-596-51z"/>
 <path class="fil12" d="m10042 5419c-322-86-644-81-965-51 125-46 245-119 377-138 123-18 253-9 370 29 86 28 305 183 218 160z"/>
 <path class="fil12" d="m10965 5426c272-76 596-90 965-51-126-46-245-118-377-138-123-17-253-8-371 29-85 28-304 184-217 160z"/>
 <path class="fil13 str0" d="m10144 5905c-56 141-102 285-167 422-23 48-63 87-94 130"/>
 <path class="fil13 str0" d="m10776 5811c26 92 34 192 80 276 52 96 140 169 210 254"/>
 <path class="fil13 str0" d="m10064 6624c32-31 51-103 95-94 112 23 190 133 297 174 50 19 111 22 160 0 82-37 129-130 211-167 55-24 121-5 181-7"/>
 <path class="fil13 str0" d="m9352 7024c134 24 267 49 400 72 118 21 235 58 356 58 211 2 421-28 631-50 158-17 316-37 472-66 130-24 257-63 385-94"/>
 <path class="fil13 str0" d="m9585 6588c-99 56-212 93-298 167-72 62-111 155-167 232"/>
 <path class="fil13 str0" d="m11393 6515c184 70 315 205 421 371"/>
 <path class="fil8" d="m10598 7474c227 0 410 91 410 276 0 184-183 334-410 334s-410-150-410-334c0-185 183-276 410-276z"/>
 <path class="fil14" d="m7565 5669c132 158 250 125 426 15 178-111 137-395 254-566 96-140 238-246 375-349 114-87 275-114 374-218 137-145 128-429 314-508 288-123 631 8 943-29 180-22 347-102 523-145 139-35 277-99 419-88 217 18 422 109 629 175 97 31 187 147 284 116 72-23-45-214 30-218 114-5 232 99 269 203 77 216-96 144-74 371 13 146 40 290 59 435 26 184 48 369 75 552 23 151-80 474 75 451 327-50 861-288 995-581 75-165-271-265-329-436-111-326-215-677-165-1017 35-231 434-349 404-581-33-261-348-407-553-581-147-124-354-172-494-305-69-65-15-228-105-261-488-178-1005-306-1526-334-571-31-1163-13-1706 160-330 105-600 369-808 639-296 382-506 828-673 1278-96 257 9 541-15 813-21 232-152 829 0 1009z"/>
 <path class="fil15" d="m7655 5250c123 146 421 116 585 13 166-104 127-367 236-527 90-130 222-228 348-324 107-81 257-106 348-203 129-135 120-399 293-473 268-114 587 8 877-27 168-20 324-95 487-135 129-32 258-92 390-81 202 17 392 101 585 162 91 29 174 138 264 108 67-21-42-199 28-202 106-6 216 92 251 189 71 200 22 424 42 635 12 136 37 270 55 405 24 171 44 343 70 514 21 140-74 440 70 419 304-46 613-267 737-541 70-153-252-246-306-405-103-303-200-630-153-946 32-215 404-325 376-541-31-243-325-379-515-540-137-116-330-161-460-284-64-61-13-213-97-243-454-166-936-285-1420-311-531-29-1082-12-1587 149-308 97-558 343-752 594-275 356-471 771-627 1189-89 239-75 504-97 757-19 216-169 481-28 649z"/>
 <path class="fil14" d="m11402 3282c279 122 537 188 525 213-11 25-288-1-567-122-279-122-454-293-443-318 12-25 206 106 485 227z"/>
 <path class="fil14" d="m10684 3181c279 121 536 187 525 212-12 25-288 0-567-122s-455-293-443-318c11-25 206 106 485 228z"/>
 <path class="fil14" d="m9935 3152c279 121 537 187 526 212-12 25-288-1-567-122-279-122-455-293-443-318 11-25 206 106 484 228z"/>
</svg>
