<?xml version="1.0" encoding="UTF-8"?>
<svg viewBox="0 0 133.33 133.33" xmlns="http://www.w3.org/2000/svg" xmlns:xlink="http://www.w3.org/1999/xlink">
 <defs>
  <linearGradient id="i" x1="1.0333" x2=".46667" y1=".23438" y2=".39844" xlink:href="#a"/>
  <linearGradient id="h" x1="-.1017" x2="1.0339" y1=".20312" y2=".79688">
   <stop stop-color="#ff5400" offset="0"/>
   <stop stop-color="#ffe500" offset="1"/>
  </linearGradient>
  <linearGradient id="f" x1=".98864" x2=".22727" y1=".58594" y2=".51562" xlink:href="#a"/>
  <linearGradient id="g" y1=".5" y2=".5">
   <stop stop-color="#fff" stop-opacity=".669" offset="0"/>
   <stop stop-color="#fff" stop-opacity="0" offset="1"/>
  </linearGradient>
  <linearGradient id="a">
   <stop stop-color="#777779" offset="0"/>
   <stop stop-color="#fff" stop-opacity="0" offset="1"/>
  </linearGradient>
 </defs>
 <g fill-rule="evenodd">
  <path d="m109.75 2.358l-49.199 31.976-50.039-7.3554-4.3076 78.518 55.042 3.0322v-0.33339l58.716-9.7593-10.213-96.078z" fill="url(#h)" stroke="#000" stroke-linecap="round" stroke-linejoin="round" stroke-width="2.665"/>
  <g stroke-width="1.289">
   <path d="m69.521 40.539l-7.1687 64.693 48.318-11.598-4.2403-46.289 4.4054-3.9098-1.9081-16.247-4.3222 3.7309-1.1863-19.356-33.898 28.976z" fill-opacity=".459"/>
   <path d="m62.536 37.1l-1.2329 66.775 43.68-16.905-4.2403-46.289 4.4054-3.9098-1.9081-16.247-4.3222 3.7309-0.3553-13.262-36.027 26.106z" fill="#fff"/>
   <path d="m62.572 37.063l-0.6789 67.329 43.126-17.459-4.2403-46.289 4.4055-3.9098-1.9082-16.247-4.3222 3.731-0.6322-13.539-35.75 26.383z" fill="url(#i)"/>
  </g>
  <g stroke-width=".849">
   <path d="m58.158 41.115l-2.1879 64.716-45.724-3.8176 3.3774-48.14-3.6381-1.92 2.0706-16.372 46.102 5.5332z" fill-opacity=".463"/>
   <path d="m60.687 38.327l-2.1879 64.716-45.724-3.8176 3.3774-48.14-3.6381-1.92 2.0706-16.372 46.102 5.5332z" fill="#fff"/>
   <path d="m60.374 38.345l-2.1879 64.716-45.724-3.8176 3.3773-48.14-3.6381-1.92 2.0706-16.372 46.102 5.5332z" fill="url(#f)"/>
  </g>
  <g stroke-linecap="round" stroke-linejoin="round">
   <g fill="none" stroke="#000" stroke-width="1.599">
    <path d="m64.646 48.547c-1.4589-3.8298-3.4158-6.3346-7.7468-5.1738-4.2859 0.08411-8.4745 4.9684-3.3232 9.4485"/>
    <path d="m65.737 61.139c-1.4589-3.8298-3.4158-6.3346-7.7468-5.1738-4.2859 0.08411-8.4745 4.9684-3.3232 9.4485"/>
    <path d="m66.711 88.274c-1.4589-3.8298-3.4158-6.3346-7.7468-5.1738-4.2859 0.084114-8.4745 4.9684-3.3232 9.4485"/>
    <path d="m66.386 74.304c-1.459-3.8298-3.4158-6.3346-7.7468-5.1738-4.2859 0.084106-8.4745 4.9684-3.3232 9.4485"/>
   </g>
   <path d="m108.78 1.0135c-16.4 10.658-32.799 21.317-49.199 31.975-17.73-3.344-31.985-3.7427-49.714-7.0868-1.5863 25.772-2.4918 54.139-4.0781 79.912 31.948-61.759 78.371 2.459 102.99-104.8z" fill="url(#g)" stroke-width="2.5"/>
  </g>
 </g>
</svg>
