<?xml version="1.0" encoding="UTF-8"?>
<svg width="207.02mm" height="207.02mm" version="1.1" viewBox="0 0 733.5355 733.5355" xmlns="http://www.w3.org/2000/svg">
 <g transform="translate(-7.518 -104.17)">
  <rect x="7.518" y="104.17" width="733.54" height="733.54" ry="0" fill="#ffe6d5" fill-rule="evenodd"/>
  <path d="m311.15 484.09c66.165 42.426 123.78 89.413 198.5 127.28 3.6121 1.3512 14.628 2.3725 23.638-1.3637 7.0369-6.5615 9.0728-9.6167 13.132-17.88 11.816-23.468 57.261-59.266 70.455-91.491 4.4698-15.809 7.1837-33.701 10.459-51.9 20.11-36.391 22.291-77.672 21.718-119.7 20.102-23.781-112.96-186.67-255.06-128.29-185.94 65.068-116.18 268.62-82.832 283.35z" fill="#faeede" fill-rule="evenodd" stroke="#000" stroke-width="1px"/>
  <path d="m432.16 512.18c10.349 31.478 37.021 72.869 73.121 96.99h-27l-57-70z" fill="#dbb9a6" fill-opacity=".8771" fill-rule="evenodd"/>
  <path d="m432.62 522.47c10.83 32.084 28.482 62.281 53.286 85.358-6.37-6.1061-12.512-12.277-17.236-18.854 12.86 7.2641 25.608 14.487 40.218 22.389-2.8461 3.5261-8.9776 4.0947-16.162 2.0203-20.366-7.6751-40.9-14.848-60.357-25.254 14.816 6.8604 12.631 8.9846 27.447 12.683-1.9757 8.7441-1.7001 18.15-4.8845 27.721 0 0-62.211-18.685-60.695-29.544 1.5152-10.859 38.386-76.519 38.386-76.519z" fill="#faa" fill-rule="evenodd" stroke="#000" stroke-width="1px"/>
  <path d="m510.91 521.21c10.244 8.9896 27.047 16.012 50.76 20.961" fill="none" stroke="#000" stroke-width="1px"/>
  <path d="m525.05 544.95c8.3292 3.3581 16.074 5.5462 23.739 7.5762" fill="none" stroke="#000" stroke-width="1px"/>
  <path d="m525.05 545.33c0.8839 1.389 23.991 7.4499 23.36 7.4499 0.016 0.75526-9.7898 3.4362-11.112 1.894-5.9302-2.8507-8.44-6.19-12.248-9.3439z" fill="#debfad" fill-rule="evenodd"/>
  <path d="m614.25 407.26c-6.9344 4.7026-13.181 10.78-18.214 19.286-0.2552 22.991-2.1282 45.75 3.9286 69.643-13.472 8.0767-24.468 10.196-36.072 8.9286" fill="none" stroke="#000" stroke-width="1px"/>
  <path d="m494.24 375.5 4.0406 17.93c5.4203 9.0258 23.573 10.217 36.87 14.395 7.2423-4.8389 9.3983-12.221 11.364-19.698-17.425-7.7104-34.85-13.601-52.275-12.627z" fill="#fff" fill-rule="evenodd"/>
  <path d="m522.53 372.97c8.8389 2.2342 17.678 3.6632 26.516 8.5863 0 0-6.3541-3.1937-8.2011-3.4182 4.1351 1.5612 10.979 8.2165 10.979 8.2165" fill="none" stroke="#000" stroke-width="1px"/>
  <path d="m431.85 442.65c14.033-44.928 61.637-112.55 86.854-135.78l-15-1-94.5 130.5z" fill="#dbb9a6" fill-opacity=".83799" fill-rule="evenodd"/>
  <path d="m477.83 339.38c12.807 0.21382 59.73 2.6118 78.391 12.313 3.5355 2.2728 26.963 18.397 26.963 18.397-3.8257-6.0218-7.3692-11.151-14.03-17.173-4.8723-3.6298-16.879-8.5184-23.644-10.255-22.195-4.0129-45.051-2.7417-67.68-3.283z" fill-rule="evenodd" stroke="#000" stroke-width="1px"/>
  <path d="m599.52 424.94c-1.8608 5.0862-1.6463 10.587-0.1785 16.339 6.3305 2.9727 10.865 5.584 19.143 2.7143 4.066-3.6813 8.2874-7.6599 8.3572-13.339-8.3486-6.8356-17.645-7.5078-27.322-5.7143z" fill="#fff" fill-rule="evenodd"/>
  <path d="m599.52 424.94c-0.5141 1.4043-0.8405 2.7147-1.0213 3.9524 4.6623-0.0186 17.896-1.0776 22.161 3.6448 1.9835 2.196-0.1884 7.8956-2.1756 11.456 4.066-3.6813 8.2874-7.6599 8.3572-13.339-8.3486-6.8356-17.645-7.5078-27.322-5.7143z" fill="#ccc" fill-rule="evenodd"/>
  <path d="m615.78 419.41c5.773 1.8064 10.147 3.8422 13.25 7" fill="none" stroke="#000" stroke-width="1px"/>
  <path d="m494.24 375.5 0.7122 5.3398c5.2144 0.43577 33.087 3.5107 42.079 9.4269 2.5546 4.2469 4.6817 10.474-1.8804 17.558 7.2423-4.8389 9.3983-12.221 11.364-19.698-17.425-7.7104-34.85-13.601-52.275-12.627z" fill="#e6e6e6" fill-rule="evenodd"/>
  <path d="m498.13 375.19c1.0671 9.5395 0.6059 21.314 9.1923 23.335 9.8409 2.7444 14.628-9.218 12.728-19.445z" fill="#784421" fill-rule="evenodd"/>
  <path d="m503.29 376.92 12.479 2.1339c-0.014 7.5661-2.0455 14.25-7.2286 13.616-4.8488-0.71995-5.17-9.4265-5.25-15.75z" fill="#28170b" fill-rule="evenodd"/>
  <ellipse transform="matrix(.97678 .21423 -.21423 .97678 0 0)" cx="590.57" cy="264.36" rx="6.364" ry="2.8284" fill="#fff" fill-rule="evenodd"/>
  <ellipse transform="matrix(.98206 .18857 -.243 .97003 0 0)" cx="582.62" cy="290.48" rx="3.9112" ry="1.5407" fill="#fff" fill-rule="evenodd"/>
  <path d="m601.9 424.34c-1.3767 6.3217-3.1155 17.678 4.5962 18.385 6.6866-0.65011 6.8606-11.339 8.3085-17.147z" fill="#784421" fill-rule="evenodd"/>
  <path d="m605.41 424.21c-1.3767 6.3217-2.8289 11.52 1.3221 13.788 3.9126-1.2966 3.6321-7.4551 5.08-13.263z" fill="#28170b" fill-rule="evenodd"/>
  <ellipse transform="matrix(.98694 .16108 -.13029 .99148 0 0)" cx="665.65" cy="324.92" rx="4.3987" ry="2.0914" fill="#fff" fill-rule="evenodd"/>
  <ellipse transform="matrix(.98769 .15643 -.13419 .99096 0 0)" cx="655.42" cy="338.75" rx="2.5197" ry="1.1641" fill="#fff" fill-rule="evenodd"/>
  <path d="m644.28 399.66c-6.4983-3.6676-10.591-5.2332-16.5-3.75-5.1441 1.6667-6.2345 3.3333-8.625 5 5.3284-2.2414 12.09-2.5884 18.75-1.5 1.8462 0.75311 3.835 1.0782 5.375 2.75z" fill-rule="evenodd" stroke="#000" stroke-width="1px"/>
  <path d="m514.04 252.42 140 67.75c8.4539 2.818-40.04-74.263-45.75-75.25-2.7098-0.46828-94.25 7.5-94.25 7.5z" fill="#ff8080" fill-rule="evenodd" stroke="#000" stroke-width="1px"/>
  <path d="m448.06 323.91c53.764-12.408 133.69 2.7684 198.38 61.718-0.4714 2.7924-0.059 3.5075-0.5303 6.1872 2.1074-0.86805 1.958-1.4922 3.7123-4.9498 2.3618-26.222 4.0021-40.776 4.9497-66.998-12.059-20.575-30.069-36.359-50.434-47.738-41.636-23.263-93.113-28.112-123.69-17.846z" fill="#fff" fill-rule="evenodd" stroke="#000" stroke-width="1px"/>
  <path d="m593.29 242.67c28.963 22.929 48.604 49.911 62.25 79.5 0.5472-31.709-16.669-62.428-35.75-79.75z" fill="#faa" fill-rule="evenodd" stroke="#000" stroke-width="1px"/>
  <path d="m505.35 320.36c10.834-12.705 22.769-22.282 34.854-30.318 16.189-10.764 32.647-18.763 47.085-27.812l-31.19-12.262-76.078 68.83z" fill="#ccc" fill-opacity=".83799" fill-rule="evenodd"/>
  <path d="m446.03 303.91c-22.207 121.78-20.08 203.51 2.6213 299.39-47.956-66.355-65.861-133.44-76.621-218.39 10.654 87.741 28.587 167.56 74.879 244.05l-5.8787-29.05c12.458 8.8158 14.667 15.315 27.125 26.75-2.8743 7.0436 5.75 17.295 3.879 21.256l-4.7855-4.8284c13.232 12.251 28.193 29.324 35.65 46.066-46.131-24.22-92.616-47.494-134.88-82.024 101.08 82.362 248.41 105.57 272.01 228.78l-360.5-0.5c-20.775-39.97-28.129-83.601-34.5-127.5 6.818 43.875 13.173 87.876 34.26 127.86l-70.51 0.14136c-20.456-41.025-28.443-100.75-18.75-187-5.7368 62.253-11.265 124.51 19 186.75l-187 0.25c55.462-178.2 183.85-289.3 217-528 119.3-233.48 321.77-155.04 395.47-54.437 20.432 25.137 25.321 57.673 19.528 80.937 0.4479-16.391 2.9458-52.474-27.302-79.383-32.278-0.57739-85.028 29.723-105.63 43.49-35.291 24.973-76.96 86.062-90.28 144.51 0.916-44.71 8.9063-100.11 15.207-139.12z" fill="#ffd5d5" fill-rule="evenodd" stroke="#000" stroke-width="1px"/>
  <path d="m271.15 486.92c50.927 168.25 197.52 176.81 253.85 248.19-54.673-31.633-93.577-33.98-135.76-42.426 13.411 26.442 20.714 48.537 20.506 66.468-47.991-77.213-141.67-118.41-138.59-272.24z" fill="#faa" fill-rule="evenodd"/>
  <path d="m278.22 836.23c-33.374-67.048-36.606-139.56-41.719-212.13-11.096 70.004-22.558 140.01-4.2426 210.01z" fill="#faa" fill-rule="evenodd"/>
  <path d="m207.51 836.23c-61.928-122.2 12.142-277.54 30.406-415.78-47.606 138.91-135.05 287.47-127.28 412.95z" fill="#faa" fill-rule="evenodd"/>
  <path d="m57.603 834.81c1.9765-46.172 21.144-87.432 35.355-130.11-22.298 42.792-45.378 85.486-53.033 130.11z" fill="#faa" fill-rule="evenodd"/>
  <path d="m328.6 329.06c7.5367 157.52-81.469 235.09 160.51 351.43-110.76-99.836-140.24-225.47-160.51-351.43z" fill="#faa" fill-rule="evenodd"/>
  <path d="m396.03 286.91c-34.546 66.276-19.818 225.29 49.121 337.3-3.698-60.907-20.629-128.02-19.121-200.43-3.0565-13.223-3.695-25.903-8-40.375-12.012 26.802-9.5885 63.018-15 88.5-15.426-59.048-18.239-120.62-7-185z" fill="#faa" fill-rule="evenodd"/>
  <path d="m546.01 385.85c-17.339-7.6446-30.999-12.591-51.013-12.879l-8.8389-3.0304 7.3237 3.283h-5.0508c3.283 0 3.7881 2.2728 3.7881 2.2728l4.2931 15.657-1.2627-14.395c10.099 0.0723 22.491 1.7637 43.942 9.849l7.071 9.849-4.2931-8.0812 5.8084 7.5761-2.778-7.3236 7.0711 8.3338z" fill-rule="evenodd" stroke="#000" stroke-width="1px"/>
  <path d="m603.36 421.19-4.8214 2.3214 6.0714-1.0714-7.3214 3.0357c8.491-0.0533 15.916-1.9183 28.929 5.7143-0.08 3.6604-2.3976 6.4819-4.2858 9.4643 2.1008-2.6016 4.5531-4.8518 5.5358-8.5714l2.5 2.0536-2.3215-3.6607c1.1798 0.98315 5.7116 0.69712 4.375 0.44643-1.25-0.17857-5.1628-1.2237-5.625-1.875-2.9647-4.1779-21.39-9.482-23.036-7.8571z" fill-rule="evenodd" stroke="#000" stroke-width="1px"/>
  <path d="m563.54 378.02c-1.289-4.0843-6.1447-8.763-13.081-13.789l-29.698-10.607 35.355 8.4853c8.8122 3.0337 13.429 7.4658 16.617 12.374z" fill="#e0c1af" fill-rule="evenodd"/>
  <path d="m616.92 405.95 8.1317-1.0607 14.849 0.70711-31.466 6.0104z" fill="#e0c1af" fill-rule="evenodd"/>
  <path d="m435.13 539.42c-0.5303 0.70711 12.728 64.347 12.728 64.347l-7.4246-6.1872z" fill="#faa" fill-rule="evenodd"/>
 </g>
</svg>
