<?xml version="1.0" encoding="UTF-8"?>
<svg width="360" height="360" fill-rule="evenodd" image-rendering="optimizeQuality" shape-rendering="geometricPrecision" text-rendering="geometricPrecision" viewBox="0 0 4000 4000" xmlns="http://www.w3.org/2000/svg">
 <path d="m2054 1374-32-45 35-39-45-45 52-54v-74l-16-26 16-32 6-141 3 145 16 25-16 26v77l51 48-51 51 29 32-32 58z" fill="#373435" stroke="#000" stroke-width="3.2008"/>
 <path d="m2913 2886 16-60 19-58 16-67 13-61 6-64 4-65-4-67-3-64-13-61-19-61-22-61-26-57-32-58-35-55-39-51-38-48-48-48-48-45-48-38-55-39-54-29-58-32-58-25-25-7-202-77h-173l-228 77-58 23-61 25-57 29-55 35-51 39-51 42-48 44-42 49-42 48-35 54-35 55-29 57-26 61-19 61-19 61-16 61-7 64-6 67v64l6 65 7 64 16 64 34 91z" fill="#373435" stroke="#000" stroke-width="3.2008"/>
 <path d="m3028 2347 22 4 27 5h222l19-3 25-6-7-5-64-25-76-5-161 20z" stroke="#000" stroke-width="1.6811"/>
 <path d="m3042 1849 20 5 18 4 201 3h8l20-3 9-4-76-25-79-10-84 5-34 15z" stroke="#000" stroke-width="1.6811"/>
 <path d="m3055 1322 12 5 20 2 182 2 25-9-5-10-35-5-179 2z" stroke="#000" stroke-width="1.6811"/>
 <path d="m3166 1016v-17l-8-5 8-8 5-46 5 46 7 8-7 5v20z" fill="#fff" stroke="#000" stroke-width="1.6811"/>
 <path d="m3102 1272v-61l4-15 6-8 7-10 8-5 16-4 8 5 13 15 7 14 4 20v40l8 2v-45l3-14 4-12 20-18h12l6 8 7 14 5 17 2 16v44l13 4v-106l-42-22-86-10-26 15-2 18-10 15v93l10 2z" stroke="#000" stroke-width="1.6811"/>
 <path d="m3080 1130 7-26 8-21 7-18 12-19 12-15 17-12 15-8h25l17 8 13 9 17 15 14 17 6 17 7 11 5 29 2 13z" fill="#373435" stroke="#000" stroke-width="1.6811"/>
 <path d="m3053 2888 27-1594h199l39 1594z" fill="#373435" stroke="#000" stroke-width="1.6811"/>
 <path d="m3265 1300v-156l-40-14-145 14v156h12v-85l3-9v-10l11-13 6 5 5 8 4 10v81h22v-84l3-9 7-10 15-15 7 7 8 13 7 14v71h23v-68l4-8 5-7 10-10 8 7 5 8 5 15v78z" fill="#fff" stroke="#000" stroke-width="1.6811"/>
 <path d="m3028 2347 39-1 45-7 47-3h46l47 3 47 5 44 3v-40l-44-3-47-5-47-2h-46l-47 3-45 5-39 2z" fill="#fff" stroke="#000" stroke-width="1.6811"/>
 <path d="m3042 1849h11l34-7 34-3 33-2h34l34 4 37 7 32 6h27v-38h-22l-37-9-37-5-34-3h-67l-34 3-34 7-11 2z" fill="#fff" stroke="#000" stroke-width="1.6811"/>
 <path d="m3133 1282v-147l70 2v133" fill="none" stroke="#000" stroke-width="1.6811"/>
 <path d="m3090 1157-10 7-35-15v-8l44-17 44-5h70l64 6 37 16v8l-39 13-31-10-31-5-74 4z" fill="#fff" stroke="#000" stroke-width="1.6811"/>
 <path d="m3048 1149 39-14 46-5h70l61 7 40 12" fill="none" stroke="#000" stroke-width="1.6811"/>
 <path d="m3085 1110 48-12h70l57 12" fill="none" stroke="#000" stroke-width="1.6811"/>
 <path d="m3127 1098v21" fill="none" stroke="#000" stroke-width="1.6811"/>
 <path d="m3205 1098v21" fill="none" stroke="#000" stroke-width="1.6811"/>
 <path d="m3055 1284 17-4 23-8 26-5 25-4 24-3 25 2 27 3 23 5 24 7 25 7v38l-25-5-24-8-23-5-27-2-25-2-24 2-25 4-26 6-23 9-17 1z" fill="#fff" stroke="#000" stroke-width="1.6811"/>
 <path d="m766 2344 22 3 25 7h224l19-5 25-5-7-4-64-27-74-5-163 22z" stroke="#000" stroke-width="1.6811"/>
 <path d="m780 1845 20 5 18 4 201 5h7l21-5 9-4-76-23-77-10-86 5-34 13z" stroke="#000" stroke-width="1.6811"/>
 <path d="m793 1320 12 5 20 2 182 1 25-8-6-10-36-7-178 4z" stroke="#000" stroke-width="1.6811"/>
 <path d="m904 1014v-19l-8-5 8-8 5-46 4 46 6 8-5 5v20z" fill="#373435" stroke="#000" stroke-width="1.6811"/>
 <path d="m840 1270v-61l4-15 5-10 8-9 9-5 15-5 8 7 14 13 6 14 4 20v40l8 2v-45l2-12 3-14 22-16h12l7 6 6 14 5 18 2 15v46l12 3v-106l-42-23-84-10-27 15-2 20-10 13v93l10 3z" stroke="#000" stroke-width="1.6811"/>
 <path d="m818 1126 7-25 9-20 6-18 10-19 14-15 17-14 15-6h25l19 6 11 10 17 14 14 18 6 16 6 13 6 27 2 15z" fill="#373435" stroke="#000" stroke-width="1.6811"/>
 <path d="m793 2884 25-1593 199-1 39 1596z" fill="#373435" stroke="#000" stroke-width="1.6811"/>
 <path d="m1004 1296v-156l-41-14-145 14v158l12-2v-84l4-10 1-8 9-15 5 5 7 10 3 10v81h22v-84l1-11 7-10 17-15 7 9 8 11 5 16v70h24v-67l3-10 7-7 10-10 8 7 5 10 4 15v77z" fill="#fff" stroke="#000" stroke-width="1.6811"/>
 <path d="m766 2344 37-2 47-5 48-4h45l47 2 47 5 44 4v-41l-44-2-47-5-47-1h-45l-48 1-47 5-37 2z" fill="#fff" stroke="#000" stroke-width="1.6811"/>
 <path d="m780 1845h13l32-6 34-4 34-2 32 2 33 4 39 5 30 6h29v-38h-22l-37-9-39-5-33-3h-32l-34 1-34 4-32 7h-13z" fill="#fff" stroke="#000" stroke-width="1.6811"/>
 <path d="m871 1278v-146l70 3v131" fill="none" stroke="#000" stroke-width="1.6811"/>
 <path d="m829 1153-11 9-35-17v-8l44-16 44-6h70l64 8 39 14v8l-40 15-31-12-32-5-72 4z" fill="#fefefe" stroke="#000" stroke-width="1.6811"/>
 <path d="m786 1145 39-13 46-6h70l61 9 42 10" fill="none" stroke="#000" stroke-width="1.6811"/>
 <path d="m824 1106 47-12h70l58 12" fill="none" stroke="#000" stroke-width="1.6811"/>
 <path d="m866 1094v21" fill="none" stroke="#000" stroke-width="1.6811"/>
 <path d="m943 1094v21" fill="none" stroke="#000" stroke-width="1.6811"/>
 <path d="m793 1281 15-3 26-8 25-7 23-4 26-1 25 1 25 2 25 5 24 9 25 6v39l-25-5-24-8-25-5-25-4h-51l-23 4-25 6-26 9-15 3z" fill="#fefefe" stroke="#000" stroke-width="1.6811"/>
 <path d="m1708 1684 160-19 180-9 147 3 163 16 55 13 22-23-109-38-182-128-64-135h-32l-36 74-38 61-173 131-116 35z" fill="#373435" stroke="#000" stroke-width="3.2008"/>
 <path d="m1801 1633 118-16 151-3 160 3 109 13" fill="none" stroke="#000" stroke-width="3.2008"/>
 <path d="m1977 1495 45-6 42-3 35 3 41 6" fill="none" stroke="#000" stroke-width="3.2008"/>
 <path d="m2006 1495-100 122" fill="none" stroke="#000" stroke-width="3.2008"/>
 <path d="m2102 1489 112 128" fill="none" stroke="#000" stroke-width="3.2008"/>
 <path d="m2057 1486v128" fill="none" stroke="#000" stroke-width="3.2008"/>
 <path d="m2044 1390h39" fill="none" stroke="#000" stroke-width="3.2008"/>
</svg>
